<mxfile host="Electron" modified="2024-05-14T08:23:56.425Z" agent="Mozilla/5.0 (Windows NT 10.0; Win64; x64) AppleWebKit/537.36 (KHTML, like Gecko) draw.io/22.1.18 Chrome/120.0.6099.199 Electron/28.1.2 Safari/537.36" etag="mdY2Am_NdBKZcK3DMCVW" version="22.1.18" type="device" pages="4">
  <diagram name="Layout" id="ZFv9xlf5xzCDa2VFMiQd">
    <mxGraphModel dx="1877" dy="621" grid="1" gridSize="10" guides="1" tooltips="1" connect="1" arrows="1" fold="1" page="1" pageScale="1" pageWidth="827" pageHeight="1169" math="0" shadow="0">
      <root>
        <mxCell id="0" />
        <mxCell id="1" parent="0" />
        <mxCell id="HbUvjkf8rnvpFFwmDns6-1" value="" style="rounded=0;whiteSpace=wrap;html=1;" parent="1" vertex="1">
          <mxGeometry x="190" y="115" width="440" height="1885" as="geometry" />
        </mxCell>
        <mxCell id="HbUvjkf8rnvpFFwmDns6-71" value="" style="rounded=0;whiteSpace=wrap;html=1;" parent="1" vertex="1">
          <mxGeometry x="420" y="490" width="180" height="180" as="geometry" />
        </mxCell>
        <mxCell id="HbUvjkf8rnvpFFwmDns6-2" value="" style="rounded=0;whiteSpace=wrap;html=1;" parent="1" vertex="1">
          <mxGeometry x="190" y="115" width="440" height="40" as="geometry" />
        </mxCell>
        <mxCell id="HbUvjkf8rnvpFFwmDns6-3" value="" style="rounded=0;whiteSpace=wrap;html=1;" parent="1" vertex="1">
          <mxGeometry x="610" y="155" width="20" height="455" as="geometry" />
        </mxCell>
        <mxCell id="HbUvjkf8rnvpFFwmDns6-4" value="" style="rounded=0;whiteSpace=wrap;html=1;fillColor=#949494;" parent="1" vertex="1">
          <mxGeometry x="610" y="160" width="20" height="110" as="geometry" />
        </mxCell>
        <mxCell id="HbUvjkf8rnvpFFwmDns6-7" value="&lt;font style=&quot;font-size: 28px;&quot;&gt;WF-Transcriptomes&lt;/font&gt;&lt;br&gt;an adaptation of&amp;nbsp;&lt;br&gt;https://github.com/epi2me-labs/wf-transcriptomes" style="text;html=1;strokeColor=none;fillColor=none;align=center;verticalAlign=middle;whiteSpace=wrap;rounded=0;" parent="1" vertex="1">
          <mxGeometry x="275" y="210" width="270" height="30" as="geometry" />
        </mxCell>
        <mxCell id="HbUvjkf8rnvpFFwmDns6-8" value="&lt;font style=&quot;font-size: 28px;&quot;&gt;C&lt;/font&gt;&lt;br&gt;&lt;br&gt;cDNA-Experiment" style="rounded=0;whiteSpace=wrap;html=1;fillColor=#dae8fc;strokeColor=#6c8ebf;" parent="1" vertex="1">
          <mxGeometry x="270" y="320" width="120" height="100" as="geometry" />
        </mxCell>
        <mxCell id="HbUvjkf8rnvpFFwmDns6-10" value="&lt;font style=&quot;font-size: 28px;&quot;&gt;U&lt;/font&gt;&lt;br&gt;&lt;br&gt;RNA-Experiment" style="rounded=0;whiteSpace=wrap;html=1;" parent="1" vertex="1">
          <mxGeometry x="425" y="320" width="120" height="100" as="geometry" />
        </mxCell>
        <mxCell id="HbUvjkf8rnvpFFwmDns6-18" value="" style="rounded=0;whiteSpace=wrap;html=1;strokeColor=default;" parent="1" vertex="1">
          <mxGeometry x="230" y="620" width="370" height="810" as="geometry" />
        </mxCell>
        <mxCell id="HbUvjkf8rnvpFFwmDns6-17" value="" style="rounded=0;whiteSpace=wrap;html=1;" parent="1" vertex="1">
          <mxGeometry x="230" y="490" width="170" height="940" as="geometry" />
        </mxCell>
        <mxCell id="HbUvjkf8rnvpFFwmDns6-13" value="&lt;font style=&quot;font-size: 20px;&quot;&gt;Reference Genome&lt;/font&gt;" style="rounded=0;whiteSpace=wrap;html=1;fillColor=#dae8fc;strokeColor=#6c8ebf;" parent="1" vertex="1">
          <mxGeometry x="242.5" y="500" width="150" height="100" as="geometry" />
        </mxCell>
        <mxCell id="HbUvjkf8rnvpFFwmDns6-14" value="&lt;font style=&quot;font-size: 20px;&quot;&gt;Precomputed&lt;br&gt;Transcriptome&lt;br&gt;&lt;/font&gt;" style="rounded=0;whiteSpace=wrap;html=1;" parent="1" vertex="1">
          <mxGeometry x="435" y="500" width="150" height="100" as="geometry" />
        </mxCell>
        <mxCell id="HbUvjkf8rnvpFFwmDns6-15" value="&lt;font style=&quot;font-size: 16px;&quot;&gt;Measured Nucleotides&lt;/font&gt;" style="text;html=1;strokeColor=none;fillColor=none;align=left;verticalAlign=middle;whiteSpace=wrap;rounded=0;" parent="1" vertex="1">
          <mxGeometry x="224" y="290" width="190" height="30" as="geometry" />
        </mxCell>
        <mxCell id="HbUvjkf8rnvpFFwmDns6-16" value="&lt;span style=&quot;font-size: 16px;&quot;&gt;Used Reference&lt;/span&gt;" style="text;html=1;strokeColor=none;fillColor=none;align=left;verticalAlign=middle;whiteSpace=wrap;rounded=0;" parent="1" vertex="1">
          <mxGeometry x="222.5" y="460" width="190" height="30" as="geometry" />
        </mxCell>
        <mxCell id="HbUvjkf8rnvpFFwmDns6-19" value="" style="rounded=0;whiteSpace=wrap;html=1;strokeColor=none;" parent="1" vertex="1">
          <mxGeometry x="230" y="620" width="370" height="810" as="geometry" />
        </mxCell>
        <mxCell id="HbUvjkf8rnvpFFwmDns6-20" value="" style="rounded=0;whiteSpace=wrap;html=1;" parent="1" vertex="1">
          <mxGeometry x="265" y="745" width="275" height="35" as="geometry" />
        </mxCell>
        <mxCell id="HbUvjkf8rnvpFFwmDns6-21" value="fastq directory" style="text;html=1;strokeColor=none;fillColor=none;align=left;verticalAlign=middle;whiteSpace=wrap;rounded=0;" parent="1" vertex="1">
          <mxGeometry x="265" y="710" width="90" height="30" as="geometry" />
        </mxCell>
        <mxCell id="HbUvjkf8rnvpFFwmDns6-23" value="" style="rounded=0;whiteSpace=wrap;html=1;" parent="1" vertex="1">
          <mxGeometry x="265" y="840" width="275" height="35" as="geometry" />
        </mxCell>
        <mxCell id="HbUvjkf8rnvpFFwmDns6-24" value="reference annotation" style="text;html=1;strokeColor=none;fillColor=none;align=left;verticalAlign=middle;whiteSpace=wrap;rounded=0;" parent="1" vertex="1">
          <mxGeometry x="265" y="805" width="310" height="30" as="geometry" />
        </mxCell>
        <mxCell id="HbUvjkf8rnvpFFwmDns6-25" value="" style="rounded=0;whiteSpace=wrap;html=1;" parent="1" vertex="1">
          <mxGeometry x="740" y="620" width="390" height="410" as="geometry" />
        </mxCell>
        <mxCell id="HbUvjkf8rnvpFFwmDns6-26" value="" style="rounded=0;whiteSpace=wrap;html=1;" parent="1" vertex="1">
          <mxGeometry x="790" y="685" width="270" height="35" as="geometry" />
        </mxCell>
        <mxCell id="HbUvjkf8rnvpFFwmDns6-27" value="fastq directory" style="text;html=1;strokeColor=none;fillColor=none;align=left;verticalAlign=middle;whiteSpace=wrap;rounded=0;" parent="1" vertex="1">
          <mxGeometry x="790" y="650" width="90" height="30" as="geometry" />
        </mxCell>
        <mxCell id="HbUvjkf8rnvpFFwmDns6-28" value="" style="rounded=0;whiteSpace=wrap;html=1;" parent="1" vertex="1">
          <mxGeometry x="790" y="780" width="270" height="35" as="geometry" />
        </mxCell>
        <mxCell id="HbUvjkf8rnvpFFwmDns6-29" value="reference transciptome" style="text;html=1;strokeColor=none;fillColor=none;align=left;verticalAlign=middle;whiteSpace=wrap;rounded=0;" parent="1" vertex="1">
          <mxGeometry x="790" y="745" width="310" height="30" as="geometry" />
        </mxCell>
        <mxCell id="HbUvjkf8rnvpFFwmDns6-30" value="" style="rounded=0;whiteSpace=wrap;html=1;" parent="1" vertex="1">
          <mxGeometry x="790" y="875" width="270" height="35" as="geometry" />
        </mxCell>
        <mxCell id="HbUvjkf8rnvpFFwmDns6-31" value="reference annotation" style="text;html=1;strokeColor=none;fillColor=none;align=left;verticalAlign=middle;whiteSpace=wrap;rounded=0;" parent="1" vertex="1">
          <mxGeometry x="790" y="840" width="310" height="30" as="geometry" />
        </mxCell>
        <mxCell id="HbUvjkf8rnvpFFwmDns6-32" value="" style="endArrow=classic;startArrow=classic;html=1;rounded=0;" parent="1" edge="1">
          <mxGeometry width="50" height="50" relative="1" as="geometry">
            <mxPoint x="590" y="945" as="sourcePoint" />
            <mxPoint x="770" y="975" as="targetPoint" />
          </mxGeometry>
        </mxCell>
        <mxCell id="HbUvjkf8rnvpFFwmDns6-33" value="" style="endArrow=classic;startArrow=classic;html=1;rounded=0;" parent="1" edge="1">
          <mxGeometry width="50" height="50" relative="1" as="geometry">
            <mxPoint x="590" y="765" as="sourcePoint" />
            <mxPoint x="780" y="705" as="targetPoint" />
          </mxGeometry>
        </mxCell>
        <mxCell id="HbUvjkf8rnvpFFwmDns6-34" value="" style="rounded=0;whiteSpace=wrap;html=1;" parent="1" vertex="1">
          <mxGeometry x="265" y="925" width="275" height="35" as="geometry" />
        </mxCell>
        <mxCell id="HbUvjkf8rnvpFFwmDns6-35" value="sample sheet" style="text;html=1;strokeColor=none;fillColor=none;align=left;verticalAlign=middle;whiteSpace=wrap;rounded=0;" parent="1" vertex="1">
          <mxGeometry x="265" y="890" width="310" height="30" as="geometry" />
        </mxCell>
        <mxCell id="HbUvjkf8rnvpFFwmDns6-36" value="" style="rounded=0;whiteSpace=wrap;html=1;" parent="1" vertex="1">
          <mxGeometry x="230" y="1480" width="370" height="440" as="geometry" />
        </mxCell>
        <mxCell id="HbUvjkf8rnvpFFwmDns6-37" value="" style="rounded=0;whiteSpace=wrap;html=1;" parent="1" vertex="1">
          <mxGeometry x="790" y="965" width="270" height="35" as="geometry" />
        </mxCell>
        <mxCell id="HbUvjkf8rnvpFFwmDns6-38" value="sample sheet" style="text;html=1;strokeColor=none;fillColor=none;align=left;verticalAlign=middle;whiteSpace=wrap;rounded=0;" parent="1" vertex="1">
          <mxGeometry x="790" y="930" width="310" height="30" as="geometry" />
        </mxCell>
        <mxCell id="HbUvjkf8rnvpFFwmDns6-39" value="&lt;font style=&quot;font-size: 20px;&quot;&gt;Differential Gene Expression Analysis&lt;/font&gt;" style="text;html=1;strokeColor=none;fillColor=none;align=left;verticalAlign=middle;whiteSpace=wrap;rounded=0;" parent="1" vertex="1">
          <mxGeometry x="240" y="1490" width="190" height="30" as="geometry" />
        </mxCell>
        <mxCell id="HbUvjkf8rnvpFFwmDns6-40" value="&lt;font style=&quot;font-size: 20px;&quot;&gt;X&lt;/font&gt;" style="rounded=0;whiteSpace=wrap;html=1;" parent="1" vertex="1">
          <mxGeometry x="547.5" y="1490" width="30" height="30" as="geometry" />
        </mxCell>
        <mxCell id="HbUvjkf8rnvpFFwmDns6-42" value="Download&lt;br&gt;Configuration file" style="rounded=0;whiteSpace=wrap;html=1;" parent="1" vertex="1">
          <mxGeometry x="355" y="1950" width="120" height="30" as="geometry" />
        </mxCell>
        <mxCell id="HbUvjkf8rnvpFFwmDns6-43" value="10" style="rounded=0;whiteSpace=wrap;html=1;align=left;" parent="1" vertex="1">
          <mxGeometry x="270" y="1595" width="310" height="35" as="geometry" />
        </mxCell>
        <mxCell id="HbUvjkf8rnvpFFwmDns6-44" value="Minimum Gene Expression" style="text;html=1;strokeColor=none;fillColor=none;align=left;verticalAlign=middle;whiteSpace=wrap;rounded=0;" parent="1" vertex="1">
          <mxGeometry x="270" y="1560" width="310" height="30" as="geometry" />
        </mxCell>
        <mxCell id="HbUvjkf8rnvpFFwmDns6-45" value="3" style="rounded=0;whiteSpace=wrap;html=1;align=left;" parent="1" vertex="1">
          <mxGeometry x="270" y="1765" width="310" height="35" as="geometry" />
        </mxCell>
        <mxCell id="HbUvjkf8rnvpFFwmDns6-46" value="Minimum Feature Expression" style="text;html=1;strokeColor=none;fillColor=none;align=left;verticalAlign=middle;whiteSpace=wrap;rounded=0;" parent="1" vertex="1">
          <mxGeometry x="270" y="1730" width="310" height="30" as="geometry" />
        </mxCell>
        <mxCell id="HbUvjkf8rnvpFFwmDns6-47" value="3" style="rounded=0;whiteSpace=wrap;html=1;align=left;" parent="1" vertex="1">
          <mxGeometry x="270" y="1685" width="310" height="35" as="geometry" />
        </mxCell>
        <mxCell id="HbUvjkf8rnvpFFwmDns6-48" value="Minimum Samples with Gene Expression" style="text;html=1;strokeColor=none;fillColor=none;align=left;verticalAlign=middle;whiteSpace=wrap;rounded=0;" parent="1" vertex="1">
          <mxGeometry x="270" y="1650" width="310" height="30" as="geometry" />
        </mxCell>
        <mxCell id="HbUvjkf8rnvpFFwmDns6-49" value="1" style="rounded=0;whiteSpace=wrap;html=1;align=left;" parent="1" vertex="1">
          <mxGeometry x="270" y="1845" width="310" height="35" as="geometry" />
        </mxCell>
        <mxCell id="HbUvjkf8rnvpFFwmDns6-50" value="Minimum Samples with Feature Expression" style="text;html=1;strokeColor=none;fillColor=none;align=left;verticalAlign=middle;whiteSpace=wrap;rounded=0;" parent="1" vertex="1">
          <mxGeometry x="270" y="1810" width="310" height="30" as="geometry" />
        </mxCell>
        <mxCell id="HbUvjkf8rnvpFFwmDns6-53" value="&lt;font style=&quot;font-size: 20px;&quot;&gt;General Options&lt;/font&gt;" style="text;html=1;strokeColor=none;fillColor=none;align=left;verticalAlign=middle;whiteSpace=wrap;rounded=0;" parent="1" vertex="1">
          <mxGeometry x="265" y="670" width="265" height="30" as="geometry" />
        </mxCell>
        <mxCell id="HbUvjkf8rnvpFFwmDns6-54" value="" style="endArrow=classic;startArrow=classic;html=1;rounded=0;" parent="1" edge="1">
          <mxGeometry width="50" height="50" relative="1" as="geometry">
            <mxPoint x="590" y="860" as="sourcePoint" />
            <mxPoint x="770" y="890" as="targetPoint" />
          </mxGeometry>
        </mxCell>
        <mxCell id="HbUvjkf8rnvpFFwmDns6-55" value="&lt;font style=&quot;font-size: 20px;&quot;&gt;Mapping Options&lt;/font&gt;" style="text;html=1;strokeColor=none;fillColor=none;align=left;verticalAlign=middle;whiteSpace=wrap;rounded=0;" parent="1" vertex="1">
          <mxGeometry x="265" y="1020" width="265" height="30" as="geometry" />
        </mxCell>
        <mxCell id="HbUvjkf8rnvpFFwmDns6-57" value="" style="endArrow=none;html=1;rounded=0;" parent="1" edge="1">
          <mxGeometry width="50" height="50" relative="1" as="geometry">
            <mxPoint x="545" y="989.5" as="sourcePoint" />
            <mxPoint x="297" y="989.5" as="targetPoint" />
          </mxGeometry>
        </mxCell>
        <mxCell id="HbUvjkf8rnvpFFwmDns6-59" value="-k14" style="rounded=0;whiteSpace=wrap;html=1;align=left;" parent="1" vertex="1">
          <mxGeometry x="267.5" y="1095" width="310" height="35" as="geometry" />
        </mxCell>
        <mxCell id="HbUvjkf8rnvpFFwmDns6-60" value="Indexing via minimap2" style="text;html=1;strokeColor=none;fillColor=none;align=left;verticalAlign=middle;whiteSpace=wrap;rounded=0;" parent="1" vertex="1">
          <mxGeometry x="267.5" y="1060" width="310" height="30" as="geometry" />
        </mxCell>
        <mxCell id="HbUvjkf8rnvpFFwmDns6-61" value="-uf" style="rounded=0;whiteSpace=wrap;html=1;align=left;" parent="1" vertex="1">
          <mxGeometry x="267.5" y="1185" width="310" height="35" as="geometry" />
        </mxCell>
        <mxCell id="HbUvjkf8rnvpFFwmDns6-62" value="Alignment via minimap2" style="text;html=1;strokeColor=none;fillColor=none;align=left;verticalAlign=middle;whiteSpace=wrap;rounded=0;" parent="1" vertex="1">
          <mxGeometry x="267.5" y="1150" width="310" height="30" as="geometry" />
        </mxCell>
        <mxCell id="HbUvjkf8rnvpFFwmDns6-63" value="40" style="rounded=0;whiteSpace=wrap;html=1;align=left;" parent="1" vertex="1">
          <mxGeometry x="267.5" y="1275" width="310" height="35" as="geometry" />
        </mxCell>
        <mxCell id="HbUvjkf8rnvpFFwmDns6-64" value="Minimum Mapping Quality" style="text;html=1;strokeColor=none;fillColor=none;align=left;verticalAlign=middle;whiteSpace=wrap;rounded=0;" parent="1" vertex="1">
          <mxGeometry x="267.5" y="1240" width="310" height="30" as="geometry" />
        </mxCell>
        <mxCell id="HbUvjkf8rnvpFFwmDns6-65" value="--conservative" style="rounded=0;whiteSpace=wrap;html=1;align=left;" parent="1" vertex="1">
          <mxGeometry x="267.5" y="1365" width="310" height="35" as="geometry" />
        </mxCell>
        <mxCell id="HbUvjkf8rnvpFFwmDns6-66" value="Transcriptome Merging via stringtie2" style="text;html=1;strokeColor=none;fillColor=none;align=left;verticalAlign=middle;whiteSpace=wrap;rounded=0;" parent="1" vertex="1">
          <mxGeometry x="267.5" y="1330" width="310" height="30" as="geometry" />
        </mxCell>
        <mxCell id="HbUvjkf8rnvpFFwmDns6-5" value="" style="endArrow=none;dashed=1;html=1;dashPattern=1 3;strokeWidth=2;rounded=0;" parent="1" edge="1">
          <mxGeometry width="50" height="50" relative="1" as="geometry">
            <mxPoint x="70" y="610" as="sourcePoint" />
            <mxPoint x="710" y="610" as="targetPoint" />
          </mxGeometry>
        </mxCell>
        <mxCell id="HbUvjkf8rnvpFFwmDns6-67" value="" style="whiteSpace=wrap;html=1;aspect=fixed;dashed=1;" parent="1" vertex="1">
          <mxGeometry x="547.5" y="745" width="35" height="35" as="geometry" />
        </mxCell>
        <mxCell id="HbUvjkf8rnvpFFwmDns6-69" value="" style="whiteSpace=wrap;html=1;aspect=fixed;dashed=1;" parent="1" vertex="1">
          <mxGeometry x="547.5" y="840" width="35" height="35" as="geometry" />
        </mxCell>
        <mxCell id="HbUvjkf8rnvpFFwmDns6-70" value="" style="whiteSpace=wrap;html=1;aspect=fixed;dashed=1;" parent="1" vertex="1">
          <mxGeometry x="547.5" y="925" width="35" height="35" as="geometry" />
        </mxCell>
        <mxCell id="HbUvjkf8rnvpFFwmDns6-72" value="" style="whiteSpace=wrap;html=1;aspect=fixed;dashed=1;" parent="1" vertex="1">
          <mxGeometry x="1070" y="685" width="35" height="35" as="geometry" />
        </mxCell>
        <mxCell id="HbUvjkf8rnvpFFwmDns6-73" value="" style="whiteSpace=wrap;html=1;aspect=fixed;dashed=1;" parent="1" vertex="1">
          <mxGeometry x="1070" y="780" width="35" height="35" as="geometry" />
        </mxCell>
        <mxCell id="HbUvjkf8rnvpFFwmDns6-74" value="" style="whiteSpace=wrap;html=1;aspect=fixed;dashed=1;" parent="1" vertex="1">
          <mxGeometry x="1070" y="875" width="35" height="35" as="geometry" />
        </mxCell>
        <mxCell id="HbUvjkf8rnvpFFwmDns6-75" value="" style="whiteSpace=wrap;html=1;aspect=fixed;dashed=1;" parent="1" vertex="1">
          <mxGeometry x="1070" y="965" width="35" height="35" as="geometry" />
        </mxCell>
        <mxCell id="hcj3iva5ZvR6s9cYC9g9-1" value="" style="shape=curlyBracket;whiteSpace=wrap;html=1;rounded=1;labelPosition=left;verticalLabelPosition=middle;align=right;verticalAlign=middle;" vertex="1" parent="1">
          <mxGeometry x="120" y="490" width="20" height="120" as="geometry" />
        </mxCell>
        <mxCell id="hcj3iva5ZvR6s9cYC9g9-2" value="always the same&lt;br&gt;structure,&lt;br&gt;just rendered differently,&lt;br&gt;depending on chosen ref type" style="text;html=1;align=center;verticalAlign=middle;resizable=0;points=[];autosize=1;strokeColor=none;fillColor=none;" vertex="1" parent="1">
          <mxGeometry x="-40" y="508" width="180" height="70" as="geometry" />
        </mxCell>
        <mxCell id="hcj3iva5ZvR6s9cYC9g9-3" value="" style="shape=curlyBracket;whiteSpace=wrap;html=1;rounded=1;labelPosition=left;verticalLabelPosition=middle;align=right;verticalAlign=middle;" vertex="1" parent="1">
          <mxGeometry x="110" y="610" width="20" height="1310" as="geometry" />
        </mxCell>
        <mxCell id="hcj3iva5ZvR6s9cYC9g9-5" value="changing structure, &lt;br&gt;entire content depends on&lt;br&gt;the one selected&lt;br&gt;reference type" style="text;html=1;align=center;verticalAlign=middle;resizable=0;points=[];autosize=1;strokeColor=none;fillColor=none;" vertex="1" parent="1">
          <mxGeometry x="-50" y="1218" width="160" height="70" as="geometry" />
        </mxCell>
      </root>
    </mxGraphModel>
  </diagram>
  <diagram id="OywUW2l5598jW33DaRN9" name="Seite-2">
    <mxGraphModel dx="1050" dy="621" grid="1" gridSize="10" guides="1" tooltips="1" connect="1" arrows="1" fold="1" page="1" pageScale="1" pageWidth="827" pageHeight="1169" math="0" shadow="0">
      <root>
        <mxCell id="0" />
        <mxCell id="1" parent="0" />
        <mxCell id="_sxNE73N8YmtwvWuGa0Q-1" value="" style="shape=image;verticalLabelPosition=bottom;labelBackgroundColor=default;verticalAlign=top;aspect=fixed;imageAspect=0;image=data:image/png,iVBORw0KGgoAAAANSUhEUgAAA40AAAMNCAYAAAA85JHhAAAgAElEQVR4Xuy9C9hdRXn3PTmQA4dwTkJIQhJAsKKAoAKVWsRj+34q9iDKJ1iharUVYz1gX0UBrVStFKuttmABi2JtRb3evnhCVGjAAnKuVCCEJBwSDiHhkAQIfPtefPfTee7MrJm191p7r/3s37qu53qeZ+9Zc/jNrJn5z33PrEnPdC7HBQEIQAACEIAABCAAAQhAAAIQCBCYhGikXUAAAhCAAAQgAAEIQAACEIBAjACikbYBAQhAAAIQgAAEIAABCEAAAlECiEYaBwQgAAEIQAACEIAABCAAAQggGmkDEIAABCAAAQhAAAIQgAAEIFCdAJbG6sy4AwIQgAAEIAABCEAAAhCAwMgQQDSOTFVTUAhAAAIQgAAEIAABCEAAAtUJIBqrM+MOCEAAAhCAAAQgAAEIQAACI0MA0TgyVU1BIQABCEAAAhCAAAQgAAEIVCeAaKzOjDsgAAEIQAACEIAABCAAAQiMDAFE48hUNQWFAAQgAAEIQAACEIAABCBQnQCisToz7oAABCAAAQhAAAIQgAAEIDAyBBCNI1PVFBQCEIAABCAAAQhAAAIQgEB1AojG6sy4AwIQgAAEIAABCEAAAhCAwMgQQDSOTFVTUAhAAAIQgAAEIAABCEAAAtUJIBqrM+MOCEAAAhCAAAQgAAEIQAACI0MA0TgyVU1BIQABCEAAAhCAAAQgAAEIVCeAaKzOjDsgAAEIQAACEIAABCAAAQiMDAFE48hUNQWFAAQgAAEIQAACEIAABCBQnQCisToz7oAABCAAAQhAAAIQgAAEIDAyBBCNI1PVFBQCEIAABCAAAQhAAAIQgEB1ArWKxqeffto99vhGt3nzE8XvLU9vKf621/Tp09yUyVPcdtvOdPK3/J48eXL13HMHBCAAAQhAAAIQgAAEIAABCDRKoGfRKELxkUcfcw+ue9g9+eRTbtuOAJzREYIzpk9322yzTfG3vTZ1hOSTTz7pNm3e3Pl5wj3auV/E46477+R22H47BGSjVU7kEIAABCAAAQhAAAIQgAAE8gl0LRpFIN7/4EOFYBShpz/5SY8PKfHoj8S1+667dETn1G6j4z4IQAACEIAABCAAAQhAAAIQqIFAZdEolsWH1q0vLIu77LxjYR2s07VU4pe4JQ2JW9KoM/4amBEFBCAAAQhAAAIQgAAEIACBkSFQSTSKK+nqu+9102dMd3vOnd2omBPxePd9a93mTZvd/D33CLq5jkwtUVAIQAACEIAABCAAAQhAAAIDIpAtGsXyJ+6o8zpiUdxH+3WJy+o9HfEo7qpideSCAAQgAAEIQAACEIAABCAAgf4RyBKNItrk0JoF8/YYyD5D2T+56p57i8N1RLRyQQACEIAABCAAAQhAAAIQgEB/CCRFowhGOel0QcdFdJB7C8VddVXHNVZOZG2LcLz00kvdG455Y1FThx56iLvsJz/pT631kIrm+ayzPu9OOvHEHmLiVgjUQ+Ccc891S5e+3/WjTR718pe7VatWu9tv+3U9mW9RLB/92Mfc2Wd/ocjRySe/133yjDMGkrt99n2OO+KII9wF5583kPRTiS5fvtwdeNDB7phjjmltHlNlmAjft72d1Mm4X22urr5U+5Ibrr/OLVmypE4UrYhL66MfY06vBR6GvParfffKkvt7J1AqGlUw7rVgz95TqimGu1bd3XfhKBNNuXxRqA/JICdn3SBFNHZDjXuaJFDXRMfPo8ZpJz39Eo07zNqxVJQcf8Lb3MUXX+we2bB+HFr93P9wzpw5SZGr5f3Oxd92Rx99dJPVlYy77WKg7gmO1NnChQsGJtKTFdLSAG1vJ3Vii7W5uhnU1Ze2RTQ2JZiairfONqNxDUNe6+hT5VlYs2bNGMJhm1s3UfdtjDMqGmUP48MbNrhFHcE4SAujhSYWxxUd4bjTrFl92+MYEo2xSWkbK9nPE6Kx7TVE/uogEJv0tFk0itAMeSzIYJqyjIpwWbZsWTJcHWxTcdQ9EU6lN6jvdaIk6TPBqV4Lo9JOysikFpeqU63njraIxqbmK8MgxIZJNPba6uxzoPWON0ivZOu/Pyga5ZRUsegt2WvBQPYwpoopexyX37XKiQV0xvRpqeA9f49o7BkhEUCgrwSGTTRqfq3lMRcaojGXVO/hfLGosSEaq3NFNDqHaCxvN4hG54ZJ4FbvBZ69Q4wwdrtUWxYuui3TRL1vK9EolrzlK1a5ObN36+spqVUBy6mqa9Y+4JYsWtC4JdSKRuno7RXyjdcOLzShCLm35kxGyjqQkLi1+fQ74RUrVoztgZJwoTJInNdcc+24aHRiW1a+0Hf+HlCJMMftTsLZ++SznEma3+mceNJJ48phy+qHlf1OoTSs+4S1Cmm7sBN/+VzKeuyxbyp4h1wIc90Lbduz5Ugx9uv/wgsvLJhIOfR3aF9uyAJm82HdQHUyJG57us8uJohCEwPfIuinldo7HHqG/LqMxRtriymesX4rNRm07qndir7QsyF58utD25afV9sGY+0itU/bPhMS7zvf9SfBPY0h11vbJvzn8FWvfs2Yu5LWuy1vqB8o67OUQWxlW54n2y9aVtrG5PPFixcX+yNz+iNN2997qp/59ZUzDsh9Wobf+q0jiz3Beml+LYfcBQn7bIeeOU37hOPfOravv6xfrtJOLKfc/jKnnZd5CEmZ/HrUvuIrX/77sTKm3L/L+me/zYWeBSm3X0e2neRYXWIiy7aFVFyxCXtu2/SfM7/f8dMNPQc+X9tmJB7bFm25QnOYUJ7leZPnNndPY9W+y843cp+9qnlNzUmEmbbjH/7g+0WZ9dK2bush1Ma76VPL5l85PKp489n82fE8t9021afG5gnD+PlWolFeqyGWxgXz5ra+PKvuua+wNMrrOJq8erE0ykMtl3Uvs5YF/d/vxEJ+4nWJRjvAa6fodxgyAJ1/wdfGHRZhyyP/L1gwf6tDgOykWMvnx5/rKijhzj3nnLEN+bn7NjRN6UBOOeXDYytZIdZ+WOlc/c3/MVcJyyIklP16LvP7Twn+0CKDcJBLV+hyGGseLZPYHjsrZsvK6E98VSjnHIgSE426WKEDTJV9E2WWxli8dkKSwzPW71QVjbltOpZeTHTqYBoSkX5fE2sXZf1q2WKCnZRqe/D7QW1zft78CYx+7udN9rxoewgxy+mzfMGlh/X4YtQXDqE8+kyq7m3XSZ4/aZI0PvHxU4s+J3cc0DLIb5+11rcuUulhSLFxyNavpL9o0aKxPiX2zKk48p+ZWBuu0k5CbEMCx/aXue28G9EYGr8tt5z+OdQnxPoJLY/fTlJ9iuQp1JfaMVry+onTTi89BCrUf1Zpm8rZf5ZsutbtPvSslVkabbsKhU0tXueIxm76Lit+c9pQlbzmzklUNMqY5wspf77jz99idZCaB4b6VL8v74ZHjmjU5y60mKALnlXarfZrdfapTWqTQcQ9TjSq2+e+S/Zq3HpXR2E1v0270fYiGssmrwsWLCw67rKJh5201yUaY6vHqRVzm59Y+XzXo1iee3G7iIlVv11p3kJlspPssrCxtEL15ouvUPliQlk6q7IBzC4yxCYtNg6bBx1sbP3HBmfLKeZSZj+PWV1Dz32ZaLSrnikOGn9KNKbi7bXNpiZ4IZHur2bnrMT6LEOiscx6bdOPtYsykRo6yCc0mYktSEjc9tkKDfD+xMfWW04/EOIQszRW7ReriMZU260yDugkza6ox+ox15MhVN+h+os933asjNV9bNJr08/pL6u086qiUSbbKeui5DlVt6FJdeyzWB5zJtG2L9X/c8oQGjt14aabtpmaS+QI79xxSeMKjVehRe1YP2Pz1E3fZcudWwexviyU1ypzktCCirY9+e2PNbn9WU6fGptT9crDr6NuFtv1/lgZ+tGn1qF/BhXHONEop6Vus83Uxi13dRZWLKMiHpt8DUcvojH0EPruTXLSYWyCq5z8CU5dojEkUHImYLYTD5XPdgplA2q3+1pyrJRlXO0AHAtbttKpk1n7Cgd1c1q5clXn9Q4rx1lhQx2VflYmFFKWqFzGZeUJ1b/vslXW2dvBOiWa/D4gJhpDr8bImTj5k7jc01NjiyGhOslps6nyxyYj1o0mVzyGRGPZMxKbXOasvMcmu1qnoQWEmDucfe5iz2GMV04/EGpfZe6pdm9NWX3nTrJUIJdZ3quMA7E6iOUn1Y+VjcmhfMXad5V+IOc5yukvq7TzqqIx9/U8qf65imiMTYRzFllj43PKHdXWf+5zGZqj5PbRoTaX+1xaV2IrBKTfv/POOwu34jKX1VR/V9aP5zLqpt58NrGF31je7fMQez5i873U2CV5y+lTY/1ZDo+Y0C3jEmpPbe1T69RA/Y5r0r3v2+GZfidKehCAAAQgAAEIQAACEIAABCAwHAQQjcNRT+QSAhCAAAQgAAEIQAACEIDAQAggGgeCnUQhAAEIQAACEIAABCAAAQgMB4HgexqHI+vkEgIQgAAEIAABCEAAAhCAAASaJoBobJow8UMAAhCAAAQgAAEIQAACEBhiAojGIa48sg4BCEAAAhCAAAQgAAEIQKBpAojGpgkTPwQgAAEIQAACEIAABCAAgSEmgGgc4soj6xCAAAQgAAEIQAACEIAABJomgGhsmjDxQwACEIAABCAAAQhAAAIQGGICiMYhrjyyDgEIQAACEIAABCAAAQhAoGkCiMamCRM/BCAAAQhAAAIQgAAEIACBISaAaBziyiPrEIAABCAAAQhAAAIQgAAEmiaAaGyaMPFDAAIQgAAEIAABCEAAAhAYYgKIxiGuPLIOAQhAAAIQgAAEIAABCECgaQKIxqYJEz8EIAABCEAAAhCAAAQgAIEhJoBoHOLKI+sQgAAEIAABCEAAAhCAAASaJoBobJow8UNgAhBYefe9bt269e6xxzcWP1wQgAAEIAABCEAAAqNDANE4OnVNSSFQmcDjGze56278L7fdtjPd7rvt4mbtsL3bYfvtKsfDDRCAAAQgAAEIQAACw0sA0Ti8dUfOIdAogcc7FsWrr7vZPWefRW6PObs3mhaRQwACEIAABCAAAQi0lwCisb11Q84gMFACl191rdtn8UIE40BrgcQhAAEIQAACEIDA4AkgGgdfB+QAAq0jsHL1ve7Bhx52B7/gua3LGxmCAAQgAAEIQAACEOgvAURjf3mTGgSGgoC4pe61YJ6b3dnHyAUBCEAAAhCAAAQgMNoEEI2jXf+UHgJBApdd8Qt35GGHuqlTp0AIAhCAAAQgAAEIQGDECSAaR7wBUHwIhAj86KfL3Ct/+wjgQAACEIAABCAAAQhAwCEaaQQQgMBWBBCNNAoIQAACEIAABCAAASWAaKQtQAACtYvG/7jqanf9jbe4lavv6Ryos66If8Ge89x+z9nbveK3X+p225W9kjQ7CEAAAhCAAAQgMCwEEI3DUlPkEwJ9JNCtpVFE4pf+4bwxoRjL8iuOOtId+3uv62OJSAoCEIAABCAAAQhAoFsCiMZuyXEfBCYwgW5Eo1gX/+mf/2WMyswZM9zBBz7P7brLs1bF62682a2++96x78Xy+MH3vcttO3PmBCZJ0SAAAQhAAAIQgMDwE0A0Dn8dUgII1E6gqmgUC+PpZ541lo83dayIr+xYE+31wIMPuS92LJEqHg9+wfPce97xttrzT4QQgAAEIAABCEAAAvURQDTWx5KYIDBhCFQVjR8+9VMdl9SHi/KfespSt3D+vFIWX/zKee76m24pwvzR//uH7jcPe9GEYScFuehfv+v+89ob3Oc/feqEKheFgQAEIAABCEBgNAlM+uJX/ukZVvoHW/n3rbnfffSMz7hPfuxDbu6c3QebGVKHQIdAFdHou6XGLIwW6uMbN7rTPv35QmjuusvO7q9O/4uuuZ/xV3/j7lp199j9s3bYYeBiDdHYdXVyIwQgAAEIQAACLSSAaDSVYieg8rWc9njs77++sepDNG6NNlQPEuqcL3621nqQyf2Pf3pFNE45rEUObRm1q4poVKuh7GH828+dkY3qR5dd7r75b98rwudYJ0MRv/8jp7u9Fy8c5+IqbedjH35fdj6aCIhobIIqcUIAAhCAAAQgMCgCfReNJ/3pB9173/V294IDnjuoMpemKxPOffdePE4kSp6b3HvVlGhsO+uyigjVQ9MN5sabf+W+8OWvYvHtgK4iGtU19YiXHOLe/tZjs6tJ9jee8vFPF+G7cVHV+qp7ISG7ACUBEY11UCQOCEAAAhCAAATaQgDRaGoiJFZ+3LGIXNSxiDQ1OUU0bv04IBoH20VUEY2yOCHX//PaV7rX/+6rKmW8l3uriHyxSG545JEib9Z9VZ8/P+P+s64C8HdedVTRD+y1YM8xS6a1VKtXgt7ztuP+oFiI0KvNC2aVKo7AEIAABCAAAQiMFIFCNO63797FZKhsYuNPuiScdduT72VS5bvyycTptjvuLCZYKrx8um10/QuJFWvRkImu5P3//vCyYiLqTwRTnKT8dqIp9/sWLmElcdtDNEKWw9CkVV6c7tenX1+2Hpp2ve32acoRjSnWZZP9UL5iIsSKCmt1tkx9USHpSFl22XmnIsnrOi+8l0u5+264ti5sujbebtnm3DcMolHKIe+EFKZl7VifV+2b5J6H1j08Tvj9xv7PGfN+CH0vLsy23jVtKzDFlV2fS7/OQuFz6oIwEIAABCAAAQhAYNAEJp34ng8840+GdLLjH8pi3TN1MutP1FKiUQvadpfJmKXRF3FqHbEH1+RwUr7+RFPFj8aXKxrLJq3C27IOiSLJT5P7Nbtt4CnRWIV1rmtxiE/oM6mvFx9y4Bg3u4cu9L0c1KKLJBqnWLzEEiWu2vqZvwBhxU4/66qKaPxE50AbeYWGvHfx4x9Zml3l191ws/vSP55fhH/PH5/QeafjAdn3+gGVnS/G9Xth9uBD68bteUxZ9u0iUeiZTVk5Q/ek0u2q8NwEAQhAAAIQgAAE+kBgUufdas/YQyP8SW9sb44VNhNVNOrk0LeKymTeWjZyOVkhIHVsJ6A5ojE1aQ2Jxli8fWhnlZMIHYSj4i+XdWjiXpaREFPJx+EvPmScBT3F0bewS3oSh1z+cybPy847zdrqM7XWD1pgVBGNvrX7zNM+4sTSnXN99WsXuWW/uLYI+oXPnu62nTkz57ZoGK0/37oXO1BJIvEFeuhAJF3YCbW31J7F0Pdap7io9lTN3AwBCEAAAhCAwAAIBPc0igVLLnkVR8ziYyfYE0k0+sf328mlijHrWpvDae39DwQPWrECIUc0piatmk87QVUraVvdUvUZKLM05rCWV5fkMPKfuZBoVF6hZ9O3FltxYoWLuKf6r7YJlSFmoeynW6qWs4po9A+0ybU2+lbGqgfopPpJf2FGXYPLXisk4X3GIUujfeeiXRiweUI0pmqJ7yEAAQhAAAIQGCYCiEZTWym3yDpEoz1Qp1vRqPtFYw0u5grs75Vr475SKU+bRGMZIxUYvggPWRq7EY1ar+q+nOtmW0cHVEU0Snq+pU7y+UdvfVPUciiC8av//E23ceMmJ6/pEJfWXOtkTtn8BSy7P9HeHzqB1R58FRKAqZNbEY05NUUYCEAAAhCAAASGhUDUPVXd5GIr6iH3VH+flwAITdiGcU+jrcyQi2kOp5h7mk5S/T2N9rRWe29q0qritswVrqolrp+Nukw05rBWIWMtRGVlyNm/aO8P5cW2+5C1K8fS6KeV445cZ/1UFY2Stu5tlL933WVn98rO+y0P6ghIFYQiFuXQmmW/uGYsqzNnzij2ev7mYS+qnH15bsTK6e/Jtc9SaP+1JKT7UGN7SSVMmXuqfC/iVC7/wCrdd5ojGm3aNu9V3asrA+QGCEAAAhCAAAQgkEmgOAjHt6SEDleJHTri32cnOKH9RTrRsuIyM699CdatpVEyl8NJ3Rh1Qupb/ezhQ771Su+zJ7XGJq0h1lJHZadE9gVwZiKpeshhXVUUh4SZTuR97hLuv279dSFWctp9N6LRT0OQNf3aF1st3YjGxzdudF+94Jvu+puePSG27BILo1wbN20qfnfznsbQicwSV8yS7+enbD+jnmacEo0Sn3VL1ngRjakWwPcQgAAEIAABCAwTgcI9VTKsrwKw7zDTwti9XSELlj+Bkj1C++69eOyVGxqPP9Fro2tkSqxIOUKWxm45Ce8Pve9P3EfP+My4l8r7J0JK3DqRtdxjk1a5x7KWz/xXccTqug0NOLceYkKgKGtHJPdqabQcNb3YfsZQu+9GNIbeHWhP622ynroRjZqf/7jqave9//vDzqmlDwezKHsYX/c7r3L/fdsd7p/++V/GwnQjHJtkQNwQgAAEIAABCEAAAs8SmPRM5wIGBCAAAZ9AL6JR41m5+h63avXdHRfSdcVHC+fPc/s9Z+9xex1FYCIcaXsQgAAEIAABCECg3QQQje2uH3IHgYEQqEM05mYc4ZhLinAQgAAEIAABCEBgMAQQjYPhTqoQaDWBfopGAYFwbHVzIHMQgAAEIAABCIw4AUTjiDcAig+BEIF+i8aQcPzgye9y++27NxUEAQhAAAIQgAAEIDBgAojGAVcAyUOgjQQGIRp94SiH5bz9rce2EQ15ggAEIAABCEAAAiNHANE4clVOgSGQJjAo0ZjOGSEgAAEIQAACEIAABPpNANHYb+KkB4EhIIBoHIJKIosQgAAEIAABCECgTwQQjX0CTTIQGCYCP1t2tTvs0IPc9GnbDFO2ySsEIAABCEAAAhCAQAMEEI0NQCVKCAw7gV/e+F9u3tzZbu7s3Ya9KOQfAhCAAAQgAAEIQKBHAojGHgFyOwQmIoHV96xxa+5/wB1y4PMmYvEoEwQgAAEIQAACEIBABQKIxgqwCAqBUSJwxVXXur0XL3R7zNl9lIpNWSEAAQhAAAIQgAAEDAFEI00CAhAIEnh84yZ39S9vcvvts9jNnYObKs0EAhCAAAQgAAEIjCoBROOo1jzlhkAGARGO13X2N26/3bZut113cbN22M7tsP12GXcSBAIQgAAEIAABCEBgohBANE6UmqQcEGiQwF2r7nHr1m9wjz32uBMhyQUBCEAAAhCAAAQgMDoEEI2jU9eUFAIQgAAEIAABCEAAAhCAQGUCiMbKyLgBAhCAAAQgAAEIQAACEIDA6BBANI5OXVNSCEAAAhCAAAQgAAEIQAAClQkgGisj4wYIQAACEIAABCAAAQhAAAKjQwDRODp1TUkhAAEIQAACEIAABCAAAQhUJoBorIyMGyAAAQhAAAIQgAAEIAABCIwOAUTj6NQ1JYUABCAAAQhAAAIQgAAEIFCZAKKxMjJugAAEIAABCEAAAhCAAAQgMDoEEI2jU9eUFAIQgAAEIAABCEAAAhCAQGUCiMbKyLgBAhCAAAQgAAEIQAACEIDA6BBANI5OXVNSCEAAAhCAAAQgAAEIQAAClQkgGisj4wYIQAACEIAABCAAAQhAAAKjQwDRODp1TUkhAAEIQAACEIAABCAAAQhUJjDpv/779mcq38UNEIAABCAAAQhAAAIQgAAEIDASBLA0Dkk1H3/C29yyZcvc7bf9urU5ljxefPHF7obrr3NLlizpKZ/nnHuuu/DCC91lP/lJT/EM+ubly5e7Aw862J188nvdJ884Y9DZ6Sr9o17+crdq1eqstif1tnTp+2tpA35mP/qxj7mzz/5C7fF2BYSbIAABCEAAAhCAwIgRQDQOSYUPg2isC+U++z7HrVmzxh166CFDLxpF7Fx00TezBFdd/OqOp4pobErcNRVv3ayIDwIQgAAEIAABCExEAojGIanVURCNKha1SiaCaNxh1o5DbWWUukA0DkknQTYhAAEIQAACEIBAQwQQjZlg1c3QDx5yORSRcMwxx7gTjn+re8MxbxwLXsU9Ud089Wa5d+XKVUH3VHUH9PP1nYu/7Y4++uixjy699NIiL2ed9Xn3859fXriQ6vXIhvXFn5LvMrGmcZSVP2QNqsJDROOxx76pcOOUvxcsmJ9taQzlT8p70oknjmXZcpUvtPwayC/Dq179msLiKZcKWJtOWb1aV02/HlasWFG4W+olbeaC888b1xpzmOsNVnBLG3jnu/7EHXHEEVvFKyLwmmuuHUvLcrKPhC8a/XYyZ86cMQtq6PmQeJSPxvHDH3y/cNf127bUt3LXz20btm1L2VR5rmy5+B8CEIAABCAAAQhAII8AojGDk05Y/cm1TpLtZF8n1b6VTMVDanIuWdEJvS9m9DN/ku6H9fcQhtLyxYefB8mrxCnCSCfpsXJJHs4955yxvYqhdGKi0Rdd8ncOjyqiUcWgLzQkDblUNGpZ/T2hoT2YvnhRrspPWWndpMohzBYsWDgm2vx4fDGnn9u2lMNcyihls1ZZbYeh9umH9YWsL7D9x8IXmVp2bSc23ZgbaagNa1jh6i8QlNWL1omyRzRmdGAEgQAEIAABCEAAAj0SQDQmAJYdZKITV1+s6GTdWrBk0ixX2cEuofg0e1b0lIXVSbfmISZKdNJuJ972/hgiK+zKRGNVHrmiUctmLVN+nsvKEyuDFfgqemw6sXyG8qWfhdxucw+QsenFyhaq85iLc8r1OVZ2rW+/blOi0R6SFHpeQs8cexp77Om5HQIQgAAEIAABCPRAANGYgJearKr7pboW2v81+tTEXMKV7R2z95eFtdajmDUpJjxTZdYy2TyUuada18sUj1zRmIpH8hqrE/nO5jlW9pg4i9WDhF+1auW4RYIyq54KpZQ12qYnnEIuqFI2+11sf2VKsMbKGGo/ZaIxdAJrrJ5tneW2yR76Qm6FAAQgAAEIQAACEIgQQDQmmkZKlNhJb5lolL2E1uLmJ18mAGw+ysJaS01dojG0b813ma0qGst45IrGMg7CNiXGrPCpQzTG0ky5goZEXRnzVNl8NrE9h377i70qBdHI+AEBCEAAAhCAAARGmwCisQbR6Ft62iQa1WpVh2hUN0LfPbNXS2ObRKMKpjpEY8htU5pZVUGfQQEAACAASURBVNGYYt6NaExZMkOPA6JxtAcJSg8BCEAAAhCAAAQQjYk2EBMAepu1DvUiGsv2PdqJe1lYu5+uV9GY65o5CEtjzl7Rstde2PqtQzT6p8D6zatMNNrvcpmXlS3XdTrVDSIaU4T4HgIQgAAEIAABCExsAojGRP3mHITju/X1IhpjgkXz4LuCpg7CWbZs2djrEOoQjX58vmAetHtqGQfNZ+ogHN9S3KtoLNsfGDuQSPJp8xhzi7YHIqUEnX96auhk3pzuLZWGPbV26dL3O+vqGouDPY05NUAYCEAAAhCAAAQgMFgCiMYM/mWv3LAnj/YiGiUroVdD6Gfyvf/KCBUBoVdu+BP5XkWjlt+6psq7/votGsvyYjkIr5xXbuSc/plr+bOv2fCbl//qE7/dlL2+JMU8JET9dHzRGFp8kPxJ+vLeSHlforZB/4TXKqIx1tbqFo28pzGj4yIIBCAAAQhAAAIQqIkAojETZOhF66HXPPQqGiU7oRe1n3/B11zI2mdfii7328N2ehWNEqeKJsUlZf/kpz7VOSF09ZiQ7Yd7auidjJKnEIeQtct/qX3o1Re9WBpTr//w6+HCCy90fl5CbSmHuZQ9dMiNtIHYIUG6V9Jv+mXvX6wiGm1dqDiuWzTynsbMjotgEIAABCAAAQhAoAYCiMYaIBIFBFRY29ds+GRSB+HUTbFsv2PdaREfBCAAAQhAAAIQgMDEJYBonLh1S8n6SCB1kqlkpZ+iUdOKvUajj2hICgIQgAAEIAABCEBgyAkgGoe8Asn+8BBoQjSKO61cuh/RF6d2v+3wkCKnEIAABCAAAQhAAAJtIoBobFNtkJcJTaAJ0RjazygQQ3skJzRcCgcBCEAAAhCAAAQg0BiBWkXj008/7R57fKPbvPmJ4veWp7cUf9tr+vRpbsrkKW67bWc6+Vt+T548ubFCEjEEIAABCEAAAhCAAAQgAAEIdEegZ9EoQvGRRx9zD6572D355FNu244AnNERgjOmT3fbbLNN8be9NnWE5JNPPuk2bd7c+XnCPdq5X8Tjrjvv5HbYfjsEZHd1yV0QgAAEIAABCEAAAhCAAARqJ9C1aBSBeP+DDxWCUYSe/nSbQ4lHfySu3XfdpSM6p3YbHfdBAAIQgAAEIAABCEAAAhCAQA0EKotGsSw+tG59YVncZecdC+tgna6lEr/ELWlI3JJGnfHXwIwoIAABCEAAAhCAAAQgAAEIjAyBSqJRXElX332vmz5juttz7uxGxZyIx7vvW+s2b9rs5u+5R9DNdWRqiYJCAAIQgAAEIAABCEAAAhAYEIFs0SiWP3FHndcRi+I+2q9LXFbv6YhHcVcVqyMXBCAAAQhAAAIQgAAEIAABCPSPQJZoFNEmh9YsmLfHQPYZyv7JVffcWxyuI6KVCwIQgAAEIAABCEAAAhCAAAT6QyApGkUwykmnCzouooPcWyjuqqs6rrFyIivCsT+Ng1QgAAEIQAACEIAABCAAAQiUikYVjHst2LM1pO5adTfCsTW1QUYgAAEIQAACEIAABCAAgYlOICoaZQ/jwxs2uEUdwThIC6OtALE4rugIx51mzWKP40RvnZQPAhCAAAQgAAEIQAACEBg4gaBolFNSxaK3ZK8FA9nDmKIiexyX37XKiQV0xvRpqeB8DwEIQAACEIAABCAAAQhAAAJdEthKNIolb/mKVW7O7N36ekpq1fzLqapr1j7glixa0CpLaNVyEB4CEIAABCAAAQhAAAIQgECbCWwlGuW1GmJpXDBvbpvzXeRt1T33FZZGeR0HFwQgAAEIQAACEIAABCAAAQjUT2CcaFS3z32X7DUU1jvNb1vdaOuvLmKEAAQgAAEIQAACEIAABCDQXwLjRKOclrrNNlOHynInllERj7yGo78Nh9QgAAEIQAACEIAABCAAgdEgMCYaZS/jbcvvcsNiZdTqGdZ8j0bzopQQgAAEIAABCEAAAhCAwLATGBON6zc84h57fONQWuzEQrrdtjPdjrN2GPb6IP8QgAAEIAABCEAAAhCAAARaRWBMNMorLORAmR22365VGczJjJykKm6qsreRCwIQgAAEIAABCEAAAhCAAATqI1CIRnXx3G+fxfXF3OeYfvXrO5zkf/LkyX1OmeQgAAEIQAACEIAABCAAAQhMXAKFaBRL3cMd99RheM1GrCrk9Rs7ddxTh9FSOnGbFyWDAAQgAAEIQAACEIAABIadQCEaxbVTrmF+3+FEKMOwNybyDwEIQAACEIAABCAAAQhMPAKFaLxr1d1u9912cdvOnFm5hLfdfoe7/D+WVb4vdsMf/N4xHWvh9pXjE2vpQ+sednst2LPyvdwAAQhAAAIQgAAEIAABCEAAAmEChWiUQ3DmzZ3jZkyf1hWnT535WXfJD37U1b3+TX/x4Q+433nNq7qKZ9PmJ9w9963hMJyu6HETBCAAAQhAAAIQgAAEIACBEtEoh8g89zl798SoV+HYi2DUjNdRjp4gcDMEIAABCEAAAhCAAAQgAIEJRqCwNNYltroVjnUIRqmXuspRVsdPPfWUk9Nm5aeDboI1B4oDAQhAAAIQgAAEIAABCAwLgUmTJhVvj5CfqVOnNpbtWkWj5LKqcKxLMDYtGkUgbt68GaHYWFMkYghAAAIQgAAEIAABCECgWwIiIKdPn+7kd91X7aKxinCsUzA2KRpFMG7atKlu9sQHAQhAAAIQgAAEIAABCECgNgJNCcdaDsIJlTJlcaxbMDZ1EA4WxtraMBFBAAIQgAAEIAABCEAAAg0TEOE4Y8aMWlPp+ZUbZbmJCce6BaPkoalXbmzZssU98cQTtUInMghAAAIQgAAEIAABCEAAAk0RmDZtmpsyZUpt0Rei8f4HHyoi3H3XXWqLWCOywrEJwShpNVUG2ccoh95wQQACEIAABCAAAQhAAAIQGAYCIhhFONZ1FaJRrHQPb3jELZg3t654x8WjwrEpwSiJrbrnPrfTrB3cDttvV2sZNm7cWGt8RAYBCEAAAhCAAAQgAAEIQKBpAjNnzqwtiUI0iiXttuV3uf32WVxbxDaiX15/g3vhQQc2Fr+8bkPyL8fN1nkhGuukSVwQgAAEIAABCEAAAhCAQD8I1C4aJdPL71pVuKfWbanrBxCxlIp76pK9FtSeHKKxdqRECAEIQAACEIAABCAAAQg0TKAR0bi+45762OMb3by5sxvOfv3R33PfWrfdtjPdjh331LovRGPdRIkPAhCAAAQgAAEIQAACEGiaQCOiUV1U912yV+0unk0CaTrfiMYma4+4IQABCEAAAhCAAAQgAIEmCDQiGiWjYrHbZpupjZyi2gQIiVPcUp/e8rSbM3u3RpJANDaClUghAAEIQAACEIAABCAAgQYJNCYan3zyqWJv47BYGzW/spdRxG4TF6KxCarECQEIQAACEIAABCAAAQg0SaAx0aiWu82bn3DzG3r9Rp1gVndeszF9+rRGLaOIxjprjLggAAEIQAACEIAABCAAgX4QaFQ0yh7B5StWFe6ebT5JVU5MXbP2Abdk0YJG92AiGvvRpEkDAhCAAAQgAAEIQAACEKiTQKOiUTK6qWNpvGvV3cUrLJpy++wFiLql7rVgTzejY2ls8kI0NkmXuCEAAQhAAAIQgAAEIACBJgg0Lhol0w+tW+8e3rDBLeoIs8mTJzdRjq7iFEvoio6g3WnWLLfLzjt2FUeVmxCNVWgRFgIQgAAEIAABCEAAAhBoA4G+iEYpqJymKla9vRbMa0O5izzcteqewvrZr/dJIhpbU/VkBAIQgAAEIAABCEAAAhDIJNA30egLxwV7zh2oxVEsjKvuvq+vglHKj2jMbJUEgwAEIAABCEAAAhCAAARaQ6CvolGF46bNm92CeXsMZI+jWDtX3XNvZ//i9L5ZGLW2EY2tafdkBAIQgAAEIAABCEAAAhDIJNB30Sj5kj2O9z/4UCHa+nmqqpySKm6yu++6S1/2MNo66Kdo/NlbtyuSf9nXHos2hQev/4G7+a/fOPb99osPdoecfkVm02lnsL/4xn+6sy+5yZ382ue7v3zzi5OZXPLeb7hjD987K6xGduk1X3Vf+/5H3Ktf8i531CHHu1P+7gh36P6/6/7097+aTK/bAJ8491Vuxb03uKXHXugO3OcVwWhuuP3H7qyLjhv7btEeB7pPnPjDbpNs9L6T/+b5bv2ja915H13jvvivb3fX3Prv7sx3L3Nzd9m70XSbjPy+h+4o2oJylzLKdfb7bhpL9m2fnOPe+ppPu6MPfXuTWWk0bm3/Unexy4bRtplTxxq2ze23bsA5bafuNI/8+HfdL+98wH3nA692r3zB/NLo71izwb3gg9/KCqsR/ejG1e4Nn/uBu/Gzf+D2njOrp+xrHyH93wMPryz630E+R3X0X8J/4W7buwv/7Oie2OjNVcc+m+h2x5/rzjrhCPeOo59bS37KIpmI9dkttJP++B1u9epV7vuXXDIuiju+fopbfcnfuvmv/TO391vOjEZ/7akvdY/eed3Y9wf8+bfdrge9utvscB8ESgkMRDRKjuRU1dV3dyx+M561+DV5QI5YF9fc/4DbtGmzm7/nHo2fkhoj3ibRuPG+291/fvDAZIc0bM9P1YGzG9Gok1qZtDxvyctaIRp10ilC9s2vPK311SYieN0j9xaCaqKIRoEuolAXEHoRjcLkgfWrS0V/TpgmGoLU3X4LDy9tZzYMojFdE6m2k46hWog6RGNZ/1mnaPzGjz7ufvCLLxcLS7cs/1lQNGoYn4Jd2NB+UsOEFvtywtTRfw2raDzuby91Kx941F1+2uurNTgvdE59yvNgr1B9qYCXsDtuP3vcIp3enwpTR312C2P2nLnumxd9wx111FGVReMtX3iLe+Dq75YaB7rNF/dBIERgYKJRMiN7Cx9c93Bhedx1550K61+d4lHil7glDYlb0qgz/qpNqm7R+JrXvtbNn7/AnfOP/1A1K06tjGWWyMqRDuENvYpGsRjJ4DZosaaT8jLrT5uqxx+kdQIxLHkv4+hP/KWMcvnW3lxLY44gzAlTd53niL9QmJz76s7rsMWXajuDLE/M0jgI0bjmoTsLjwrf6yJk/Zbn47bVV4+JCH+xT/ptFYe+EMkJUzzT3qJXt/1X3aKx1/aRa2msWzSG6lPKktNX+s+M3BNbqPPrOBQmpz5j4q6Mu9zzmc/8lXvbCScEg512+unuW9/6V3fzTTd2VX1iZdxp/5eWWiK7iriBm6SsV1555VYW1QaSIsoGCQxUNGq5xBIo7qriPiruqvrTbbklHv2RuMQdtQ3viKxTNB7w/Be4tWvXurVr7usK0z0//oq77fz3j/wKVTeiUScbOmlpg2jMcRnsqqE0dJMveLqddDWUtZ6ilQnJYc97Y2GFm4iiUepNrjJX7FAYRGO6WaXaTjqG5kIMWjT6/Zu2JV80Sh9y1S3fHmdlsp+FFlls35MTRijX0X+NsmhM1WeOaAyNebZt5ITJrc/zzj/ffehDH3bvec+73cdPPbX0YbvzzjvdSw473L3whQeXiiSZx33gA38eFZWpJ/rKP13iZh/xh0MhGqUsvc5bUzz4vnkCrRCNWkyxDIrYE8vg5o77qgg+ObBm+vRpHdG3TdCtVNxcn3zyySK8HLAj90t4sSrK/YO0LNrqq0M0pjoj6USeWP/sXqNpO85xh39x+bhs+N/b/KkvvG+F9MPve8Ln3bxXvHPsNnVx1Q9serKvUu4RcSrXiz97Q+ESq3/PnLtP8Xcdeyv/4dJfuaXnLxvLW2xvhrqv+mXP3f+Y+zjKROTB9asK90LZhyhWSPlf9u3piqe6ZFrrml0d13Catt0T5rvd2Pz5kyoRtvL/5dd/vciHXClXHwnjpyci6MgDjy1cw+SS+L76f5YWexP9/UX93FupLnB+2f09WlLfl996rzvv3UcVe7L0Cu2zkpV2/2pif4+unn/virMKbnL5Vmrduxpqa8o4J4zcr3Xu73MNWcTtfrqydq5xxvbV+un6YfzJnJ8fv43muAXKs/XfK68s3GPFXVEv+xzpZNGWpZt9cNZNzsZhn1FruZJnRBYSJL+yT1OfoZgrXW4/Y8OVLYBJ29bnQixF37l6RemzIF+q+2ro2bLPih9Gny19NiVd2duoV84eyqoMbBu2FkOJT/rK17106bj9xFq32g5zwlTNWyy8ikb5XuvjhYt328rt045ZdrzKHfukfax5+PFx2Zmz07Zu+RfeXHymlsYzv3v9WDg/rVB70Mia7Ctj+79Di1PaN2o/lxOmSn1edtll7k3Hvtm97nWvi3p45YpLjcsu/OuCvubLzrvs937+/XMpZE/kw7de4X7j3eeNzbskrMzDdO4l/9v4dnvR693z3vv1IlqJY9MDK4sf2Tcp+yvlb3GJ9cNJ2Ny9leIh98tfXud+cdWVbvHixVXwE7YFBFolGn0eIiAfe3xjIQQf7/ze0vlfhKG9RCBOmTzZbbvtzEJgbtf53Sah6Oe3V9GY02FpevKwr132L1uJRv2+zNLoizjtsELhRVD6olT+n/Wcw8Y6HP8wHv9vf3VM0/I3b8v303aZ1/WhPDE3Gx18H7vgxLFqsRMtcScJXbNnz852IdHVaxm45JLJovw9e+e9CsGlE1zrfmMtmH4+UpaalKVRJ0c6oQ2lJQPuu475+7HDaKyA9Q/jufhnnxk7mEeEqO6/C1kBZCK28w571H4oT87hHP6ESyez1r1K43nDixZFD6Woo11IfWo9qPDQerOLATmup6kwNi2tcyt6cg+eCVlz7LMSC+MvJGhZY2WXOKWt7bbj/K0smvps+YfkSPvad/6LxsLaNhgrd2r8Dbkv2nvsM6J1rM+Zz/aYl32ocKuUvMtzJocmlR1slcqf/V7atVz2YBVt33ahpGzPoQgEuXTfWi+WRonHf/auvG3tmFARl7UvfenvgkUtc+uLsfEXVOwz5S94aDsS/lIn+kzkhKlaL7HwKsK031HGvgCzY5aGiS10xsY+W5/SVvx6kDzqQoCmr2LUtpsy91Sdo4TKXCa0QuHtYo09GMvfN63PmYyzsqikfUdOmKr1qQv3oTmBtuectpuzvUgX3v3Fej+/ZZZGPUhHwqtQlD2QIvr0wEOZf9338/PH5mxqCNB5n38Yj8SjB/PMnL14nKeaCEa5NF6dL8YO5ZHDf773ve+Vuu5WrRfC94dAa0Vjf4rf31R6EY3aGeW4Rkip6hCN/gqXdiZlJ3PZDsnv8ORvPQXM7+jkHrl0ZUv+7nW/ZWzgDH3ejXtqqtX4E2ff/ckKOzvpL5uU1yEarWXRd4cLlcnm15/I+66XfjnKXBPr3rOYI/Z00uVPfHQypIsHdezRSbUJ/T53oSAlCCW+VJjQnqCYGMvJf8gKY++LhYm139i+pTLRaN0Qc56jbsqd4htb5Am53omA8fduzdllce2iUa3qIvTk74uuvKMQZyIO33nO5WNCTessJhpDn/ciGsuevZx2lxtG2pIKC3/hTg8G8y3vvgDx22BOmNz8pMKF3FPteCT/n/L6g8adaOrXs00jd+wL1bG9N1bn/ewv/fL59SufqyAUkSgePTq+2HFKvBLKwqTqKfa9dbVUC1roUBsbhwrPlLWtDtHoWxZztiX58zN/HqkCUs7B8OPRuaG1YKb2W+ZaZLutH+5rhgCisRmuwVh7EY0SYb8tjbYTsIWy7gjyve8eYUWjilC/UwrFoemk0o9VXWjg7GbS023TsKJRJ7lWhOmkU1fEyybldYjGlGte6PRBYRAbjHU1159cl7lO5rxuoRvmvquctRb6k+dY3P3cWzSsojHnoKWyMP0UjXVZGlNCM1Ym/3MVir5olL/lqtvSKIsh4looQlEtS6f+3iHuzvsfcV/7+a+3cnuMiUa7qCJ57ab/DMUfirubZ97eE7L42v2K1vIucYT2p8vnfl9Z5gHSS95zRGPMDdh3K/Xz0Kul0bdytk00Ws8EHWvKFkNzwnRTh+J50oulMfdQmF5FY5m3mZZbvcB8DrrAb0WjxueLRru9yI/HurDqd1Usst3UD/c0RwDR2BzbrWLuVTRKhKk9jZpoHZbGMtEWOuo5ZWmMicYZuy0cZ2nstUrKVlvtfpqm3FNVKPoCMuRCqhPTIw96S7E/0H+nn8+hadGoeSs7kdCu4MZEY8itsNc6zb1f6t4XjjmiMWflvE731JwJacrKJTxSYUJWvJR1OcY5JaDkvrIwofZbNhnvxdJo99RK3ro53TjFt1tLY1Oi0XdDPfVfrnYv+4157mf/dY/ba7cd3F0PPLKV22rK0ui78TclGutyTw21l5DIKNqp9+7akDdFKkxuX5QKlysaq+wXLBON8k5O//LrVz6vw9JYp3uq5WcXAUIHqNlnMidMqp7873MW7nMsaKlTVTXNpkVjaCtQmaWxTDTmLvKzp7FKi2tfWERjH+ukDtGo2U2dQtUP0bjh11eN7WnU1aaqlsaU73s31ZO72qoHAzRxEE6uaNQJrhyKYQ9pGIRo9K2BujJfxdIYEp/d1GG399iJWI5o1Mlz3e0gVIZcS6P/HrO5u+wdxJEKY9OKhU8dhGMt4qHMpMKERKN/zL2NsxfRmHPCq6YX2iOp3/n7pGLvPg2VwT9NOWZ1lDTqtjTqxF8WTUQwykvadRFFhONfvvnF4zCX7WmU+/R5UMEoN9tFN3ne7l73+FaurxK235ZGOeDLHtyl74KV/IQOx7EnX+eE6bZvsvfliEY9tMgKvFgeyrxsQod/+fHkisaQy39dTGLxxJ5F+8qN2InVvjUyFCYn/zliUOMpW9yXeD73ub/OOiOhH6LRP4fC38O491vOHLfNyZ9TWjfX3HMoUvPWnHogzGAJIBr7yL9O0SjZthup7WmmftHsXsScg3BSK0e+W4OcnCpHP8tpXboZOsc9VfIYOg3MF585VWRPBNR77Gl0vruPTIBO/7dr3ZH777HVhConzViYXPdUvV9daEJ7/mKno1rLSc5BOCn3VOtaKuH9g3tyLI1SptDJlfYQg1746r321ED5vBv3VH+C6+erygp/bnlyRaPEF6oPe5JgWRh7kITEGWpjqYNw9MRS30Jjy5sKY09Glfttm4ideOrnO7Tv11oEQ2mF0pPP9OTTWPsMWS3tc2TrwH82+y0adSHM368rJ3P6Yi90iqaw8BdN7KnEEp9/Aqtf/9aF0p6e2q89jfYU21Cd2voMWaBzwuQ+72XhckSj3B8a2/y6yhn7YmH8dpErGiVP9iTVuvvK0DMcOzTK7+diz3FOmFSd1vWeRpm3HX744dHXdqgXl81PaE6UOggn5Z5qXUvFnVQOytF3P+a4p2o+Qyfz+/POXJfcVD3w/WAJIBr7yL9u0djHrJNUgwS6dRlsMEtEPQEIxA6ZqVq0nHhywlRNt9vw9jRViafbE1S7zQP3QaAtBMpOQbUnqLYlzxM1H+remjoAZ6KWn3INPwFEYx/rENHYR9hDklTsfY1Dkn2y2WICdQi50J4gW+ScMP3EZF3WJO1Bu033s/ykBQGfQMydVCzOe+687VYHJEGvOQJiZZTr+5dc0lwixAyBBgkgGhuEa6NGNPYRdsuT8l3a6n4VRcuLTvb6RKAO0dinrNaaTMw9tanTe2vNPJFBoAECIffUsvfSNpAFooQABCYAAURjHysR0dhH2CQFAQhAAAIQgAAEIAABCNRCANFYC8a8SBCNeZwIBQEIQAACEIAABCAAAQi0hwCisY91gWjsI2ySggAEIAABCEAAAhCAAARqIYBorAVjXiSIxjxOhIIABCAAAQhAAAIQgAAE2kMA0djHukA09hE2SUEAAhCAAAQgAAEIQAACtRBANNaCMS8SRGMeJ0JBAAIQgAAEIAABCEAAAu0hgGjsY10gGvsIm6QgAAEIQAACEIAABCAAgVoIIBprwZgXCaIxjxOhIAABCEAAAhCAAAQgAIH2EGitaHzqqS3ujhUr3SOPPpZFa+rUqW7e3Nlu9m67ZIUfRCBE4yCokyYEIAABCEAAAhCAAAQg0AuB1orGK6++3j362OOVy3bgAfu3VjgiGitXJzdAAAIQgAAEIAABCEAAAgMm0ErRuO7hDe6a628u0Gy/3bZum44VMXWJRfKpLVvc7h1L40Ed4djGC9HYxlohTxCAAAQgAAEIQAACEIBAGYHWi8ZDDzrA7bzTrGQtXnPdzW7d+g1u5x1nuUMPPiAZfhABNm/e7J5++ulBJE2aEIAABCAAAQhAAAIQgAAEKhOYPHmymz59euX7YjdMeqZz1RGbb2mcSKJxS8cS+sQTT9SBiDggAAEIQAACEIAABCAAAQg0TmDatGluypQptaWDaMxAuWnTJleTts5IjSAQgAAEIAABCEAAAhCAAAS6IzBp0iQ3Y8aM7m6O3IVozMApglHcVBGOGbAIAgEIQAACEIAABCAAAQgMhIAIRnFLld91XojGTJoIx0xQBIMABCAAAQhAAAIQgAAE+k6gKcEoBUE0VqzOp556qjgYR36wPFaER3AIQAACEIAABCAAAQhAoDYCIhTl0Bv5mZrx9opuE0Y0dkuO+yAAAQhAAAIQgAAEIAABCIwAAUTjCFQyRYQABCAAAQhAAAIQgAAEINAtAURjt+S4DwIQgAAEIAABCEAAAhCAwAgQ6ItolHc4rn3gQbf3ooUdX9v/eV/INdfd7Nat3+B23nGWO/TgA0YAN0WEAAQgAAEIQAACEIAABCAwXAQaFY1PPbXF3bFipVu5+t6CyowZ090B++/rdt5pVvE/onG4Ggu5hQAEIAABCEAAAhCAAARGj0BjolFQ3nzrbW7Tps1bUV04f4/C6nj9Tb/C0jh6bY4SQwACEIAABCAAAQhAAAJDRKAR0SiWRHFJ1UvcT2fvvou7485V7qktW4qPxeool4hK3FOHqMWQVQhAAAIQgAAEIAABCEBgpAg0IhqV4NQpU9zeixe4hfPnFR9t7AjEW351W2Fd9C9E40i1OQoLAQhAAAIQgAAEns7xNAAAIABJREFUIAABCAwRgcZEowjB5z13Xzfz/7co+kxWrr5nnNUR0ThELYasQgACEIAABCAAAQhAAAIjRaB20WitizGavtUR0ThSbY7CQgACEIAABCAAAQhAAAJDRKBW0XjHnSuj1sUYE7E6PtTZ/3jQAfsPETayCgEIQAACEIAABCAAAQhAYDQI1CYa5fUa/jsYq+Dr5d4q6RAWAhCAAAQgAAEIQAACEIAABKoRqE00VkuW0BCAAAQgAAEIQAACEIAABCAwDAQQjcNQS+QRAhCAAAQgAAEIQAACEIDAgAggGgcEnmQhAAEIQAACEIAABCAAAQgMAwFE4zDUEnmEAAQgAAEIQAACEIAABCAwIAKIxgGBJ1kIQAACEIAABCAAAQhAAALDQADROAy1RB4hAAEIQAACEIAABCAAAQgMiACicUDgSRYCEIAABCAAAQhAAAIQgMAwEEA0DkMtkUcIQAACEIAABCAAAQhAAAIDIoBoHBB4koUABCAAAQhAAAIQgAAEIDAMBBCNw1BL5BECEIAABCAAAQhAAAIQgMCACAyFaFy/6VG344ztB4SIZCEAAQhAAAIQgAAEIAABCIwugdaLxm/e+GO3av0a94EjjxvdWqLkEIAABCAAAQhAAAIQgAAEBkSg1aJRBOP7/v1v3J+/9M2IxgE1EJKFAAQgAAEIQAACEIAABEabQGtFowpGqR5E42g3UkoPAQhAAAIQgAAEIAABCAyOQCtFoy8YEY2DaxykDAEIQAACEIAABCAAAQhAoHWi0QpGRCONFAIQgAAEIAABCEAAAhCAwOAItEo0hgQjonFwjYOUIQABCEAAAhCAAAQgAAEItEY0xgQjopFGCgEIQAACEIAABCAAAQhAYHAEWiEaywQjonFwjYOUIQABCEAAAhCAAAQgAAEIDFw0pgTjKInG5cuXuwMPOtidddbn3Uknntjq1nnOuee6pUvf7264/jq3ZMmSVuZV8zgMPFsJkExBAAIQgAAEIAABCECgQ6CSaLx5zXJ3wJz6BEKOYJRaOu0Vf+ze8aLXT/gKQzTWW8V1iMZ99n2OW7NmzVjGTj75ve6TZ5xRb0aJDQIQgAAEIAABCEAAAi0mUEk0fu7yC93q9Wvd3/yvpT0XKVcw/uHzj3Zn15BezxnuQwSIxj5ArpDEDrN2dMccc4y74PzzirsuvfRS94Zj3jjuswrRERQCEIAABCAAAQhAAAJDSaCyaPzrK77h3tQRcr0IRwRjuK0gGtv1DIml0roJf/RjH3Nnn/2FVrvltosiuYEABCAAAQhAAAIQGHYCXYlGKXS3wnEYBaNamPzKtm6Kvpg48aST3DXXXDsW/JEN67dqJyoQ/S9kf2CVPY3WdfLQQw9xl/3kJ+PSOurlL3erVq12t9/2ayeWM71CYWONWd08/XuPO+644J7GULlCLp1qxfut3zqyiEev71z8bXf00Uc7yXeKoV8eud+WSevN39PYK48qezlt/nyrpeTXcpXPtPzKwy/Dz39+ubv44ou3aldl9ar341Y77F01+YcABCAAAQhAAAKDI9C1aOxGOA6jYJRyitA495xzxg58Ce2VU9FoJ/4i7OQS0WaFgD+R94Vp6uCWmJtkKC1ffKl4VWFnRUyoGWq5fDHjl9U/CEc/9/MfS0uFjp8HzeucOXPcsce+aWzvYKhcktaiRYvGLIGhdGKiUcVoNzxyRKOG8etX8veJ004fc3XVsvr8Qu0q1i6En3CS/ZZaNyEGobwMrrshZQhAAAIQgAAEIACBYSTQk2isIhyHVTDGKlWEzIIF88cseyqYrEVHJ/2+6LL3ahoh0RVKP3a/igY/DypOrAVL0wpZQTXNUHz6nRU9ZWFVuPh5UNETEtPWYhi6P8Tl+BPeVljitExlorEbHpJmjL2fHylbmWWvrDyxMliBH2tv9v5h7JTIMwQgAAEIQAACEIBAuwj0LBpzhONEE4xSZt/NUf6P7XWz+xRDQsaKtDJLY9n9oXzZfGpaORazsv179v7UXj97qIz9X/IVE56pMlvRrda7lHuq/yjm8AhZB+3jnBuPugzb+22eY2WPCc9UPbSr+yE3EIAABCAAAQhAAALDQKAW0VgmHCeKYAzt1RP3QLWUpUSjWp7KREXOQTgpUWItTSnRaC1ufqOVuJYtWzbOtTYmOsvCyj3WQleXaLT7OiWtXkRjjIe606beS5nioCyOOOKIMVdVn7kVzojGYehGySMEIAABCEAAAhCY2ARqE40h4ThRBKMKBl9QVLU09lM0+kKvTaLRF0q9ika1+vluoFa4d2NptKJRRbq/QFDWJdQlGtXajGic2B0wpYMABCAAAQhAAALDQKBW0egLx4kiGGN7xLoVjaE9jtpQctwwy+6XeCRfcukpqr2IxrJ9j1agpfZI2n1+vYjGXNfMXkVjbN9g2YOd4hCqIz8+W7+IxmHoRskjBCAAAQhAAAIQmNgEKonGS359pXv7v30qSeSIhc93y1belAz3h533PZ79v5Ymww0yQMxyZA9yyXVPlbKEBJN8rgI1dXpq6iCc2CsmfI45h8uUiVh1C1V3zZyDcHzXzjpEo3UVtXsOexGNZeUpa48596UOwvEtxYjGQT79pA0BCEAAAhCAAAQgIAQqiUa5IdeCmMI7DIJRyhB65YT/aoiqexr9OH1xJ+lcdNE3i1copERj2Ss3/BNdJa1eLI16v7yiwhdoGqfkNfeVG/Y00V5EY+jdg6HXgPQiGnMshsKnLC/21SO5r9zwXWR7FY28pzHVE/E9BCAAAQhAAAIQgECKQGXRWIdwHBbBqPDUAqj/y6T+k5/6lPNPwKxiaZR47Ivd5TUT8i7IAw86OCkaNR/25fGh1zz0KholLVt+SUfekbh06fvHiUZfRPkNL3S4TC+iMcRP8iTX2Wd/oZaDcHwRGnqI9LUgsfcg+u9X1PvtYkAoDfsKlF5FI+9pTHWBfA8BCEAAAhCAAAQgkCLQlWjsRTgOm2BMAeR7CEAAAhCAAAQgAAEIQAACE5lA16KxG+GIYJzITYmyQQACEIAABCAAAQhAAAITkUBPorGKcEQwTsTmQ5kgAAEIQAACEIAABCAAgYlOoGfRmCMcEYwTvRlRPghAAAIQgAAEIAABCEBgohKoRTSWCUcE40RtOpQLAhCAAAQgAAEIQAACEBgFArWJxpBwRDCOQhOijBCAAAQgAAEIQAACEIDARCZQq2j0hSOCcSI3G8oGAQhAAAIQgAAEIAABCIwKgdpFo4BbtvImd8TC548KQ8oJAQhAAAIQgAAEIAABCEBgwhJoRDROWFoUDAIQgAAEIAABCEAAAhCAwIgRQDSOWIVTXAhAAAIQgAAEIAABCEAAAlUIIBqr0CIsBCAAAQhAAAIQgAAEIACBESOAaByxCqe4EIAABCAAAQhAAAIQgAAEqhBANFahRVgIQAACEIAABCAAAQhAAAIjRgDROGIVTnEhAAEIQAACEIAABCAAAQhUIYBorEKLsBCAAAQgAAEIQAACEIAABEaMAKJxxCqc4kIAAhCAAAQgAAEIQAACEKhCANFYhRZhIQABCEAAAhCAAAQgAAEIjBgBROOIVTjFhQAEIAABCEAAAhCAAAQgUIUAorEKLcJCAAIQgAAEIAABCEAAAhAYMQKIxhGrcIoLAQhAAAIQgAAEIAABCECgCgFEYxVahIUABCAAAQhAAAIQgAAEIDBiBBCNI1bhFBcCEIAABCAAAQhAAAIQgEAVAojGKrQICwEIQAACEIAABCAAAQhAYMQIIBpHrMIpLgQgAAEIQAACEIAABCAAgSoEEI1VaBEWAhCAAAQgAAEIQAACEIDAiBFANI5YhVNcCEAAAhCAAAQgAAEIQAACVQggGqvQIiwEIAABCEAAAhCAAAQgAIERI4BoHLEKp7gQgAAEIAABCEAAAhCAAASqEEA0VqHVCfvUU0+5p59+uvh55plnKt5NcAhAAAIQgAAEIAABCEAAAvUQmDRpkps8eXLxM3Xq1HoiDcSCaMxEKwJx8+bNCMVMXgSDAAQgAAEIQAACEIAABPpHQATk9OnTnfyu+0I0ZhAVwbhp06aMkASBAAQgAAEIQAACEIAABCAwGAJNCUdEY6I+sTAOpsGTKgQgAAEIQAACEIAABCBQnYAIxxkzZlS/seQORGMC55YtW9wTTzxRK3QigwAEIAABCEAAAhCAAAQg0BSBadOmuSlTptQWPaIxgVL2McqhN1wQgAAEIAABCEAAAhCAAASGgYAIRhGOdV2IxgTJjRs31sWaeCAAAQhAAAIQgAAEIAABCPSFwMyZM2tLB9GIaKytMRERBCAAAQhAAAIQgAAEINAOAkMjGjdu2uzuvW+t2/DoY8X7DeXdIbO2366zMXO6mzd3djtoIhqHoh7IJAQgAAEIQAACEIAABCCQT6D1onHdwxvcHStWOvkdu0Q47tkRjksWLcgv+QBC4p46AOgkCQEIQAACEIAABCAAAQj0RKDVovGOFavc8s6Pf83ovGRyZkckPtmxNj762OPjvtuhY3k88ID9i+/beCEa21gr5AkCEIAABCAAAQhAAAIQKCPQWtF48623ddxR7y/yPrVzYs/CBfMKN1QrCO/puKzec+9at279s5bIqVOnuMMOPaiVwhHRyMMIAQhAAAIQgAAEIAABCAwbgVaKxpWr73H/ffuKguX2223rDnr+c5Mi0LdKisXxsEMPbF1dIBpbVyVkCAIQgAAEIAABCEAAAhBIEGidaHzqqS3u8quu6Rx2s8WJK+rhLzqosB7qJZbFRzqH4ey3z+KtiuYLR9nfuHfL9jgiGnkeIQABCEAAAhCAAAQgAIFhI9A60egLv0MPOsDtvNOscUzl+3Xr1rtDDz4gyPqa624uXFVFaB710pe0qj4Qja2qDjIDAQhAAAIQgAAEIAABCGQQaJ1ovPLq64sDbsQtVayM9kqJRrFE3nLr7cVtcijO7N12ycDQnyCIxv5wJhUIQAACEIAABCAAAQhAoD4CrRKN4pJ62RW/KEoXcy9NiUa590c/XVYaR334qsWEaKzGi9AQgAAEIAABCEAAAhCAwOAJtEo0yrsYr7n+5oJKyDVVPs8RjWqt3L1jZTyoY21sy4VobEtNkA8IQAACEIAABCAAAQhAIJfAwEVj8cqMzo9cYmmUQ27kkhNQ9QAc+VsPvhHReP8DD5Wejqr7GnfecVZ072MuoDrDIRrrpElcEIAABCAAAQhAAAIQgEA/CAxcNEoh/Xcy2kLL3sYXHfz8MQG5tiMYb7j51kJUPm//fYrf9rr8ymvdps2b3R5zd3cH7L9vPzhmpYFozMJEIAhAAAIQgAAEIAABCECgRQRaIRpjwtEKRuUm1sibf3VbcWCOvFZD9j/qtXHTZnfFVdcW/+63zyK3cP681uDup2j82VufFdMv+9qzltvQ9eD1P3A3//Ubx77afvHB7pDTr2gNr24y8hff+E939iU3uZNf+3z3l29+cTKKJe/9hjv28L2zwmpkl17zVfe173/Evfol73JHHXK8O+XvjnCH7v+77k9//6vJ9HoJ8LZPzhl3+3kfXdNLdI3de/LfPN+tf3Stk/x98V/f7q659d/dme9e5ubusndjaTYd8X0P3VHU86I9DnSfOPGHTsoo19nvu2ks6U+c+yq3247zG28HTZZV23ZZ26orTJPlkLhvuP3H7qyLjhurs6bTa2P82m6XHnuhO3CfV7Qxi8k8aT32ow9RXpqpWL/e7z6uH+Padsef68464Qj3jqOfm6yTsgCDGh9jedIxSJ6BBx5eWYzdb33Np93Rh749u5zC/6Ir73DLv/Dm7HvKAv7oxtXuDZ/7gXvh4t3c5ae9vnKcR378u27hbtu7C//s6Mr3Vr1hItZnVQYa/rzzz3cf+tCH3do1942LQufSqTn0HV8/xa2+5G/H7p3/2j9ze7/lzG6zM5D7WiMapfS+xTEmGH1K+nqOhfP3GOe+urzjwirXSw87xM2cMX0gYEOJtkk0brzvdvefHzzQDWOjLavQfgyuOomRged5S17WF9Eok5Sdd9ijECxtv0Q8rXvk3kJQTRTRKMxFtOskshfRKEweWL+6tC5zwjTRDqTu9lt4uHvzK0+LRp8TJkdYNpF/P866ROM3fvRx94NffLlYJCrj0nR5uolf8v7fK68cin4jVr5c0Vi3QC5bBOp3H1fHuHbc317qVj7waFSk1CUac8ZHDePXeWhhQ8W5hNtx+9njFun03lQYfX5l0eGW5T8bKdH4D5f+yi09f5l77IITu+k+inty6lOehxX33jAujVB96XxAA4YWglJh6qjPbmG85rWvdYcffrj7+KmnjosiRzTe8+OvuNvOf7874M+/7XY96NXdZmHg97VKNAoNEY6PPPLYOJfUMkpidZw5Y0bhvip/y0E6sjeybfsZpQx1i0ZpwPPnL3Dn/OM/VG5I2sjLLJGVIx3CG7qxNPqdqKxWiphoekIpaQyLtcCfUGkH31araJUm64tGKaNcvojPtTTmCMKcMFXynhM2Z3KeE0bSaoNozClzWRgVIfJsD6tolDZb1arSK7e6789tc4MSjW3s40Lj2iBEY2h8DNWT9he+iPD7W2lToYW6nDC+yFjz0J2F90HVsbRuS2Ovz0iupbFu0Rib7+SMff68QMofWlDOCZNTnzFxV8Y9NZ++7LLL3JuOfbP7xVVXusWLF1euQrEyPnzrFUPhzadltRZVKXTrRKNkSkSfHoKTWzNyjwhGPUgndvpqbnxNhKtTNB7w/Be4tWvXbmUmz823rnogGqu7p9pBr2nRWPdkKLeNdBvOFzxtnFB1Wy6ZtBz2vDcW1qaJKBql3uQqc7POCTNRRKPU90eO/07hVt30M95tmyy7Tybi37virKB1pon0moqzjaKx7X3cIEVjanwM1af9LLTopGFU8OWEsX2RjSO3zY6yaEzVpzBMicbYHMbvV3PC5NbnnXfe6V5y2OHuhS882H3/kkuS1Zwznz7pj99RxNONkUbuu+ULb3GbHlg5FKJR8ivl/d73vue+edE33FFHHTXGsJWiMVnDJoAcjnNLx0IpwlGu2Dseq8Zbd/g6RGPqYbjyT5e4J9Y/u9dt2o5z3OFfXD6uGP73tnxqNvetkH74fU/4vJv3ineO3aYurvqBTU/2Vco9YpKX68WfvaFwidW/Z87dp/i7jr2VuqKmeYntzVA3H7/sufsfc9uDCKUH168qXBDFZUMsFfK/7O1T90ZdZbMWOPn8ttVXj3PtDKXrWzbVCnn59V8v0pArtBfHd+ORMP6qrnT6Rx54bOG6I5cMzF/9P0uLvYnWUtGvvZW678Mv/3c+8Gr3yhfMLz7S78X1RiZJax5+vPg8VPfieuVfdezdsfWiA6d8rvWgeyDls5ALj8ahjHPCyD1a57JqrlfM2u3vvyprwznW7LIwtl1IWn77tvvFbBtUq5i2QWmfso/UhrPxWDeonH1p6rYprrhiRdQrZhGvQzRaPva5sm5Z/jOc06eE2mPI1Ti37dj82PyG6lPyYPueXvsLf6Lvt3cVDyFXR2Xht43c9qX3pibCZc9S6rsyq59YkY7cf49in30d45rE98s7Hwhmye8H1T31zO9eP9aX1j02aiZsn2QthqHFKe0btZ/LCZOqh9zvVTSe8vqDCndPvazbpx2z7J7FO9ZscC/44LfG7n/DixYF9yVK+/jO1Su2yt6Nn/0Dt/ecWU4tjRJAw/lpheY5GlkszVwWoXCpZyW0gKULyjpG5oSpmsfZc+a62bNnu5tvujF4a2o+7d8kcVkBZefAu73o9e557/362G32e5sJNdrUMeeWOH59zp+42Uf8YbFvUvZX7vFbby3m33Zunru38rTTT3df+tLfuc985q/c2044ocj+UIhGeSXHLbfe7ubNnV2clqonpq57eL0TwajWRSlQ205M9RtJr6JRTcave93rkqsd0ijWLvuXrUSj5qfM0uiLOBWKofAiKH1RKv/Pes5hYw+NfxiP/7eEk4YtG4A1Ld/PW76ftsu8rldkYnsztCP1O3q7IisdQ+gq63hseH8PlHynrm2zd96rEGU6MbWuY7GVtpSlUSdlOlkLhZdO/V3H/P3YYTS+OJU86oAsE7GLf/aZQuzK3yJE/f13dvIcE79VO3cbXgdXXyTaMP4ArZMf646j8ZQNlHXUuc/Q1kNIHPS6p1HrXOPWOg+5ImrYMhdhabNX3fLtUqtUWRjbLqwVIJQ/381IrXnCUfLp59m38Mr38r9/AJH8v+/8FwUtpLHJjJ2waLyxeHoRjVr2ssOy7PMo+fEn0rl9ij4jZda5nLYj6Ul/pYeFxNwH/YWKUD3U0V/4olAXukK8cvvJVPtShqmJcC99nPRTIs5CB6vImCTixB5I08u4JnnNcU+VcLYvVaGi849QuXPmJLFxUj63/Za/b1rrX9qa7M/Vw8ZywvRSR/69OneYs9O2Y3Um9XT4vrPHRJ+OR/6YJWH23Hnb4D7SmIupnafomKb1IPnShQAd13Scs4uhKffUusc+n5k/3ti91dIviFiURS0dd3LCdFOfakW0bqVV5tMinr71rX+Nik/J17WnvtTN2G3hONHo57fM0ljHnNvfV7nojR8rDrkU4fgb7z6vMNboHFsFowrW1PkmeviPPuOtF43rHt5QuJ2mrqlTprj99l1cCMu2Xr2IRlX873nPu7fahBsqbx2i0bcsasMq28RrHwq1NIp1Uv7WQ3d80Sj3yOWvzvS63zI2uIY+72ZPY6p9+ZNr3z3TTqTtvrXYpDxnMmQnpHaibfNs8+JPkHzXSz+PMXe3HAtVipn9Pkfs6SDtD5RWbKYmSlXzVRY+NMkM1UPOfsVUmNBetV4muZLP1710aemJgrEwoXabauvK0efjl8kXG6m2XMaqTDRakVwWTy+iMVWXsefbZ5jbpyjXMjfibtqOzWNIlNp2UFd/EUor5JqY00+qOMlpX708T6l+xfeS0L9VFMg45QsEjavXcS3VF9r4cxbuUuWMfa+LlCIsQgdWqSAUkSgLmCpA7DgloqMsTLf5s/eF3FMtT/lfLv9EU7+ebZwx0Rj63NZNKExoLpMSjXXxsfH49SvfWc8O9RKw/ZrUpXp/hMJ0m1/rall1Pi3C8wMf+PMxa1soH3WIxl7m3DpvFo++x++7oxCNMl/fdu7e40SjzL/3esOHx3kNpvZb+hbZn/30p91Ww1b3TXqmc9UWmxeRCMe7Vt/j7u9YFe0lp6zO3n1Xt1fn1RpV90E2kdeyOHsRjRJvlZWROkSjND51IY09JI/eed24r/wjh61o1AfCF43yoNk4NMJU+jHWocE1NgD2QzTq5DRmfdHV89ikvMpkKMZExav9PjYY62puaO9OKI2mDtvw3UqttdBOtkL5yj0woI6+YFhFo07ayiyRZWFCoqhsUcJn7TOzolHblBWNIRde3w04Fr//eUjoNiUaU+IjZhX0P7/s2gvGrcjH+hQtY8qNOGTZ8V8XE3P59A8QsULaWhpjfY7ksUp/0ZRojLUvZZiqt176DB2PRBye+5Nb3eW33lu4pJ748v0L98XQaZe9jmttEY0hq7Xda6jPeNliaE6YXurIvzdHNJa5AYcWAXq1NNpXbrRJNFrPEu0L7FaC0PyiLEw39SkH3Pzyl9dtdYBN7ny67FAYPz91iMbUnDc0X9Y5d0g0Snxy+ZZG9fqzLEPb2UK6o/WWRlswcUXVvYviptp2oejnv1fRKHHl+mA3LRrFQvjA1d8d9x7IlKUxJhrLTPrddBJlK7LW3bEp91Tf5aJsgqcTkyMPekuxh9B3u9Oy9yoadZD2J3wpS2NMNKZcGLupr9x7pF594ZgjGlMTJUm7Thcd+57GfloaUxa5GOecyXFZGOtWJOnUYWkMTepD7tCjaGks61NSrsYhS6PfdvxTY/UVI6E+yO5VtMI9lY/c534iikYpu4w9XznpSHf6v13rznv3Ue6Vn/r34v93nnN50G21l3FN0kv1hSlLY13uqaF2ERMZoT3RvgVKtn6UhcltY6lwuaKxyrsTU6LRz5Odt9Rlaaxr7LP87CJA7AAiv9/JCZOqJ/t9HXsaU6eqappNi8bUnLuKaLTnk8S4Du2exqoNpa3h6xCNWrbUaU/9EI0bfn3V2J7G0HtqciyNTby7Jja4Skcrl75MVw9PqXuzv3W5KJvgaUcpq2sx98C6RKM9zlxYVLE0hiaT/XzW7ECZIxo1TN11HCp3rqXR7uULxZUKYyf+ZeHLDsLROi17cXoqTOxUQ7992dfUyHe+67b8n2NptHvZQq5tPs9+uafaQzr8PPh7smLveZT79d2meq9vyavSp6RcjVNtJ7T/1N/zfOA+rygWBVIns1bpL3zLprV454pGbUOxvaM57Sun7dTV5/mHmYhLo/4fe5dir+Oa7pULWb2kTCnRWFe5dUHJtzaH+i97OI6/bcJ/Rvz6DoWpI985olFdQcv24ft5iYnG2J7W1L0hS2NoC0cdPFJx6J5F+0oqv4+z/b/EafvBUJhU2vJ9rnFF44rNpzWenNds9EM0ls25c0VjSHyGmE7o01NzGlEbwtQpGqU8dgWk7KQmuxcx5yCclKncN3OLaVsOt/HfQ5MjGqUcmhe/jnw315y6i502Zk8v890dpXOXVV49qS4nnZwwVSZ42lH6+zZsGr2KRj8NjVsGbP9QHrtXJGRplHtjJybW/R5Ge2qgpN2Ne6rcFzqFtcnTU/1XVsSsf9bFMuSuVxbGWnmknGUnf8a+D1kJbfvLDaOnkIrF6ZiXfah4H5qfp5DLo/997qTeL7sstshrUPwX2OukNPSsano57qn29FCNL/TSahXmsRNsQ2UPuYj6L8j248rtU3JcjXPajnUt1f7C91awpzErn9SJuaG26NdZL6LRcg6dnqrvmgtZsnPaTs4YkBNGxywVGdrn+QtcdY9r1oUydHqqHsDT5J7GEOdQ/+W31ZgLek6YnPooC5MjGuX+0Ljlz0F69koyAAAgAElEQVRC32u66pIcC+O3i1xLo8RtT1Jt4vRU2xfE+kE7poXqPCdMqj7rek+jWNquvPLK6Gs7QnNXzZt9nV3OQTi9zLlzRaPkT4Wjz1HPHJHPhu49jakGMazf1y0ah5UD+R5PoFu3QjiOLoGQi2E3NHLiyQnTTdrcUz+BHFfjOuozdHqplKbsJNv6S0uMEJhYBFKnoMasxBOLQntKI+6t/usm2pOzweVk6PY0Dg5V7ykjGntnONFiaOqVFRONE+UZT6COiX+O609OGOqmHQRyX1xeR9sJudNWcUdtBzFyAYF2EYi5k6rFOXRAUrtKMHFyo/v51q65b+IUqoaSIBprgJgbBaIxl9TED+e7YNTt2jnx6VHCOib+UBxNAnW1nZB7apVTUUeTPqWGQDmBkHuq/35I+EFgkAQQjX2kj2jsI2ySggAEIAABCEAAAhCAAARqIYBorAVjXiSIxjxOhIIABCAAAQhAAAIQgAAE2kMA0djHukA09hE2SUEAAhCAAAQgAAEIQAACtRBANNaCMS8SRGMeJ0JBAAIQgAAEIAABCEAAAu0hgGjsY10gGvsIm6QgAAEIQAACEIAABCAAgVoIIBprwZgXCaIxjxOhIAABCEAAAhCAAAQgAIH2EEA09rEuEI19hE1SEIAABCAAAQhAAAIQgEAtBBCNtWDMiwTRmMeJUBCAAAQgAAEIQAACEIBAewggGvtYF4jGPsImKQhAAAIQgAAEIAABCECgFgKIxlow5kWCaMzjRCgIQAACEIAABCAAAQhAoD0EEI19rAtEYx9hkxQEIAABCEAAAhCAAAQgUAsBRGMtGPMi2bx5s3v66afzAhMKAhCAAAQgAAEIQAACEIDAgAlMnjzZTZ8+vbZcTHqmc9UW2wSMaMuWLe6JJ56YgCWjSBCAAAQgAAEIQAACEIDARCQwbdo0N2XKlNqKhmjMQLlp0yaHts4ARRAIQAACEIAABCAAAQhAYKAEJk2a5GbMmFFrHhCNGThFMIqbKsIxAxZBIAABCEAAAhCAAAQgAIGBEBDBKG6p8rvOC9GYSRPhmAmKYBCAAAQgAAEIQAACEIBA3wk0JRilIIjGitX51FNPFQfjyA+Wx4rwCA4BCEAAAhCAAAQgAAEI1EZAhKIceiM/U6dOrS1eGxGisTG0RAwBCEAAAhCAAAQgAAEIQGD4CSAah78OKQEEIAABCEAAAhCAAAQgAIHGCCAaG0NLxBCAAAQgAAEIQAACEIAABIafAKJx+OuQEkAAAhCAAAQgAAEIQAACEGiMAKKxMbREDAEIQAACEIAABCAAAQhAYPgJIBqHvw4pAQQgAAEIQAACEIAABCAAgcYIIBobQ0vEEIAABCAAAQhAAAIQgAAEhp8AonH465ASQAACEIAABCAAAQhAAAIQaIwAorExtEQMAQhAAAIQgAAEIAABCEBg+AkgGoe/DikBBCAAAQhAAAIQgAAEIACBxgggGhtDS8QQgAAEIAABCEAAAhCAAASGnwCicfjrkBJAAAIQgAAEIAABCEAAAhBojACisTG0RAwBCEAAAhCAAAQgAAEIQGD4CSAah78OKQEEIAABCEAAAhCAAAQgAIHGCCAaG0NLxBCAAAQgAAEIQAACEIAABIafAKJx+OuQEkAAAhCAAAQgAAEIQAACEGiMAKKxMbREDAEIQAACEIAABCAAAQhAYPgJIBqHvw4pAQQgAAEIQAACEIAABCAAgcYIIBobQ0vEEIAABCAAAQhAAAIQgAAEhp8AonH465ASQAACEIAABCAAAQhAAAIQaIwAorExtEQMAQhAAAIQgAAEIAABCEBg+AkgGoe/DikBBCAAAQhAAAIQgAAEIACBxgggGhtDS8QQgAAEIAABCEAAAhCAAASGnwCicfjrkBJAAAIQgAAEIAABCEAAAhBojACisTG0RAwBCEAAAhCAAAQgAAEIQGD4CSAah78OKQEEIAABCEAAAhCAAAQgAIHGCCAaG0NLxBCAAAQgAAEIQAACEIAABIafAKJx+OuQEkAAAhCAAAQgAAEIQAACEGiMAKKxMbREDAEIQAACEIAABCAAAQhAYPgJIBqHvw4pAQQgAAEIQAACEIAABCAAgcYIIBobQ0vEEIAABCAAAQhAAAIQgAAEhp8AorEFdfjRj33MnX32F9wN11/nlixZ0vccXXrppe4Nx7zRnXXW591JJ55Ymv7y5cvdgQcdnBU2FFGVtPoOosYEQ3W6w6wd3THHHOMuOP+8aEpV+Jxz7rlu6dL3d10XNRa3tVEpT8ngoYce4i77yU9am9eyjOW0naEs2IhnOrfv137X7z9y720a8T77PqdI4vbbfj2WlG2vveY1NO6E0q2rrFX64appDrrfbpJbVRZtDE9f28ZaycvTUS9/uVu1avW4vijvzq1D8ZyEySEaM1qUNES5/Amndvx1CL1eB9SMIpQGqTJAVhGN8tAdccQR40RSlbR6Ldcg70c0DpL+s2lrWz355Pe6T55xxuAzlJGD4094m1u2bNlWg14/JjKpfqiMpzzra9asGVfC1AJJBo4JHyTFXAG0QTTGxjxEY7Vm2kbRGOt3qpVsYoTuR187MUi1rxRNi0aeE+cQjRntPiQacwf7jOhdnXHlpGfDVBFyVURjqPOtklY3ZWnLPf0QjW0pa1vzUefCTr/KGBv0+jGRSfVDIdGoz7MV5vL5+Rd8rdSq3i+mbU4nxbws773c2w2TKun1w9LYTRly7xmVcUp51DnZzmXc1nD96GvbWvZhz1fT7bjp+IeBP6Ixo5YQjf8DCdGY0WA6QRCNeZyaDIVorEY3JQpCojHUN1ZLdbRDp5gjGp8lUGXcqaNFIRrroDiccSAah7PeJNdNi7qm4x8G8ojGjFryJ0Y6eNnbUi5wOjnQ++bMmTPmguZPHE486SR3zTXXjkUfcn8N5cGmXzbI2olebIAMpSP5Se1pFBP+xRdfvBXZRzasd35aK1asKPZy6hXbUymduH9ZJv6D7IfN3cOmg8QJx7+12NsZqqPUxMUyrUM0Wj7W3S9Ub1VZqLDSMguz4447rtgrmeN6bevG5tHGL+l85+Jvu6OPPnqMs1+On//88nFtR9qMXFXr1eZL4pD2tXjRorH9uxdeeGHxrNl2Yl0tQ+1IOf/wB98vnge99Dm0z7sts304Qpx8VrE2GnMBlfz5/UjOfuWUgAmJxpALekaXWgQp6/dsfv2wytvv83L6RG0T2qY0n/K59MfHHvumoj8K1ZXWT5XvYjyF2YIF84vtDlX6/lzrnb+PV8rojzWpurHPjdTDy486alwbt209NJHKzWsoP7njTihdW3aJX/uxsrEnp2+1/ZD87/cNWpepNiL32TMEytqBba9yfy/9ts8t1e+E6ic2xvis9T4N+5Uv//3Y2OrzqTo+pMZETdf2v7Z+y/oTv+3m1qk/nuX07WVjoC1jauzQvj7UTnQu5n+XwzzmhqnPkJ+nVB0rj9j2htj8M5T31LhWpW1Kvmx8fjup+pz00u+m+uU2fY9ozKiNXi2NscaveyT9Ds5/GHXy6j/wGtafVIX2u/QqGkNuZ/5DkTMJLXNPFez+pE8Z+eUP5SE0EfMffGUVYhKrap00yvf2MAd/wlWFaa+iUdL194MqC79Ti4lGFQspFqEB0W+LZaJRBx47cf/EaaePuSRqvfjxhPbzxNqV1ovsldN2UaVeQ5ZGTUv4nnLKh8cd/BRiLG0itGdLyxZa/JHPVBTI/dq2c0R4mXuqnaSG6kAntv5kNtdq0o1orFI2+/xperYuQn2cH1aEun9gWG6fWNafyLNS1rbKLKqxyZC2kVBfrZ9V6ftzhFjomc5ZHQ+VQdqXXHo4Wqx91Ckaq4w7Nt2QsJf2+YmPn1q0F//Z76ZvlfIv6iw6KQ/bXnLbT+h5LGsHdlzqpd/WibI9LCSnjVghKP2y36eF+nuN15bBn7Dnjg85Y6Ifrz9vij07EqftT/ywuXUam1t0MwaG5kU5Y3FoTiZl8ePLzU83ojFUx5aLv2BmBb4V9nZBUsqSGte0veW0TZsXqWs7f8l9TrrtdzPkR+uCIBozqqRX0Wgf3NjkKbQvSFYk7YQ5ZNW0A2YVgRMaxEIPt+Q7NEErE2OxFdyQ9cZyilkx7OfaEdoVOc1raAXOz3PMAmEZVmHaq2gM8bEiqEw0pliUHWoSGlhsHafadJllxi6ixMSaMrTtPbQIE2qDZaIxxDfW5mNumSLO7WAeaktlrG2+U6LRtmXbN8UG+5wN/N2IRhXVMkjnWvbtZCHUn9n8xtpCGduYiBAvCF8k+pOtMv5lC2W2HjRfwmTBgoVjCym2TcbKFVrRT4nGWP+U49qZ01f2QzRWGXdsXZUJe2lzyrTbvjXUx9i+KKf9lInGXuYAOf12XaJR+r6QBSx3bO5mfMipt9iWhNznThfdYhYnO28o6xPqKmNqrA3l2W/vOkZVyU9V0RhrD7G5rj+O6TPvCzTbZ+WOa7G5oI5TulgU6l9zxuLQ891Lv5shP1oXBNGYUSW9isbU0b2xwdhOiFKTutAKWahTs+Wxg1iZZSJnAqJIyyyNoXz5E4ayh9p2ILGBOndPW9keBn8Q7KdoDPGx6afcU/2mbVmUsUlxS30fm5hofnLbW2yQSz0Hmk6ZaLR8U9a40AQ1dLR3bNKbu0+mbNIZckW1k9bYBCOnzlJccwSasM8Vj2XpxSZ5VqSn8hziroxWrlzVOZ59ZfBU7JALXdnikxVdkv8zz/yrwpotrt56r9SXn2Zu3x+aGNp7y4Rfyo045AEQm/CVbQ+I9f2pevInuTl9X6iPSVm9q4xrqf7ALnyUTcyVrbaBMtFo2do+v5d+W/Mc6mO6sTT6Xjkad+7YXJZe7vggaVo+sYUDG66sPdo+IzQO2ToNTSPrKmPq2ZW0Qwuptq+pkp+qojH3NRd2Xqf1Iv2tbyCxfHPHtbIy+mXK8VjKfU566Xcz5EfrgiAaM6qkV9Hou9+FJlS5E4eUtcCfsFYROLaTLhuY+iUaNQ+x6vHdAlOiMbUnoGxC79d9Faa9WhrL9nfqanQ3olFZlLWllMBItUO7qmfr0IqP2AStn6Ixp8xqoSoTxYMUjcq1rEsrc3NKTexzLKb+c5tyxy1Lz04uYmFTbTFUH6k82v5A+gDfWhjia/Mr+Vq4cIF7+x/9UbEfUJ87yY/sndRXwOT2/TmiMbaXXPObegWKrtJL+FCf2bSlseq4E+r3/T2ZVuSnhKA/MS0LG3q9jN/WU+2nG9GofX4v/XY/RKOdQMfG5jIhlDs++AsUyidUN/7zat3CQ31UbKHJWh9TfUJdZYyNKX65Qm1KyuHPI6rkpynRqP2Y1pc883K2gGzV8vtGX/BWGdfKRKNtm/q/5Cnk7ZIrGnvtdzMkSKuCIBozqqNX0WhXJeX/nJc0284zZ4Kk5vcqAqfNojE18SybwJe5Y/jVjmgc/xDkCKjQuwT9WHIGKB3QhkU0+mUumwz5+xn9iU1q0l7WlmNt1F9hrrKgE+r2UvVeJf6Ud4Wk3y/RGHtXrOQh1L+EVqRTC08Slz/pkfqyQtEKyDIGIYGeck9NjQ8ZQ10RxBdePp9hEI2Sf3+R1l9c7FU0qqj2J5ghJqn2g2h89lmxz6W2zxyPGjt++6IxFq9/TxVLo9yXqtPQs1VXGXNEo/Y/WvaQJbRKfpoUjb4glGfqN3/zN4tFNP9zvy+tMu5UEY1aZ/5iWWqrQij+uvrd3P550OEQjRk1UJdo1KSsG03uanNq34m/UtqLaCxzDU0NvCkxllrB1Ql3lXSatDR26/LbhKUxx20nl0VZW0pZnFLtUMWP/NbDnvx2YdtXG0RjWZsPlaeNolEn/DniNNTtpRikvs+dlGm4snYWc72MuafGXEdDbk06Ibnoom+OO7BI8+WX87Kf/tRJuJArnmWok56P/u//XbhaWZdUPZU4dLBZzC3RFygp0Zh6bjOGurEgIfetpkVj1XEn5VJpXW7LxpRU31rF6yHVfnoRjb302/4kOfeAj1CbKeOe68YfcyP1Rb8uulSpt1SbyOl7yrbVSJ5y+4S6ypgrGv22EfKOqJKfJkWjL2j9xTV/0dL3zqgyrlVpm7Zt24XOXEtjnf1ulT56UGERjRnkQw9balW+LNpc1yu72pyzp6jMTUbypHGkTqFKWTZyTk8NrWzlikbtKHL2R+UKpVidSFlDx9KHJgohLiGmvYrGnP1rvbinpurBnj7ms6viphiy0NgBqQ2iUcoXG5xDCzBNicbYYJ16HlWI6Kpp6vCnsmchJjpDE1Z5RvQ0yZBozNkHmNrfLPHmLqz5eQj10b5lNvUMyKq97D/UlfDUUKHpCT+5Ljj/vOK3pmM/r1qulGjUdFKvf0qVwxcX8rcu/MTGvJibaI43jc1Lqp2nLAGh+Kw7fzd9a1nZQwdi6dgXaj+9iMZUmy3rt/16taKxirVE+5ichY5uxubY+JBTb9pPpDwDqloadXyo0ieUeTrljoFl45Jt6/44JfuoLYMq+SnbDiDbNEKv3MhZWPPnoFKf1mNJn3/7ee64VqVtWn45rtWh56Tufje3fx5UOERjBvmQaKxqCfMtLrbhVZkQadjQMe6xUyZDr/FIicZQOvKZrLrLwJQjGkMDRmrQ8137/EmYTsCkuoSfvFNR343UzcDkV7u6Y/lMYhulddKZYtqraJT8+fVpV839yWjORCo0YIQ6WN9Vw77fLOSWZdth7is3Qq9WsW2qyup+6DEOTfRyVq1DR39bl9OmRGOsL0hNpu3rVewiiLCQ93/pXrpYt6fMbF8S6g90QiO//QlD7iDq7ynx24P1xCgTV/53qT4xtsgik34rbv285bjIK0/tS2xbjn1epe9PiUbtG2VSZ9MXEVM2qZN8HPXbvz3Wp4YWSmLPTp2iscq4E7Jq+eOsff41/930raE2XdZGyr7rRTRK3nP77dgzHqqvKtYSf4ywp2DaviBl+bGCO9TnV6k37ZOseJb2LO/Atq85y93T6Pcz8ndunxCqq7Iy5iyglU1ZNb3Yu1lz8xNaCPf3gvciGv02bMdazZ/9XPOTGtdy26a0KbEY++OhNXJUeU50zCrrd3PHxQxJMtAgiMYM/DGzvj8wlK3u+ntEJDlrPasycfDFgp/12Mqa3aQr4T75qU8Vt2oHmrL0aDqS73PPOac42CFHNMp99mCCKqIxVlbLrw7RKJ2UHFwhL/fWK1anOUx7FY3CV18+r/kpeyGwWnuqsrBlkTLLu8hkpdKeCBg7Dt5vh7Zd+M+Ihss9oKLfotFO/MvaQVOi0R9Q5W+t81zRGCuDfJ5rfYwdPBC7P3UwSKyL9Z8R6VP8KybiYpM1f2IZel5CkyAJF5uMxMKnhovYinhsBbxK358jGiV/oWcuZX0M3VN2GI6ko3HWKRolXn9yKv/Hxp2QaNR31Ib6Gn/s6aZvtfmS8sslY0bM6hbylOlVNEqaOf12rK3G+i5/wl1mqdP7v/Llvy/csPUKlbVMNMbaatn4kKo3zYtfllB/0I2lsds+oZcxUPKe657qPztlz3tOfvy+0a9fdb3vVTTGLMKxxUnNg51Ly+d+e8ltm6HxwjKr+pyk+t3YgmxqTGnb94jGttUI+ek7gbKDcPqemRYkaN00WpAlsjABCVSxbvS7+FUOX+h33kivOwJVvIO6S+F/7hpE++lXv50Sgr2ys/f3s97K8j6IOq3KspdtU1XTIvxoEkA0jma9U2qPAKJxfHOQSUHqOHEaEAR6JdBm0ejvfey1nNzfDgL9FB+DaD/96rdHVTQOok6rPjlVrJJV4yY8BIQAopF2MPIERlU0SrmtK1DMvW7kGwkAaifQVtHYT3FRO1QijBLoV702nc6g++1RFI1N12kdj21b+9M6ykYc7SGAaGxPXZCTAREYVdFo98UI/pzTagdUTSQ7wQi0bZLj71nL3bM9wapkQhen6Yl/v9rPoPvtURKN/arTXh48vz3kHtDTS3rcO9oEEI2jXf+UHgIQgAAEIAABCEAAAhCAQCkBRCMNBAIQgAAEIAABCEAAAhCAAASiBBCNNA4IQAACEIAABCAAAQhAAAIQQDTSBiAAAQhAAAIQgAAEIAABCECgOgEsjdWZcQcEIAABCEAAAhCAAAQgAIGRIYBoHJmqpqAQgAAEIAABCEAAAhCAAASqE0A0VmfGHRCAAAQgAAEIQAACEIAABEaGAKJxZKqagkIAAhCAAAQgAAEIQAACEKhOANFYnRl3QAACEIAABCAAAQhAAAIQGBkCiMaRqWoKCgEIQAACEIAABCAAAQhAoDoBRGN1ZtwBAQhAAAIQgAAEIAABCEBgZAggGkemqikoBCAAAQhAAAIQgAAEIACB6gQQjdWZcQcEIAABCEAAAhCAAAQgAIGRIYBoHJmqpqAQgAAEIAABCEAAAhCAAASqE0A0VmfGHRCAAAQgAAEIQAACEIAABEaGAKJxZKqagkIAAhCAAAQgAAEIQAACEKhOANFYnRl3QAACEIAABCAAAQhAAAIQGBkCiMaRqWoKCgEIQAACEIAABCAAAQhAoDoBRGN1ZtwBAQhAAAIQgAAEIAABCEBgZAggGkemqikoBCAAAQhAAAIQgAAEIACB6gQQjdWZcQcEIAABCEAAAhCAAAQgAIGRIYBoHJmqpqAQgAAEIAABCEAAAhCAAASqE0A0VmfGHRCAAAQgAAEIQAACEIAABEaGAKJxZKqagkIAAhCAAAQgAAEIQAACEKhOANFYnRl3QAACEIAABCAAAQhAAAIQGBkCiMaRqWoKCgEIQAACEIAABCAAAQhAoDoBRGN1ZtwBAQhAAAIQ+P/Yew94y4oq7XvdvrFz5jZ0gO6mAUGStAKNIElQGQWMzDACIz2Gb+aFF79RGAUT4GD4QBgdDOAgioM6CsrIANKkllZyFuhuOgdu55tz36/WgXWsu7pq79r7hHvCc5Qf3HMq/ivsevZaVQUCIAACIAACIFA1BCAaq6apUVEQAAEQAAEQAAEQAAEQAAEQSE4AojE5M8QAARAAARAAARAAARAAARAAgaohANFYNU2NioIACIAACIAACIAACIAACIBAcgIQjcmZIQYIgAAIgAAIgAAIgAAIgAAIVA0BiMaqaeo3Knre+RfQHXfcQc89+wzNmzcvce1POvlkWr9+A61csTxxXEQoHoH9FxxAixYtolt/cktspknCxiZWIgGqtZ/y+F62bFnZjM/xEybS2Wefne2nl19xBV1//Q3D5ifun/zBnFMigwvFGFEC5TBfY8yOaBdB5kUmoJ9jvuxvuvlmuuSSz9J1111Liy+8MHEpXc/HxInkGAGiMQLgkiVL6KyzP0gLFx5FDz7wgDMkd5ao33Nsn7xHL6ZoLLcFLMOWQR0qqkv1AZ6kXEnC5r1DFihBiMbyeKkD0Rg+AJLOTeEpl0/Icnym5JtuOczX+RSN3OZz5symq668Mt8oRyS9cmi/EQETkGmpjn+XaHS1M0RjQCOXexBR9nfe8Rs65ZRThlVHfmtvay33agaXP8liPEnY4AIUOGDSNzmhb5gKXOw9kk/yYEoSttj1SJtfOfa9tHW145XqQ9VXtxDRmA8ulZBG0rmpEuqs61Ct49rmUInztauvrlq1ig4/4sjMTxdffFHFiMZSXTOUw3xRquPf1aaFaOdSeAbA0hgwUrjxm5ubh7lHyYRWSZNZAApKMmiThA3Juxhhkg7KQkwM+ahnkoVFkrD5KFsx0ijHvpcPLhCN+aBYmmkknZtKsxa5lapax3U1iUZbLEq9K2mdVaprhtxGZnFil+r4h2gsTvuXTS5iUrYnLu68Tz75FNlWRglnV0xbKKNcjLjjxU2O9sLhtNPfQy0tLZnsxEVWXGp9k61v4eGaqNlFk9/02f7X9qDl8srHFtUuDhzOZa3l71m0zJ49aw8XYNdAlLQlLalPFHNfmW23Ylf9OU1fe4ibr+7ESfuDbxDodowqC/OTfiCcP/Xpzzj3NCYJq8vmKpN249XtYe9Xk/Rk7Njpa2u9tP0JJxyf2QMgH2l3nYaO73u4hJRPh9EvjOJ+d7VpSJ1D+qmdtu6D3FfXrVsfvKfRHr+crmufhQ4j7WnPIy5rQOjCL8TSqNtS+iGXd82aNZk9kLp/2JxC57Y0D6SkbRbyjNDlCJ2b9NgO2TYRtb3CNS+75j099nwvLqTd7OeAtD+7H0o7ujx34p4phZovXX0ipA2T9lFf30syX4e0Ta7rBy5n0mcux0nCQ/o795O5c+dm1iBx6yKbn6t8+jkVMlZkbN937z1Zi6f9HNb5+NY3UrZCrxlkLJ1/3scz26rko59f/H3cuNPPK/vZEDVnuH7TzxDdFr5y220eN/59z1w+fyNt+/leprs8DO3nWFQ72+NA9jT6niFcJ9/6Sn+v5z9Xm6d5vrniwNIYSFImGX6gufySZZDZjekKly/RaHco6TDcUVg8yEPXlb9LNEp8e5DanVCLRhbL/JF8ZJLXi5TQt0IyyOzFgl0n+wAMvSDhdtG/64N+7AlQl1mLmqRv831vDUP7g6/7cfybb7ope1iRzxc+apLWdUsSVpdLi3X+ndviK1/+UraMrhcpmg+3609u/emwA3pc+1/kQWPXQdLnfn7OOR/Luiu54rv6Xkj5XH2R48me5rjfXe0ZWuck/dRVF5tP1KExLi8Jbl/+yIPM9aKM433lq1/LtJ2ME24Lfijbh2rJb/a8IXm6+mTcQTg+0Wgv4KQ/6rGfZG4LfBQMC5amzeKeEb5y+OYmqaNmG7KvzLfH3Sfw9GLEFT+paOQ0Qw/t8j1TCjFf+hai/PyLa0P7+Wk/V5OcKZBkvnZ5Q7nysoWO1CHJ+oGZhD5z7QPz0vJI6tFlr9NssSbPqSRjxTWf2vOe/aI7abtGvUyN61u++UH6AP9uz/+uviHfucad7nda6LiegZynXiO45l7XHCbPenv96FvvhK4puTy5tl9a0Sjt41obRolGXrvbbe9aQ7r4ubbQJeGU9M+Z43YAACAASURBVLkH0RhITDoxD3ZemLgsa643TXqA5Us0aquAdDBdBv222Hc6ocvS51r8+fJxvX0J7biuBQpzW79+Xcaaaw+kOFdK10MmSZnzIRpdAst+gHH/SbMPVrelb/J2PRiThPUtlvh734FQvn4dcniHi5frQec7mMoVX/e90PLFWfvjfg+cTvZ4wNoPOT2G9diK6l8ubrpMrrGqw8TVU9LQFoCoRZ6vndOKRpclTZfb58UQJWyj2lAv9kLnlnzMCb65yVfHkAW3axHD9ee8br/9F9nFp2/+EBGhF9CuE3x9QpTTCJ0PQ58pvnK55l6fkND9IEkb+uYqTjNubHGYJPN1krZx9fuoucfXt2w2vmeuSzSGjNm4tH3jM2ReSzJWXIt2aT/dZ0PGWpSYSNK3fPUX8aXHkpRNWwtd4873wsf+3jdnuF7ou0SpXsP5ys389ZojyfjPtf2KKRp5nevSD7oM+hngaltm5vs+dH0SFQ6iMQFF26XB57Kpk9MDLF+iUZunfQ8OPchCO52v4/kGbcjCPQq1a7F32WWX0jXXfCNrVbLdVvShRHba+g1PXJltlvkQjVETm2/CDemGOl2flVMWTPaEnSSsqyxxb1JdE3zo5OVi4iqv78Ec5/IhiyL9AHKVL846E/d7SDtymJAyS1p6zojqXyF7Gn1vcX35uerkGydx40e3q/7bFd9naXS509oP2agHZ74eqqFzSz7mhCgvEd8R7iGLLNdCmr+zrflR84cuV1JLo8vq4htHIfWRuDps1AvHuJeRMof4rpvS4zlqng/JK8l8naRtfOMzdP0QJVi0V4hLNMaNWZ1+EjEWxzXu2av7i6+v+YRnVDtErU+S9q3QNrDDuYSaa9z5XmjoZ5CLgR3X9YJIyqPnBx831zySy/iX/EPbr5ii0TevaAZ6/Ea9KIkbD6FrFR0OojEBOd/bw6jG0ZNeqYnGqPK4FlZxiyT7bUnSAS6LesmX35iJxZEtXFJW/SbN5e8e9QDTi2O7zHGLXt1dXBNekv4Q1f1ce5nEwh236A1dPLsEZtRDSX7TbWC/UHHF14sFl9+/fhOqH2q5iMbQ8tluVK634nG/R7VnXJ1Dx1ZU/woRjbJIETdz/YYzJI2oxWfUPZH6gV0I0ShWr6RzW4JHQTZoPtosdGHsYh5nyY+yQkkldLrSx+VlWtxco18YjpRozNd86esHSeb1ONHo8uyRfON4J5nbddvkSzQmfeam5RE6NuKYMdukY6WYojFJ30ojGvVL3aiXslHzoMwJPu8X+d3VP+x0bU+9KNGoPQOSrildYqycRKPm7HpBx4x8nyQv5EKffxCNoaTeDOd6ExMy4GVBDNHoBm4LQh4Yjz76aMYV0v7eFpCcir2At0VMUkvjSIjGuMtdxWXDJ8LjHpJJFhZJ3kjZzO2JPzQNmfRsQVYMS2No+fRCmv92TbxSD9/vdi8PrXM+BEiI4LPLJv2Mv5MHfkgauYjGKAt4PiyN5Soa4+aEtKIxSsRzu+u5RM+zcXONfqaNhGjM53yZi2iUNkwrklztocuTZG7XbZOraEz7zE3Lo9ii0R4rpSYa4+aHKEtnEtEYl4+rj+r04wS6fga5nrGuF14QjVdkDgxL8qxOKHFig0M0xiIaHsAlGn2uebawkcV/qYnGKDeCNC50aS2NtuvpVVdfTccdd1zmoBP7ez4RVB+AEnLqauhinNsrH5bGJP3B1f1CXYWi9sa43AB9J9CFutXYZdUujiGTeRJLYSHcU30uIFFTQJxbbtzvSeoc2k+j+ldIO+j6Shn1yahR+8zi3FN9cXWfLaSlMenc5rJUaVauPY2ufqUtPLnOCb65KaqOHCcqX7tudjhuE71wjJpr9NvwYovGQsyXrjkhSRumFUmSb77m9jhLheQXyjDUSpPUpdxneQ0VjVyPKGautZhuY92+xRSNSfqW73kV9RyP2xZg97tQ65SUmQ/s06fsx7kCQzRemz10LuqZrX/zuafq7WoJZU2i4BCNiXC5J6a4Tcz22yvfYJI04o6WzvVNoSt+nHtAyP5NF4MQi4WNX96guk4/nT17TuYAorhDcVyHGoQuxrksSd6QcXiXBStJf/CJRpd1gNvJtu7F1SuJi27og0JP9tJfpV9FHTvus1hI3EK6p4aUz9UWcYvyuN+T1DmuPfU1M/pBIXmlOW7bXrSELNR881BUXNfYKqRolIVk1FvskLfqUY+I0DbLdU6Impt8C/k4C6HvJRBfceO6RsN3gJeeA+OeUa4rN/hE3pCP65nie87kMl+6ypKkDXMVjXH9yu7TUS7ISdsm7uoi1/Mu5JmblkfIXBQnfPUawyVQk2zFCRXOvv5ciDWDzHWuud/Vb31rPu53+io5Xz3sF8euOYPzCL32J9TSmGRNmavoj4pv31Lge85EjRXXjQS+57mtCXxbCeJ0Q8jcGhoGojGU1JvhfG+zZLC5jkt2nWhqdzr7DXdc48c9kOMmfVd816Lddr9LKxqTWu0kvO9ePP29a4ITN6UkgslunyRvyLhL+CaWJP1Bd0GXwJH0bAauh7V8p4+xTxLWNSQ4f/vkVJcAkH2D9hjgvn3h4sXZuPpBYrs7FVI0isDXx1rr8ul66odU3O8udqF1jlso6sW2Hg+ySOYyRF25wf3rpBNPJDlMyrVgcs0JHE5fueF6w+mL67pvrdCiMcnclvBRkAmepM1ymRM4L9/c5Brb0t+j9s7p+rrmTjuMFmH8m0uwSH9yHaHPcXIRjVHPL+3lwovf0PmSyxXy4iy0DdOKJOGddL4ObZtc1w9pn7lpeUSJRl9ZXNfChFy5ocdKrqLDN58UYs0gwoX/7bp/Ou6qIymr78UjP+/5Tlz2/nLNCa5TUmWNoPPmOYPvkpTnT5zRwl7TJllT5tp+LkOOfS5B1JYo37PB572nr7GT+Vs/y131lzLpF6C8HotaB6R53nEciMaE5ELcdOwkfW5a+mAODhfnXsHp5jrp++Lrjcs88bjcDpIskmTg+A7c0OhlQGnh7FsUycCyL7YXjmlFo82Y/ztOxNuTNf+3a4IL6Q+ahT40hRdE7LarXeFcLnVcBtdbriRhdXnkAR1XF1c4ezGny8D97PIvfjFzGXGhRaPuj1IXvYi166jflMrCWsKEvEkNrXPSsaXnEK4H34EZt4fNfiHkYiDf2YJevpM2int4u+K6rNCFFo1c7tC5LeGjIBM8aZu52IdeNxE3N+m+GTJ32XWWOSfKW0CPb1//j+rzuYhG3zOlEPOlrz+EtGFakWTnmXS+DmmbXNcPaZ+5aXlEiUaZ/1wvymXNweX1XW5vs3aNlVxFR9R8Yo/VfK0ZZC6dM2d2Zt+bfFx1i3Jl1WsaScc1T8XNGa7ngOuZGmpp9I1/F+t8tJ9+djBL/jDfONGoOXL4qC1fP/j+jZl1UNTawjd+XXNS0vk/9PkH0RhKqgrDxbneVSESVBkEQKACCGBu27MRk7h+VUAXGFaFkBe2lVZn1KeyCMQJwcqqbeXUxiduS7WGEI2l2jIlUC5+e2Ff8FwCRUIRQAAEQCBnApjbhiNMsncsZ/glloC8QCjmYRIlhgDFqQACEI3l2YgQjeXZblVdau607CIoPuYMI+3BIVUNEpUHARAoKQKY28Kao9wWLmG1Gh6Kn2n8sfdl+bZEpEkfcUBgJAlANI4k/fR5l9vcC0tj+raumJi+i1iT7LWpGBioCAiAQMUQwNwW3ZSyLyzNibvl1kl8V6pE7eEstzqivNVLAKKxPNseorE82w2lBgEQAAEQAAEQAAEQAAEQAAEQcBCApRHdAgRAAARAAARAAARAAARAAARAwEsAohGdAwRAAARAAARAAARAAARAAARAAKIRfQAEQAAEQAAEQAAEQAAEQAAEQCA5AVgakzNDDBAAARAAARAAARAAARAAARCoGgIQjVXT1KgoCIAACIAACIAACIAACIAACCQnANGYnBligAAIgAAIgAAIgAAIgAAIgEDVEIBorJqmRkVBAARAAARAAARAAARAAARAIDkBiMbkzBADBEAABEAABEAABEAABEAABKqGAERj1TQ1KgoCIAACIAACIAACIAACIAACyQlANCZnNmIxTjr5ZFq/fgOtXLE8U4YlS5bQWWd/kK677lpafOGFme90mBErrCfj886/gO644w567tlnaN68edlQUhf+YuHCo+jBBx4otaKnKs/lV1xB119/wx71TZVYGUUK7Yc33XwzXXLJZ4f14TKq5h791x6Lha7H/gsOoEWLFtGtP7ml0FkhfRAAARAAARAAgSonANFYRh2gUkXjqlWr6PAjjqSLL76IrrryyjJqkfiiVrpoFNGnXwJUsmh0iTXXC5z43pFbCIjG3PghNgiAAAiAAAiAQDgBiMZwViMeshJEowuiT3iMOPA8FKDSRaOvfqGiMQ+Ii57E+AkT6eyzzx5m4YNoLHozIEMQAAEQAAEQAIEiEoBoLCLsXLOCaMyVYPHjQzS+4UpdSR+IxkpqTdQFBEAABEAABEAghABEYwglE4YXivbHtXdJhxFrhG2FuO222+jJJ5/aY98eu5q1tLRks3Dt60sqGnV5tAshZ6bD6Hzjys5l4vrIR1tgNF4tonT+HN7FVsrhcmF1ubfKd3b+Oq6EceXH9eJPyN5Kez+m5Cdp2vW9cPHiYaxc7RFSbskjSdi4/qvr0NzcnN076xoirrw5nDC2+6qdt07XZ6ETbpJ3XHlszqed/p7sWJL+rOvnc4XW+dr9Wfbjah7tba3D9hevWbMms49V9wUdz5Uep+X66Pnhzjt+Q5/69GewpzFw/kYwEAABEAABEACB3AhANMbwcwkSdqfkjxw+I+6V9kKU433lq1/LuLDJgpUXvpdddmk2Hqchv2mxxYtE/sihN/zfSUQjC1BblIi4s7/jBfJ+++2XLY/U1S5LVNm5jLNnz8oKK7vOPqwuy1uoe6qLCecjacqCW/62xaCrbvkQjbLw50X8Kaeckqm23T9sEWKHERFgi4TQctt1Dq2j3Td1/5V87fKFupdGuafKywSpo/C2X0y4RKMwtdlweaIEvM1Z+rjdd3k8SHq+w3dkjNj5uqyKUZZGbhubtat/cBhOQwth3yFRHFa/zBEhHveSJrfHA2KDAAiAAAiAAAiAwBsEIBpjeoIWJK7gvICLOsRFFq8u66EWXpK+S6yGikZerNsCQNIMOThDL9h9ZZfvXflEIc1FNEYJlNmz52QEetShOiIWpMy5isYQBlJm3T903DTldvU5Xce4/utjEMXGbt840aj7hy6PSzTGjSdX/3IJbg4nQlCXQ48734sL1/dRotE1xnV9XKLYHqP2ixhfWN/LJjzYQAAEQAAEQAAEQKAQBCAaY6jGXQkQYiXzueDFHZ6hRWKoaLSv5bCrxwvQZcuWRbodahHgK6PLchfSQXMRjVFuqCIK4vYQ2gv+XEVjGp6+lwJJyp0kbFz/jRKVIS8Zkh6Eo0Wtq3/5LMpJX0ZweJ/oco0tDq+tma4+knRPoxaorvhSN5f7ts+aGNI+IWMSYUAABEAABEAABEAgjgBEYxwhy1rBQbXFIkQ4+IRXnODUC95cRaNPIOj9UlxP7eLn2vdnuwSGXpeRi2jkcmkGnN7tt/8iK4Tj2sNewOcqGkMW7T5RpQVwknInCSvMxFXU1X/53kzfJ879sRCiMc2dnb5yhIpG1xiwmdj9PxfRGGfBtUX13LlzM1fR+O5+DOl/AdMbgoAACIAACIAACIBALAGIxlhEfw1gH+ghoipuAc+xcxGNtmUw36JRXPdswRdqabSx2YfhxF1unqto1EKbF87nnPOx7P2Oce1hL7TLTTTKRe5J6mi3U9r+GzVECiEaJT/7pURa8ZpENArfuCmhGKKR5xf+QDTGtQZ+BwEQAAEQAAEQKAYBiMaElLVbZtyesSjRGLcnTp/gmatotONrN0G9UA+xNGp0IW6FuYpGzlP2iJ104ol01tkfHHbgT1x72PvLchWNISeshloak5Q7SVjdRr7+6zrJNWRoFFI0Sv6+A2Ls8uVqaQw9+Ef6X5J7Gl3uqXGnt8phPFH7O6PcXEPaDmFAAARAAARAAARAIJQARGMoKSucLRaiDjCRKFF7F+MOwrEtd6GikV0RtQjQ5fS5xupTVuP2XboW7r5rAzhsPkSjWNrYwvjoo48O24cWcqCMzca18Had8unqJj7hHSJmdDmTlDtJWFe57f4bdZVJyNCI6keuvbUhexp1vnEvV3z9ir8PtTRKvww52MnlFppkjMcdhGNbPH1iVjjGWWBD2hBhQAAEQAAEQAAEQCCOAERjDCFeTLJFS65TcFmnXCc3uq7ciLp/0HXlhn2KIhcziWjk8LZ401ZAl1iw3QHjLI0c/8GHHsq6hXJ+IXus8iEa7T1vUXstXddRaAuP60oE2d/mOglTdxfXVSauKzfiRLwtfELK7etz7M6o3Y3j+q8w0CyZg33li2uo+MRSnNgRceaKr6/XiHPHzYdolP6rr6rhccz3a9oH5LjqlkQ0cl5RV27Y49Z1Sqp9lYgWmPzCKOqlTdwDAb+DAAiAAAiAAAiAgIsARGOAaLQv6ubgLmuELWQkSVmEh1jr9OXrLve1UNHIFp4ffP/GjOumfFwCSKwVEobz5A/XN0Q02ulzvJDDcPIhGu0Fvm+B7GoPnxVJX7LO4a66+uoMi6i7AYWbLbblO+EX6p4q8ZKUOySsq2wuDq5wIe3J5XYdiJSLaNRjIUS85+qeKvzt/bnynYuXXUbug0lFI6et8/LVU15U2VMV56lf0rju/sRjDwRAAARAAARAAATyQQCiMR8UkUbRCYRYNYteKGQIAiAAAiAAAiAAAiAAAhVIAKKxAhu10qsUspew0hmgfiAAAiAAAiAAAiAAAiBQLAIQjcUijXzyRgCnRuYNJRICARAAARAAARAAARAAgVgCEI2xiBCgFAjY+7pwYmQptAjKAAIgAAIgAAIgAAIgUC0EIBqrpaVRTxAAARAAARAAARAAARAAARBIQQCiMQU0RAEBEAABEAABEAABEAABEACBaiEA0VgtLY16ggAIgAAIgAAIgAAIgAAIgEAKAhCNKaAhCgiAAAiAAAiAAAiAAAiAAAhUCwGIxmppadQTBEAABEAABEAABEAABEAABFIQgGhMAQ1RQAAEQAAEQAAEQAAEQAAEQKBaCEA0VktLo54gAAIgAAIgAAIgAAIgAAIgkIIARGMKaIgCAiAAAiAAAiAAAiAAAiAAAtVCAKKxWloa9QQBEAABEAABEAABEAABEACBFAQgGlNAQxQQAAEQAAEQAAEQAAEQAAEQqBYCEI3V0tKoJwiAAAiAAAiAAAiAAAiAAAikIADRmAIaooAACIAACIAACIAACIAACIBAtRCAaKyWlkY9QQAEQAAEQAAEQAAEQAAEQCAFAYjGFNAQBQRAAARAAARAAARAAARAAASqhQBEY7W0NOoJAiAAAiAAAiAAAiAAAiAAAikIQDSmgIYoIAACIAACIAACIAACIAACIFAtBCAaq6WlUU8QAAEQAAEQAAEQAAEQAAEQSEEAojEFNEQBARAAARAAARAAARAAARAAgWohANFYLS2NeoIACIAACIAACIAACIAACIBACgIQjSmgIQoIgAAIgAAIgAAIgAAIgAAIVAsBiMZqaWnUEwRAAARAAARAAARAAARAAARSEIBoTAENUUAABEAABEAABEAABEAABECgWghANFZLS6OeIAACIAACIAACIAACIAACIJCCAERjCmiIAgIgAAIgAAIgAAIgAAIgAALVQgCisVpaGvUEARAAARAAARAAARAAARAAgRQEIBpTQEMUEAABEAABEAABEAABEAABEKgWAhCN1dLSqCcIgAAIgAAIgAAIgAAIgAAIpCAA0ZgCGqKAAAiAAAiAAAiAAAiAAAiAQLUQgGislpZGPUEABEAABEAABEAABEAABEAgBQGIxhTQEAUEQAAEQAAEQAAEQAAEQAAEqoUARGO1tDTqCQIgAAIgAAIgAAIgAAIgAAIpCEA0poCGKCAAAiAAAiAAAiAAAiAAAiBQLQQgGqulpVFPEAABEAABEAABEAABEAABEEhBAKIxBTREAQEQAAEQAAEQAAEQAAEQAIFqIQDRWC0tjXqCAAiAAAiAAAiAAAiAAAiAQAoCEI0poCEKCIAACIAACIAACIAACIAACFQLAYjGamlp1BMEQAAEQAAEQAAEQAAEQAAEUhCAaEwBDVFAAARAAARAAARAAARAAARAoFoIQDRWS0ujniAAAiAAAiAAAiAAAiAAAiCQggBEYwpoiAICIAACIAACIAACIAACIAAC1UIAojEPLX37f/+WHn/qObr2376Uh9SQRDEJXPmN79CUyZPonz55gTfb+x9cSrf/+nd01RWfpxnN04tZvKrNS48pjLGq7QqoOAiAAAiAAAiAQAkQgGgMbITF//y5YSGPPOyQrNAolwUtC6QF8+fSOR8+M7DWlR8MojH/bcxM167fuEfCN333W8GZQTQGo0JAEAABEAABEAABECg4AYjGGMSvt2yly6/8Jp3zoQ/QqScdnw3NC+MrLv2/mb8hGgveT/OSgUs0h4jGvGReRYnk4+UERGMVdRhUFQRAAARAAARAoOQJQDTGNBEvXle8tjorEF3BIRpLvp9nCgjRWJx2gmgsDmfkAgIgAAIgAAIgAALFIgDRGCAa4/Yrimi84NyP0A3f/3E2xYs+/Qk67K1vyf792X/9GrW1tzt/f/7FlzNxOY6kIe58Yu2UiLZrbJKOohfzYmXjNJ55/qVMUqee+M6M+6rtYijfSV4S78AF8zN7/eSj68suvWyhvfu+BzP1lt91fTi+vV+Q4+k8JY6dh81zwvjx3j2lrvyEodRl6pTJdP9Df8zWxXaldL0U0G0Z5Xr5vR/ekuVrM5bMhNOfHn8q69ap21jXYd/ZMzMvMlyWUtd3nIfNTpfJ5i/1fd9pJ2XaV/IK7WsholHnr+sbYmmUvaZSLt0HhKvtIaC/k3GXxHU2lAPCgQAIgAAIgAAIgEClEIBoDGhJEQhaFElUXuCy4LAX17IolsUoL07/8sry7H5CWfDav7NY1AtfWdTai3ouzzuOOjzx3kSXaOS9Z+J6K3lxGVgAs+C1xawIYBGUel8nM9DiTwtCSc929xUWwtdl3dXf6cU/896xc1ekRdhnaWQGtkhlvpMnTfC6H2tRxmWL2idquzK7xK/sl9Wi2mak6yt56n4k6dv9iJnfctuvsqJal1+nIf05Xy8n9BDj/Hfuahsm8uOYu0Sk7m96zOk+IfXU/Xb7jp2RByEFTBEIAgIgAAIgUAEE7vrfP9Ary1+jz138aWdtvnX99+nVFa/RN772BeKXza4PP6/5pbovjXxhuuzL/0b/8PcfM3nNG5aklJG/TFKOV1esom9df2M2rXce+3azFvzosLRvue2X9Mc/PZH5btrUKXTNV//VWR1X2XT6HNGVR774SDqhZU5a/yRs812nkUoPojGQvCykObgWj/Kbba2QxXvUiZu29cclzjgvXmAf+46jhu2n5MUvW++SntbqEo2ch+zN5P/Wi3f5jq1OYrHhdHQ8CWeLWZfF0LeHkBf4/OFTTF3suFxSBuatF/ohvH2iUddF89WCxS5LYPcZFkyXw8UpjoedoN2PuOz8QHtt9bqs8LfT0gJS0tF8WZCltb65DsIRoeZ6CcJl0O0XZ2l0WRF1X9VWROYgFmWpW65tmab9EQcEQAAEQKA0CYSKxjPPOI3e/95371GJZY89RT/+6e2JxFpSErYI+tzFnxkmGlkwTp82JSv2WLwddMD8PcSfK09O1xaJHPe4YxZm68lsHv3zk1mhyHnxxxbHUWVjNo/++Ym8iemQ9ELKLCzyUf+kbVlu4SEaE7aYCETbMuVyX3RZlGQRa2cpAtS3mNanttpxky7qfe6p9nUTLmGlLZshwo/L6XMPdFlsNUO7HHrx7xIlwsVnDebfQ/c0uixvtouy/QIhtA10O9r9x8VJW8mkzi5XUbte/N9nnnE6LV32WEYgsQXUJQhd3V7KlOse3Sj31Kg9wjaHKNEY5VKq+6YtqPm/ub2YB1vS95o+LXPIFa5SSTgJIjgIgAAIVCiBENHIVeeXs67nPwstsUAWwtLIQul3d9+XEW7amieWMtsKKt+FrlXsZrXzkjWdLVJ1flFl4/jMll/4a+tl2q4UIhr5uR9V5qi8df2Z9wfedxotOvqoTDSuy6Vf+nrqF+xp6z2S8SAaU9DXAi9ENMqi3x64LkujXsD6LCopir2HaPLth9PXcoyEaGThxnv82ApqW8pE/MXdrejiky/RKGmLO2TUfkoRmLaYdVka9em8PndbcZXWLpZyWJMII+H3jxecmxFG0u9CBGFImKj+V0qiUcpy8EEH0G9/f2+2P/FDnV1rpI+lGU+IAwIgAALVQEAWx1JX7ZYoi2kWM9u278gEcwkXic+//finvxhmERNR8omPn5NdlGsBx3//9vf3ZZHbeUgZ2MrHH3nmRcXhcNp1kS1rce6pbLlji5stIDgtFlH/+bNfZKxzdhpR/LRlkNOJE64CQItGLXIknBZOoX3WTs8nPn1pu9xTk4rGOG4s3OXjcnONKzPHZXdcba2VNCEa9+wpEI2ho8cKF+dKx0G1pVEfRKJ/91ka0+5fdFUrn5ZGTt92a+W/taufS/D6BIUWhvIAYRH9ze/cSJ//v5+hGc3TM9UK2b8YUn8O4xLOcZZGnXaUsA+x3IZYGu08dV+xr4XhSdR28WUxagsjXTcXp0KKRp+VMG5M6TLp8ST10H1QxDO/ZOD9B+xibX8n1tgU0wCigAAIgEBVEODF/qKjF2YtaC4XSBaLIuJYiLFoYmuYLPzlN17IT5s6OSOwxGLGEMWt0178cz7HHfP2jIjkNLdu25F1bZTwIg5ZpNhl4DTj4tjl5PAiMqL2qnGZWDTyR4tLTk+sjPZvUfxcQs+ud1QH81kaerz8AgAAIABJREFUbeOE8PcJo6j07Xb2CVJtfZP0XKLRFugcLm4/Y1y/i7M0xpWZ2ypKNOp+rvucS/BX+oQA0RjTwixQjl909LBTUPk73jMmewpDLI1635pYHuPcU/UhMVxcfahOaCfNp2i0D9Dh/PUhJPydSwxFHYSjrawiDjktW6CKwHCd6qqFrM3GJTbTiEaOI/m43JDtPPX+T5d7c5xojDtEifNjscQfvfeUD5yxv5Ow9kE//J1dp0KKRsnLdRDO/LlzsgfSxO1pFI52n9HjkvOyDwayXzwwc7YQ29+FjiOEAwEQAIFqJqAX63rvm23h8Vl7tJhkQcEfEZuyhhCxyXO2PnzGFiy6DDq+tJcdx2Ul00JTt7OIRt7PaJfJrs+yx56MtFZqfnY5krg8uoSZ3sMoh+IkFY1ioRUBGifAxGXT5uw6pMfmyfWOE452eM0tV9Goy2znpesvv9mWaxyEU82zoKfu+moADqb3lYWIRr2fUa7WiBONnJ++WoC/S+Ofnk/RyJYb/shVHS4XTZ8FzrW301Ufl8CUZnJdoxG1n9EWEPzf+soNe19nnKVRX7ehXUt1V7L3M7LQZVdS2wU4TjTGXVHC+bkOY3IJKymbrkPcHt0kU0OUe6qko/el6hcAcaLRrrOk6bsaRAt3Ds/faeGapI4ICwIgAALVREC7edouqr69XiLyxApou54yO9uixmHYMilCbNv2nRlXT/7OdeqmsJc0dRni4oiVSa894lxDbdEolkUWkLbrpSuNKH6+dOL6l+/0VHvNwXzYZTeJaBShabMphGjUljtXfaO4FUo0uuov/dU+ZMgnLOParZx/h6WxnFtvhMruOwhnhIqDbEEABEAABEAABApEQA53kYNdQvd62ZZBe3+afC9C69h3LMy4qnL6LKAO2H++cWt9Y28kC7KQw1x8otH3gt2XZhLRaKdhCzidRhw/2QvJAjnUNZXZ+ESj3Q2SWC4lTRbU+hCfuP2B+tqPkLLFtWsctzjRmLTMaervc88t0FAc8WQhGke8CcqvABCN5ddmKDEIgAAIgAAIJCXgWnjrawziLI12nralzj44RgQiC4HlK1/L7F/kg2ZYjITsy/OVwWdh0+6xUkbXNRK+8vP3sq/Ndqu1RWMIP05HXFR5j12oJ1mIMEty+EzcHj3fSaS+U2Tj3FN91kvmEcItTjTaXEXURgnVqPr74rncopOOsXIKD9FYTq1VImWFaCyRhkAxQAAEQAAEQKCABLRgk79D3VPZzZQ/smjX4o7/5g9bttjCxenz4p0PtbHFiMtl0L5Xz2XxiYvDv3N+ckF9yB2Ltujlcksc36mvIfw4HdlLabs/xjVrnGiUsulTZl1iziei7TLo/Z6ahR3WVTYOLxZMyc9332UItxD31qgyixDkFwt8OBNfn6H3zdp10nswxT01Kk5cG5bb7xCN5dZiJVBeiMYSaAQUAQRAAARAAASKQMDeV8ZikS2A9smnUZZGFo1sPZOPPvhEn2DK4bRbosQVESh/20LN5yYYFUfykmtCuGwsXEOu3GC3WfnIVVfyd9RVIS5+HM8WMNrV09fEPmFmX0WhT1JlHiKS7XSj9oDa1lqbZ9QhNiFl03tcdT3j+p3dflFl8ZXZZs5p2f3ULotdf9mfK79Xk2DkOkM0FmHCRRYgAAIgAAIgAAIgAAIg4CIQ5aqZL2Li+nvBuR/NV5JIp8oIQDRWWYOjuiAAAiAAAiAAAiAAAqVDoBh74+SQoairJkqHCEpSigQgGkuxVVAmEAABEAABEAABEACBiiYgF94nua+wooGgciVNAKKxpJsHhQMBEAABEAABEAABEAABEACBkSUA0Tiy/JE7CIAACIAACIAACIAACIAACJQ0AYjGkm4eFA4EQAAEQAAEQAAEQAAEQAAERpYAROPI8kfuIAACIAACIAACIAACIAACIFDSBCAaS7p5UDgQAAEQAAEQAAEQAAEQAAEQGFkCEI0jyx+5gwAIgAAIgAAIgAAIgAAIgEBJE4BoLOnmQeFAAARAAARAAARAAARAAARAYGQJQDSOLH/kDgIgAAIgAAIgAAIlTWBLaxu1dXfRpg0b6PVtW6i3p4MGB7tpsK+P6qiGmhpG05jG0TRu/BiqGTVErbs6aPTocebvcTTK/D6Uqd0o2rF9G02YOJEa6puos6uDOk18qh1lfqox/zchR9WadHfT0O4aqqmpIfOF+Z7/+w08UyZNpAX77ktTJ00qaV4oHAhUIgGIxkpsVdQJBEAABEAABEAABPJA4LHXNtBdjz9Po+uH6JB9Z9L+0ydTW+tO2vz6euroaKWh/l6aOGYc9Rlx+OyzL9LmdRtp7dr1tGPrNpo1ayY1NDXS6DGjqba2gfr7+6nOCMNjjltE02dMoea99qLevgHqM9+Pqq01GrGGdu8m2m1UJovG7D8mbfPNm8JyFM2fPYv233d2HmqHJEAABEIJQDSGkkI4EAABEAABEAABEKgiAoOmrrXmn37zzzMrVtMDL7xGXcbi+JbZzXTIrL1ooKeHNm3fQH+47wG6+7cP09pVq6m/sz1jGRwa6jGxOAW2GDZl/tU4ZoJRhLtpwtSpNK15Cr3loAV0xvvfR/sY8dg/2G+EZa2JZ4JwLBN+lBGRbKGsqanNWCzNF0Y4mv82xsm3HXwQTZ5g0sMHBECgKAQgGouCGZmAAAiAAAiAAAiAQHkR6DQmv36j4thFdKwRcCwgX920hR587EVqNeLwoAUz6cc//And++vfG1FH1NBYT7sHB2hoYMB4ndYYV9MBo/6MBdG4mQ4aUThk1F59YxMN9PfQbmNh7Ontpbnz9qFvfPsqmjh5EnUbQcpqccjow1rzv6E3XVtZKNaYuCwq6+vqzb9HGcE4kY446IDyAorSgkAZE4BoLOPGQ9FBAARAAARAAARAoFAE2o1ozFgNTQa72WfUfMYYwVZv/t1rLIYX/8fP6Qf/ejVNGd9oXEy7jFCsN2F306BxWR0w+x77B9hp1XzY1dREHzLCsaauybisjqHdA700qq6Wutp20Cmnn0IX/vMnzR7JnoyL6sBuIzYzEvWN/ZBml6MRpaNoTNNYGjd2PI0x7q519fX0ziMOL1TVs+nesmwbXX7nRlr6+YNo7rTG2Pxmff45uuqsmXTBommxYXMJkDaft135El10SnPBy5dL3RC3NAlANJZmu6BUIAACIAACIAACIDCiBDpY6PH+QlOKNyTjEA2aL5qMcLz/lfX0lW/8iDb+cWlG1hkjIPV2t1Nfd4cRg01GHNZSX1cndbdtyQjE2vrRGRfT/v42I/jGGYvjaGNx7M24nvZ1t9JRxx1Dn/o/i00Wu/n8G2PdrMtYFjOWRxOvoa6BJo6bSGPHjacmE7fGlOHoQ94SzOd9Nyyn5zd0062fmEcnHzTeGW/1tl46/puv0PsOnUg//Ph+mTAQjcGIEbDCCUA0VngDo3ogAAIgAAIgAAIgkIYAi8Y3pKKRbbzX0AjG0cZN9On1G+lTV91Am//8LI3qHaAx5lTTjpaN5lTVVho9fvKbFsbd1N9lLIv1tdTbto2623dSbeM4IyC7jQQcpKbRkzNqdKCv16ReZ1RiN5125vvpjPeeSjP32cfIUGPRrGPhaP4xFsw6898NDfXmnwYjOhvN37V06Lw5wdUS0WgLQh35kz9dQ3e/0DpMNAZn8GbAtBbAYuUDS2NS0ggvBCAa0RdAAARAAARAAARAAAT2IJAVjW+aG/k6jAnGwvc/Ly6nf/5/v05dr6ykhnHG3bS+jjq2bKS6xkaqN66nQ0ODRhYOUl/rDupu3UqjJ+9N7Tt3GIHYTrXGYlhrRN+YCVOpv6+bdvebw3JG1RmL5A4aawTnP178T0Y4nmgsi/VUb1xQ603a/O86Ix7rjWhsGj2amsaYfIxonGS+D/2waOQPWxs3fNPt1sqC77BZo2nW5IaspTE0fQkH0ZiUGMKXCwGIxnJpKZQTBEAABEAABEAABIpI4K+WRpOpEY5saRxvROOPlz5BV3/9P2hw2y6qHeqj3h1baeKEBtq7udl4kw5SV0cP9TU00fbXW4yY3GzcTY3oGzuJWreuNxbE3cZS2EDTZ82h3s5W6uk2B+L09BkL5IA5QbWO3vvRD9FN3/uySdeckpqxNPLpqW9et5G5eeONextZx4578/7GECQsGo+eO44eW92R+feX37/PsGhfvWtT5jcWjPwR91T+/rfP7qSnrzhkWHgWh/ZHhKiIxl8+uSMjUPnDQvTui/56aI+4wbriy3c6jLaQhojTB15pp/N+vCqbDe+1vGFJC/Y0hnQYhNmDAEQjOgUIgAAIgAAIgAAIgMAeBGxLIwvGJnNIzert2+mib3+XXn3kWepp2ZaxFu4zczL98z+cTQeYuxOHjNWw05ysunrtZnpm+Qp65aWV1Laj0xyUM0Ad7buor8+Iz8E+2mvG9MyBOdt3tlLvgNnHWGOshg3j6S1HLaQ/3n1TZh9ln7FsskB8Y1cl/+tNtfhmScdnruQI+4hoPH7BePqXX63bQwSy2+a3PzKHbn9ieyZBn2gUMfePx0/PCk8WliJCRUzK3klfeC6H7K1kt9gNO/uywlLEnn34DpfvzCMmD8sn6sAdScPewynut8U4qCesVRCqnAhANJZTa6GsIAACIAACIAACIFAkAiIaWTAOmdNSJxqX0C/c8iv64Y0/pwbjejrQ129OQm2gL3z2b+lv3v3ejPgbZfY87janpO42exXbjEhc89oKWvXaGlq9qYX+/Pgr1N7eTfV8dSMN0I5du6jTHJaTuYvRuKwOGRfUCZP3oev+/at01uknZO5rFMnY/+bprWx1HDLlYf047g1FGfQR0cjiTgSiiDYWWN++b3NGtLGwihKNnE6U+yqLRltQclo6TV1gEXhireQ8PrpwyrATTvlAHrYSisUzztLoK2dcvCCYCFSVBCAaq7LZUWkQAAEQAAEQAAEQiCbAV25kPm+6pvJ+xh/c+wh9/d9+QLVdrdTd2U8HHLgPXX3pPxrX1LlGMJqwuweNwDT7FI3kG+g3dzN2d5pTVbuN9bGNHn/scVrxyiqaPnksta5vpZ0dHdRuROOWzl5auXUn7WrdTj1d2+kTl36Nrv7KJSb+IO02edYZi+L0pkbqGXzjKFcWjnyc6zjOL/Bji0YWYOw+Ki6jtkiLE41xosv1u7YkcpHZOvmjpVuHld52cfVVS7vB+q728JUTB+EEdhgE24MARCM6BQiAAAiAAAiAAAiAwB4EspZGY2XM7CGsG0Vf/6/f0G3/fTeN6a4xVsNWWviOefT/fOxDNHPmHHPCqrENGqFodh2aex0HaNDc0zjY05P5p7+zg/p622h3r7l+Y9QA7e7upb72duO6upO2dfbRM5tb6Wd33E87d2yhA487meqn7Uvb1myjOiMwB/t208c/fDJdffE51JFxWc2YKml8SksjV5RFFbt/8udDN67MWvBCRGPUtR0holEO3BHRqi2NccJUyh/lZsppuMoJ0YiBnpYARGNacogHAiAAAiAAAiAAAhVMIGtpNHVkl9DRxup328N/olv/5/fU3dJO5jYN2n/OJPr4e95H+82dR0ODA+YOjX5jZDTiccCcn9rfRwNd5jCYPv63EY1dbeb+RnO9hgnX177DHJizw1zPYfY6dvVRZ8NY+uHP76dHH3uMJszYl+onTKMd67aa+xrNXschc0mHOTzngYd/TO864kBqM8KxblRtaksjNxlb+vizcVcfLZo/LusKGicabYulq+njRKMWiJyG3AUpVkS9fzE0HzucKw3ZX4k9jRU8aAtYNYjGAsJF0iAAAiAAAiAAAiBQrgTajPDjzYNv7FM0dysa0fjQX16hf//1nbRtxUYaNHc0Lnr7AvrQu06k2bPNIThGLPJ+RhaOo0zcXiMY+82+xSEjDGtra6ivo9UIS2OJHDInpZrDcnrNFRx9fT3U0WZEpbmq454nX6Vbbr+Hpu+7H41unkWvr9xokuqjxsYGam/ZSh88/6P0qx9fRe0mbS5TmoNw7FNTWVjxxz4ZNU40isCzhZc+CEeLMts91XVAjRyeI6JR8rAthRxv6Yr24INwxP3VToPru6V9gCAay3VEjmy5IRpHlj9yBwEQAAEQAAEQAIGSJCCWRj5uZtBYGhuNUNvR1k6X/eg/6eXnXqax5iqNM058G5268B00bdpeGQsju6UO9PaYCGY/ojkop3vLFurp2E5N4yZSnUljwOxt7DP/9PabA3CMu+tAbxftNFd31DSMpue3dNI1N/ycZh15BE2Ztz89/T8PZ/ZH1hux2tfbRxOnTqannvgN7TNtKnXxwTzm+9CPy0LIYm7mpIZh12/EiUbOT19lYV+pEWdp5Ph6PyMLO74aw74/UoSjXT/79xAXVp0Pu+OyK+5FpzQPO2QnlCHCVTcBiMbqbn/UHgRAAARAAARAAAScBDr53BmjGAd5T6PZRMgH0rAQvPwHt9Jjzz2fubPxPW8/lD72gffTwMAbh9Pw5seBni6qr6+j3T291L1zJ/UbC+NAX5dxNeU9j2Y/Ix+WY/Rev9nf2NW+ndp37iKaMJFWbOmib37vTlr00VNpd9NEuuv6W6lxzGiTs7mzkQbNwTvtdPN/fZcuOOtUajUntU5i/1h8QAAEikIAorEomJEJCIAACIAACIAACJQXgfU9/dTbM0DN4811GEa6tRmRN2VME9173yN0y/33UWd7B335ggtowQEHmkNx2mjH9q20bUuLEYN9tH7NRuoz13IsPOwtNGXiZBoydzIO9HYbN9VaqjPupjXmPsf+nm6zr3Erte7YRjVNE2jZX9bStTfdSf9wybn07Kp2eurepdTf1WXC1lO9sXJ2bt1Mf/8vn6Yffetz1GFOVp0G0VheHQqlLWsCEI1l3XwoPAiAAAiAAAiAAAgUhsB6c8JprTkRtcEYEUcZkWeOPaUhPtRm3Ta65dGH6NWNG+mLixdTbV09dbS20/atrxtLJN/DOESb1q6nXiMkp0+fQpPHTqLR9fVUY1xWjdGQ6seMM4esDtDGDWto/aYNtG3TVmreb19qMWfm3PCft9IZf/dRemDpa9S9fTu1rFprwo+mOmNr7NqymT71pUvoK1/+NHWYazz2HzumMBVHqiAAAnsQgGhEpwABEAABEAABEAABENiDwNodrdRmrIlTJ4+ncWPGGnFYmzncZndbLz27ZjU9v/xV+vBpp5kbGc3ppsZttc4cdrNh7Vq65+7/peUvP09HvOUtdMwRB9HYMeNpTIMReEaADpiDb2pHN9HGFSvpsaVP0VpzR2NTfSOtWbeejjn9XfSMEZ5/eWotbe+so7HNk+j151+h2oYGI1xHUUdLC3148Ufpxu9dTq3mfsf9xo1Hq4EACBSJAERjkUAjGxAAARAAARAAARAoJwJ8tQXvZ6wzYpH3Kw6Z/+0eHKLu9S203ojDFuMyethBB2T2PZpfaPWzT9PTTz5NT7b0029u+RG9/21voVMPP5jmH/s2mjX/QGowZsaNzz1Drz71rLmRY4j+YvYlPvvyS/Th951As8ZNoDUDQ9Q8Yy59+6rv0at9jTR17nza8NDSzD5Jo1jNqazb6YMXnk+/vsmcoGrKxnsq8QEBECgOAYjG4nBGLiAAAiAAAiAAAiBQVgQ6MjsZzeE3u/mEmzc/RsC9vvTP1GFOshm17xyaMn6sCTFE/d1d1GPcURvGTKC27Ttpw8qVVLNlPXWb7/Z5+1E0Y9Z+5sqOenrhrt/Ts/cvoTlHHUlt8+fTd/+/f6fp/T307hOOpQWnHke1m/roim9eSy/3jaOz/v4jdOy8qbSlZTtNNSemzpm7Dx122IE0d+4cMvqSJprTV/EBARAoDgGIxuJwRi4gAAIgAAIgAAIgUFYEdpgDbfqN2+koc3hNkzm8Zoj3Nhqz4qZlT9HgxEnUNGMG1fG9jHyqqjkptdbsW+w3dygOdHdm/u7YscUYCftp3MQpNLZxHA2ag282/OkxWrX0MZpw1DyaPm++EaQ1tH3Vanp94zqac+wx1DM4hs5b/Gnq7J9IF3/9MvrOpRdmmHUbYcrnqPKnz/zDonHMG3/iAwIgUAQCEI1FgIwsQAAEQAAEQAAEQKDcCLT295vrFs01GUYo1tWZo2iMO+puc5jNzg1bqKOtgxqnTDFi0hxwY74fNIfm7B7oz7iw9pkTTwd7eky0IfP7GHNaaiPV1tRSnzklteUvz9OGZY/TuPkzaNxBB1Kd2c/Y39tprtNoo3HTZtL9j79CX/rS56l+7Hza911/Q3MPnEe9RiFu3NBC+8zei8bsNZVmNk+hKz7wDtpv+qRyQ4rygkDZEoBoLNumQ8FBAARAAARAAARAoHAEVrW20SRzcmmDEYwDfPKpcVMdMnsce8w1HN3dA8YK2ZexQDY01hrL4oC5n7HXWBrN6apGNO42p5uOMnc1NjaNpiZzYE1NXSP1tGymLS89TRuff4HGzzDWx9n7mK2KdTRk9ia2d3bSBLOf8erv/Ih+d9dtNHbaETQ4/iDq2d5q9jMaJ9nG0RlBarZO0uhJY+jJe66hg+fOLFzlkTIIgMAwAhCN6BAgAAIgAAIgAAIgAAJ7ENjc0WGOrhll7lY0eweNC2qtOcF0FB+KY6yPAx391MbWRROrqaGehgYGaMgIy4G+Xho0J6z2dbUb66OxNo4aorFT9qbGCZOoz1yZ8fqLz9C6Pz1OU/fdmybtP9dYLvvN9Rs91GPuXaSJe9GNv/w13X3vwzQw5mAaqp9o4htDZ0YumvyNRZPPxKk3exkvWHwGXf+5v0WrgQAIFIkARGORQCMbEAABEAABEAABECgnAjv7+4xQqzVupqMyuwmHjJvqkNmz2GOuznj0xbUZK+A7zZUaZmNi5j7HwUEjHI31kQ/F6WvbRd3bWmjM1GYaM2lvGtXUQIO7dtLmpx+nzX952QhNohlHHGoskLXUZcRpb28vre2voQmHHEzXXXsv/fGPL1DD+AZO2uTNytFYG427K/E/Rjz2Gcvm0KZfBeP81vXfp1dXvDYs/Ocu/gwduGCeM41bbvsl/fFPT9AnPn4OLTr6qGyYZY89RT/+6e17xIlKK7iQjoCvrlhF37r+xuwv7zz27XTBuR/NJcnguJd9+d/oH/7+Y05GNs9pU6fQNV/91+B0EbA8CUA0lme7odQgAAIgAAIgAAIgUFACHUaftXf3GWtfDY1urKOurn56Yvlq+uF/L6H77n6CDpo+me7+r6syexlrzBUaZP49aERjX3srdW9vod3G6jh+xhyqM3c01o5pot2dXbTl6Sdp27pVVNvXTdMPNtd11NdSZ3sn9RlL5V2v7qS3nXYs3fQff6CH//AUNU4dTwNmPyNf6cFlkGs/2PpYZw7n6Vq9p3jzAXGJRg6rxd72HTvp0i99PZvMSItGFq+2SGQhd9wxC+n97313wdpeBLOLD3/HZTjogPlFE68FqygSTkQAojERLgQGARAAARAAARAAgeog8PW7/kgt27bQ2cccSfNnz6JXzN2Ml3/7Nnr87j/TKON6OrZukO665wd0oDmsprO1lUYZV9Pd5sTVntZd5gTVDmoYPc5YCs3hOcZaOKqpnno6dtLKex6g2vWbaJ+j59OYfWZm7mvsMJbGPmOpvPb3L9NFl55vLI130v2/f4waJowx1kujFY1A5FNbWT1mLv8wYdnq2L/h16kbYvE/fy4T98wzTssKMG3V49+1aLzrf/9Av/39fXt8n6Qg/UYg7zDitMswnDplEk0YPz44Ols6f3f3fYkse4PG/bezZR31de6icXvtS02Tm7352em7LI1c/1eWv2bE9qeDy4yAlUEAorEy2hG1AAEQAAEQAAEQAIG8Ehh97CeN22kX/eJ7l9LCBXPphjv+l775ldtpkjkRddLsZnp9Vy998ZPvp0+eexJt27KDao2lsd9YEDuNpXGof4AaR481+yHraNCYBls3b6Kd2zZSv7EqDr2+iSbPnER1TWMzrqZdHV3UUdNEl/7iBZrU3U47eztooGYivb7FHILDfrHsimo2Mw6YNFk41o9pzNSzb2M60WhbE21Lo4hG/k5cQvMtGjnvJ5953lhQTV3e/DTvNZ0WHnlYUNslFY2dW9bS6kd+Rbv7e7PpT5h1AO13/Edi83OJxiiX1dgEEaCsCUA0lnXzofAgAAIgAAIgAAIgUBgCh134H9S1o4NOPOYgOuXMY+iuF1bRxm0DdMDbDqHtz66ku/7ti/R3p59I3/7OF2jn6y1mu+GgsQz20bbNG6ijfRdNn7Fv5uRVPiCnZ9t2I/q6qWb0KHNlx2pzxUYn1Y8enXFprentp6c39NKV//kIDW7dQqMmTTBXa+xDQ5OnUMO40dRoXFvHTGiiUT2DtOPl1bRr1WaTTiMNbPttooqLdVEiRe1DlLBaNNqum5KODuMrFFsYH3j40WGCUcIumD+XDtjfvb/STo/dbKdPmxLkGsoWxpd/+91hgjErVN96PDUfekIkPy0QRWxzfe19nYXaz5mocRG44AQgGguOGBmAAAiAAAiAAAiAQPkRqJn5CaoxJ6GO2XeG2V84h/ob59CYw/c1lsN+mrHpeRrd8Rp94CN/Qx8/9SjqamvPiMaBvn5qWf+KOTCnn5r3OYBqe8xJq6+zYOyk3V091LFpPW01B+QMNjfR1Le+ldrXb6SOzla6/leP0NN/+hPVNkw06dcbC2RD5soO49dKo8xdkI0TJ9PUg99KUw5eQN3rttDaex+j7i13JoKqReOBC+Z73SyTiEYuRIhw3LBxMz334l+cZZ4wfhwdv+joyPqIa+xN3/1WUL13rnqe1j92lzNs06RmOuC9i1OJRvvgGynTN772BeNqOzmoXAhUngQgGsuz3VBqEAABEAABEAABECgogZpZ/0TU2238QHeaey5mU+OZH6HZ8xro0JlDNL2uj9aueZ2adq6n73xuMe0worHBHFDT22uuz2jdQRPHj6ExY8cbK6P5bpfZEbFiAAAgAElEQVTZs7jLuKyyG6q5q7G1tYUaZkygnnHjaMuqdfTwy5vpZ795ydz5yAfpGIHZusW4o3aYuhkXztpp5tQb4446yHsax1HTjBk04/ijqd4IlOX//tlU9bfdU+09jXZiPtGoM2Rr3LbtO8wJo34BKnGWr1xFK15b7SxznTlF9vRTTvTWRw7yCRWMnFDLC49Qy4tLnWmOqm+kt374XxKJRtt91z51lhl84H2nDTtlNlXDIFJJE4BoLOnmQeFAAARAAARAAARAYGQI1Ez+W3Mvo3EhbZpGx1x6Lh1yxF40+Po6Wvnnx+iRH/7cWAGJ9p/WRXcvfZS2mes06oYGjLVxt7mjsductjqKxjeNpt3m5JrOtjbaZe5orDHumXXm3sa+nnbq7mqjlZu20PMb2uiRlbW0aa0RmrNn0u7RY8w5N700pamDmra9RM8/fL+5C9KIxvpJVNs0xgjH0dQwdjJNftvhtPF/rksNRtxMfWIvVDSKpS1ENLa1t9PSZY87y9y81zSzr/Fw528sytiKl/TwmZ6dLbT8npucaU6YafY1nhC9r9Hnnqqtiixo+TTVQp7omrqhETFvBCAa84YSCYEACIAACIAACIBA5RComXiqEWl707S/OZUW/91RNHvqWPryFT+nbff/ieqnDZhDbf5CRx59EN3605+ZA3CGzAE4u8wexlHUb/Yw1psrMsbW11OtwTHYZ/Y0Gktjb8cO6uvjOxnbaMWGTXTP0lfoxY1bqWf8QbTt5XU0+S3HUOeKh6ivt5P2/8C5NHfeLOrcuZo2/+HntObFp81Jq+YY1oZ9zKmqzTRu2gza/vIdqWGLKPTdexgqGuPS0QV88pnnqGXLtj3KffyidzhPUU2yh9EFY405BKdt4/I9fjrgPYsjT1HlCL6DcLRVEZbG1N2wrCJCNJZVc6GwIAACIAACIAACIFAcAsf+ei01TJ1Om9euoa3f+Dod+rG/o+eWPEk1HbuofeWDVNP3Kn30os/SZy84j8ZPmEK7uowg7OwxV2wMUlNDIzWaQ3Bq2au0v9/c3dhpPF1baceW9bR6/Tq657HX6P5Hlpr7HcfSwtPfTY/ft4SmnPM1mjmxm9be9Rvqn7eQ2u5/giaefALtu2A/ml6zira9cA+9+MBSc9jOKBq791vN/shHgkDouxftSL69eD7RKO6oOuMke/rYTfX1LVupu7s7Y0HkA3Bc125IuZOk7QLCbqqtG141V260Zq7cmGEOwIm6dkPS8F25wVeOiJssW1of/fOTia4ACWo0BCo5AhCNJdckKBAIgAAIgAAIgAAIjDyBC/77ebr/dy/T7sMPo0nb1tKOF16n3tbtRiw+Tjsf/yXN2O8guuIbX6ZD5x1I06fvbdThKGrv7aUO447abw7EaWxsotHmjsXBHnPNRl8vtRmxuezPj9MT5hTWDUY0bVn/KnXu9Te0cOHB9PQj99JQ81tp3N6H0oxZY2jFkieot6+B6vaZQ/ULptGYcbXU3NVJo3a9QgNbXqXD955KP/vxN4Mg+URj1P7AJKIxyT7DoAK/Gch1b6TEL8aJpb7rNcQll8tiH4qTpG4IW34EIBrLr81QYhAAARAAARAAARAoOIE77nmBPvizrcbNtI+aB16nVX80h7h0rSXawm6h7TRzzqF0ww+vpRkz9qJJxtJYa+5cJOOW2msE47YdO2iDOfSm01yt0dXRbq7gMPsYd+2irVt3GIE5jta2baEH7nmFevb9W5q09xTa8tCd1LN2q9m7OJ3GHnECTTvYHJTT1mN8W809jm27qNFcSTHKuL3ufGY5Td5rHN3zvY/QkfP9l9QXHA4yAIEqIwDRWGUNjuqCAAiAAAiAAAiAQCiBax7eRN/+6R9px8MPUf1uvjZjCw1uecIcVjNAY8ZPpx/d9n065C3zqa62jhrMHkZ2TTUmR3MXYT+1msNx2jrMyanGytjT00NNZr9jQ/1u2t6+g156bSX9/JGd1Dn7DBqsG09T6rbTUfs30WO/e4LWtdbSXkcfRpNrBmjFf5u7G00ac087jN513sl0yyU/o6svPYW+8A/vCq0CwoEACOSBAERjHiAiCRAAARAAARAAARCoVALLVrXS1771U3rorkfM7Rsv01DXJnMNxiSioVq65rov0JlnvjdzSmpTUz31G/fUmpoaGsVWxyHzpfkMmlNVe83+vdY2s6dx5w4TrZYeWvII/eSRjbT3Gf+XXln2IjW9fA/Nm7aTtnY00paNJvkpU2naqe+mnS9tpqFR3XTIO/aj/3PeIlpgzlJ956EzKxU16gUCJUsAorFkmwYFAwEQAAEQAAEQAAEQAAEQAIGRJwDROPJtgBKAAAiAAAiAAAiAAAiAAAiAQMkSgGgs2aZBwUAABEAABEAABEAABEAABEBg5AlANI58G6AEIAACIAACIAACIAACIAACIFCyBCAaS7ZpUDAQAAEQAAEQAAEQAAEQAAEQGHkCEI0j3wYoAQiAAAiAAAiAAAiAAAiAAAiULAGIxpJtGhQMBEAABEAABEAABEAABEAABEaeAETjyLcBSgACIAACIAACIAACIAACIAACJUsAorFkmwYFAwEQAAEQAAEQAAEQAAEQAIGRJwDROPJtgBKAAAiAAAiAAAiAAAiAAAiAQMkSgGgs2aZBwUAABEAABEAABEAABEAABEBg5AlANI58G6AEIAACIAACIAACIAACIAACIFCyBCAaS7ZpUDAQAAEQAAEQAAEQAAEQAAEQGHkCEI0j3wYoAQiAAAiAAAiAAAiAAAiAAAiULAGIxpJtGhQMBEAABEAABEAABEAABEAABEaeAETjyLcBSgACIAACIAACIAACIAACIAACJUsAorFkmwYFAwEQAAEQAAEQAAEQAAEQAIGRJwDROPJtgBKAAAiAAAiAAAiAAAiAAAiAQMkSgGgs2aZBwUAABEAABEAABEAABEAABEBg5AlANI58G6AEIAACIAACIAACIAACIAACIFCyBCAaS7ZpUDAQAAEQAAEQAAEQAAEQAAEQGHkCEI0j3wYoAQiAAAiAAAiAAAiAAAiAAAiULAGIxpJtGhQMBEAABEAABEAABEAABEAABEaeAETjyLcBSgACIAACIAACIAACIAACIAACJUsAorFkmwYFAwEQAAEQAAEQAAEQAAEQAIGRJwDROPJtgBKAAAiAAAiAAAiAAAiAAAiAQMkSgGgs2aZBwUAABEAABEAABEAABEAABEBg5AlANMa0wYbNLSPfSigBCIAACIAACIAACIAACIAACCQgMGvv5gSho4NCNOYNJRICARAAARAAARAAARAAARAAgcojANFYeW2KGoEACIAACIAACIAACIAACIBA3ghANOYNJRICARAAARAAARAAARAAARAAgcojANFYeW2KGoEACIAACIAACIAACIAACIBA3ghANOYNJRICARAAARAAARAAARAAARAAgcojANFYeW2KGoEACIAACIAACIAACIAACIBA3ghANOYNJRICARAAARAAARAAARAAARAAgcojANFYeW2KGoEACIAACIAACIAACIAACIBA3ghANOYNJRICARAAARAAARAAARAAARAAgcojANFYeW2KGoEACIAACIAACIAACIAACIBA3ghANOYNJRICARAAARAAARAAARAAARAAgcojANFYeW2KGoEACIAACIAACIAACIAACIBA3ghANOYNJRK6/Ior6Pbbf0ErVyyPhLH/ggPosssupcUXXlhwaOMnTKTrrru2KHnF1WvVqlV0+BFHFq08BYerMuD6L1q0iG79yS3Fzrrg+Z108sk0e/aciqxbweEFZhA6fwQmFxlMxuJzzz5D8+bNc4Y97/wLaNmyZbHzmSsy1+X662/I/BSVRz7qgjQqkwD3P/4knU9Hcq6qpDG8ZMkSOuvsD2baoFhriMrsyahVJRGAaCzh1mTBc+cdv6FTTjmlhEv516KFPjDixJWrsvwgPO644+iqK69MxAKiMRGunAJDNOaEr+ojh84f+QBVSNEoi81KEItRbXLTzTfTNdd8Yw9RzXOu/Tn77LMTC598tHG5pwHRGN2ChRzDnHMx1w7l3ldR/uohANFYwm2tRSM/wB999FF68IEHSrLUoYu+fIjGUBbFnPjT1KvcXgyUZMdLWKg0LyDy+fY+tO8mrFbZBw+dP/JR0ZAFp85HxGB7W2tkEXxiKh/lLnYaSUSjz5OCx06pPrOKzTNJfiGi0TWX5XOuSlJeDlspYzjN/JCUFcKPLIHQ+XxkS1l6uUM0ll6bZEsE0fjXxtEPx9CFN0RjCXfwESoaROMIgY/JtlIWnMWsR6FbMoloDJ2TC13mSkkfojG6JdMIu1ChUEneApUyHvJdj9C+kO98yz09iMYSbkFbNLIVq6WlJVva5uZm514bl0jS37kGi05f+/C7rGh6keBaYNj7ArjwnC67NNl7GqV8t912Gz355FOZOka5NIWy4HRcPOLqKg8ju2to60JIvXTXsh9EDzz4IF1yyWeHBYnaN6HLrN2WeYFxxx13ZNOLcmuOq5+04w++f2N2TwcnHOdup1nL3488snRY2WyWLOD4I5aIkDhSybh2lDfuHJ7ZnH/+efSTn9w6jHmo65ykdcIJxw9rN5tzlLuehAvtu8zh4osvGuaO7bLkxDFwLTxDH5b2vjyGZpcnqj/a/Zz38Monbl+Qa/5w9VXdD5m7PZYWLjxqD8uWrgu3B+9XiurTtsVGjy/feNBcpCy6L0ax1Jx0XLst+DeZM3V/cT3adD3i4iQVjSF72nW54uYum6l+7mk2Z511Jt1552/32NYhfUTmHt2v9Dwg8xA/q/i565tP8zmX2m69XB75uPY0uvKVOgiTOXNmZ/fVclr6GRbKIPS5zHlUwhh2jXVmFzWGdRzdn4QLr3tkrpK5wZ6bXHOXPV7y9VxIsp6TMoeUTa+ZfMJev7j1sfWNw1z7buh87ppDq/07iMYS7gFpLI08GNavX5ddNMnD0p7EeJJat259dp8J52P/LgNSL2z04TVxolEWj/YDVwarvTCSh6WECzkwJvSttkvIxNWV0z7pxBOze0k109B6RYlGOXwjxD2V83vwoYeyAkIvgPSDmsPzx7cXNq5+8hCzHxIhh4K4WHM57Lbmh8P69RuyLzxcojEuDv8e0mdlQe1ahCfdHytp6XHEh52I8AgRjbKwinMzd/VvnX4Ig7SiUcapvdDkMvGe4rj+aL9QkfjSZ6NEmqsfs7Cz20/SsecU7f7IC6JzzvlYdrxIf7brIkIkVDRyuyUR21o8+fpiSBvquFIOFlD8YofHuWtOcj3abFYyz0a9YEoiGjk/4Rq6Fz9u7tJzip6LXVx9Lpsy5l1WJN1n5JkU96IsX3OpFgOu57avPfVcJkz083v27FnZdUESBkmfy3bfl3zKbQy7+EQ9T+xnmowDm7fMQfbzg9ucx7A9V7lEod3u+XouhIpGfr7FvVh1rRflWZFENPLLL/2sdo3DfPXd0Pm8hCXCiBQNonFEsIdlmkY06oHAD1l54yiLJnvC8C0K9AI1dJKxHxi+vRUucaHfeMe55qQRjaF19Yk94Rdar3yJRldvsftGHKu43qb7jGuRHeIKFNKucQvVqDepsngJbUctSIVDWvdUjq/3ZtmLzXyKRhdvu9yhDNKIxjSuWXZ/9AmYuD2/uk6+cRbX3/Xc4PI2CKmjzj90keFqG1dfDG1DV1xmaS9KZaGa9FTquLGQVDTKSxE5OTZOPEa1pX65yWnrceFio8ehK86555477ERt1wuZOCusa15NM5f6GPv6v52vTyDruUrXj+OlYRAy9kLWACHp2C/Wij2GfaJRc/XNI7rPuZ6prhdzcVzy9VwIXc/xOI7bwx3VT5OIRtfz1bUeyFffDZ3P49ZP1fY7RGMJt3ga0cjVsePxf/Og50mC30rPnTs3c+2DvEH1LRr0ZBg6ydgPDNdE71rcuMLpN8q6mdKIxtC66oWP5C2TZ2i98ikatTsspy0LMvu3uEWalEkeYnYZpX6uRUyc2JN+py3ILpfEKPEQwja0HX0Ps7iFsmtKCBEw+RSNXAa7nMLffnHhspbqcZtGNEYJBWET0h+1lUZbc1xjWs8frv7sE2XipsnpipU8dFEX0uahiwxf+fSVLbn0Y1fcOL5SR3l7L39HiaM0olHPMVHpR81dYtlxtY30i6gXePZLJi1AfI/9uDneFS/XuTRkbvGV1ycadV/T3im6D7ieA2mfy5Uwhn2iUXONWofY/FzjyBU3bt2Tr+dCmvWcrw/6ntkcPolodF1p5Uo7X303dD731btav4doLOGWTysa5UHCLpZXXX11xjoiFsf99tuPeI+CWExCFy5pJhldfkGt00r7cIpz8dNCJrSuXB7bNVNPLqH1ypdolMWT/cbPVQZ7b1eUW1Vc/SAa95wUQhZ2+RaNnJ6MVW11Ce3LaUVj1NiK648+oRYnanS/840zO5zkZQsTezHmWxiEWM7zbWkcadEo4ka79ka5akedBBtySmyIRZdHm2vuCrW0uRab8rxjd+qQ540e8VELYTtsPuZS31iOszppASHlcnFzica4PcZpn8tJRWMpjuFSFo35eC6kWc9Fica4Pb96PaL7fNTLH5fLaj76LkRjOvED0ZiOW1FipRWNMqnww5QP7lh84YWZhzIvQPk7dleV+w59b8pc7qm27z0D0G/F9KLPtUh07VdM+3BKKhpD6uqaSPQDN7Re+RKNuh/EWf2iFlsh9cunaPQd5uITtS53FJerj6vtXS5YrgVlWksjt6fLPVVcAnU/sd+02g/VUCu5vPRgVhcuXkyXf/GL2X2qIX3ZNUbtBbrP7SjuYRrXH/MlGkMW03Fv631jJWSPZaFFY2gbusZzGktjmjhRoi9E1ISIc3uetOsaanVxjXEu96c+/Rm679576LTT3zPs0Li4lxf6ZaPvYZ+vudRXTy7nokWLIu+4TGtpTMsgrk30s6Ncx3CoaAx9KZVPS2M+nguu9o9bz/nGQdTz1Df/6vyTiMZ89d2451xRFvllmAlEYwk3ml6cuRalruLLQOVN1vzQtA9d0d/JBOQ6HMZ+m6N98mXA2RY5PTG63mzLQQlxboxxD6dQFlqQ8t9RdZV62Yt8cYew3TfZ198O46pXiGgMnQBt8SWWHttFyxYzUWmG1k8f5BEnVF0LLeFmC0S9F4vrYouxkDihfTbKOmgfFsXpxe23E+Z2v3XtSdGiV7dViGiz+40szJctW+a8RD1u3Ia0t2sOYR78WbliefZnHs/8simujvkSjZKO6xAN6VMh85K2jNon7yU5CCdkDDCsUPfUXPpxGgGox5qwi9u757Isu0Q399Xzz/v4sAO44g7Q4rR9c5frgA1mZseJekEmc422pLoOU+K+Zh82FmJpDBlbIS/gXJY2mVviDiFxPSdDLI1pGcQ9l3V9y3UMh4pG6Y+ug3BswZ9v0ZjrcyFk3oxyTbefGdKX9HpRDBMh804S0Zivvhs6n5ewRBiRokE0jgj2sExd7lkiTnxXbkjKeqD6JjcJr/3EXe4GsnjgOCwW+WFsW3x8E6McisDxeJHGb35dV26wRVQ+cQ8nWejzcehRLEJ84nVdZUKVssjx/Pokybh66VZ2PYhstyyfy4XE0+WRcssCQ36PW2jE1S9koePqwS6BLlesyHUxumwu0RgXJ7TP+h5Etmjg8nzly1/K7PON2vAvaXHecrWJq9/FtZWUPXQcuxaUNvuQcRvX3r7ZyB7vHMa1h1a+51NO9e+57mnktDVP/k63U9y8JHOf7HmUF2f23m4XA1f/sceaT3AmEY2cb1wb5svSqPNiscjzd8hJwnqOcbWDK0zcMf1xc5c+Wt/uh9KuLksj/yb93tVO9rwrba/d/+Nc4Ow8fM+K0LlU93POm68q4o/ryg3JT89lHDZENHL8NAzinsuu+pbjGE4iGvX8wn/rFzH5Fo35eC7EzZuhotE1T+txb89xrnkniWjMZ98Nmc99z8dq/R6isVpbHvUGgQITCHlbr4uQJk6u1bD3iOSaVr7jJ3Xvy3f+SA8EQAAEQKC0COC5UFrtUU2lgWisptZGXUGgiATSCMA0cXKtEr9tlL2/uaaV7/j8tte+UzXf6SM9EAABEACB8iKA50J5tVcllRaisZJaE3UBgRIikEYApolTQlXOe1F8J4jmPSMkCAIgAAIgUBYE8Fwoi2aqyEJCNFZks6JSIDDyBNIIwDRxRr6m+S9ByMFK+c8VKYIACIAACJQqATwXSrVlqqdcEI3V09aoKQiAAAiAAAiAAAiAAAiAAAgkJgDRmBgZIoAACIAACIAACIAACIAACIBA9RCAaKyetkZNQQAEQAAEQAAEQAAEQAAEQCAxAYjGxMgQAQRAAARAAARAAARAAARAAASqhwBEY/W0NWoKAiAAAiAAAiAAAiAAAiAAAokJQDQmRoYIIAACIAACIAACIAACIAACIFA9BCAaq6etUVMQAAEQAAEQAAEQAAEQAAEQSEwAojExMkRIS2DJkiV01tkfpOeefYbmzZvnTYbvIlq0aBHd+pNb0mZVkfFuuvlmuuaab9DKFcuLxi60zfIFPDQ/7iOXXXYpLb7wwnxlTbrf6Tsji3mHZL7yLmaZQ/pn3hrLkdDlV1xB119/Q+aXuDmmkOUISfukk0+m2bPnYI4LgVVlYVZv66Xjv/kKXXXWTLpg0bTY2s/6/HPBYWMTiwiQNp+3XfkSXXRKc1Bdcikf4oIACBSeAERj4RkjhzcJJBEEEI17dpuQRXm+BXdom+Wrk4fmB9EYRrxaRGNovwmjVvhQhRKNLJxvv/0XzhdLrvlDuNk1vu66a/P6MqbwNEszh/fdsJye39BNt35iHp180HhnIUUgvu/QifTDj++XCVNtonHt+k30pyeeoYkTxtN7Tz3B25gPP/o4bW7ZSqeffDxNnjSh4I0u5Trng2fskZeURX5IWqaXXllBL/zlry9/Gxsb6Owz3r1HPnf8/g/U29uX+T6Kj6+sO3e10b0PLN0jXVedCg309t/8no59+5G07+x99shKyi8/7N08nd513Du8RcqVS6HrWsnpQzRWcuuOYN1kMdLe1potRbkt7EYQnzPrENGoI/Ii8tFHH6UHH3ggVXWK3Wah+eUqGllM3XnHb+iUU07xcsmXtS8N+DR5u+pU6qKRxdNxxx1HV115ZRpM2ThpxkZOGSaI7KpjKYhGZnbJJZ8dZpXl8ffgQw/l3B4J8BQ9aK5zYmiBRTTaglDH/eRP19DdL7RSVJi4/NJaAOPS1b+nzSfO0mgLBp/4ssVPUoGWtJ5a0GmBxYJxx67WrMiT8EmEGIseWyT+7/2PZIppi2YOM2XSxKx44r+bGhuHhYkra5TwTcrFDs/lnTplEr3jbYdFJqNFq0s0Pv7087RqzXoK5ZcPLrnUvdrjQjRWew8oUP0hGvMPNs3CONcFUqiIy1dtQ/ODaNyTeDWLxigLW776Ztp0SlU05kuwp+UyUvFynRNDy82ikT9sbdzwzcOd0ViIHTZrNM2a3JC1NIamL+HSirli5RMqGtmS5hMiLCy279hFrW3tBbc0skXs0IMPyOBha6AtZkQEafETKqJ8zEXciSB2CVEdhtOKKiv/znGefv4lpxUzafunEY3MZczoJjrskIMyFk/NTXiGvgjIF5dc6l7tcSEaS7gHnHf+BXTHHXdkS6gtI7xwbmlpyfze3Nw8zCVJ3mTzb5zGWWedSXfe+ds9rCvytlksgqtWraLDjzgym+fZZ589bN+NWC54bx3n7bLW6HJzYrzHaPXq1dk9jXYeF1980bA329o6EsdBCut6e+/6zl5cS/0ljYULj8pa5Tguf7SVLs4F1G4Xjm8zskWRzcDlEsb5P/nkU9n25T18cXsabXa6HLqP2F1fc5A28ZVXtxmnpdtJ9x3+nT/2XlX9csElGrULHbNiDnF7Gl39ZvWaNRnriv0R9nHWvTirnfS1E044flgedvv7hL8WfHFliWo7/k3X6bbbbsv2JbuPSzqaVciewJD+6RsLep7hckh/cf1meywMazzzh85D6qfnQLvP6jh6/Om4nKfEt+vtGgdSvqg6Svpz5szO7sPkeLqecfOxZpHEPTWNtVPGIvdp3p9ul1nPIa45jfu1fLideF+nPSeEzBEcPo6Lbz5LMidqtkn/ZtF49Nxx9Njqjsy/v/z+4W55X71rU+Y3Foz8EffUB15pp/N+vIqWfv4gmjutMZsti0P7I0JUROMvn9yREaj8YSF690VvCB/+iMurK74vjLZ+hohTKbukyfsyb1jSErmnUcQQCwp2U3VZnEQcsYizBYa2tNkunC7rHZdLW6p87RoqUDi+iNoo99qo/qMFIVsz+aNdNIXDIQctGJacz9rJ3y9/bU1i0Wi7f3JGIvZc7q5xrqQc3ye2Q7hxneftNztj1cwXl6i2wG/RBCAaS7SH6Ic/P6z5I+50LmG1fv26YYKHBYf94Pa98Rb3MNeCnR+y55zzsayok4d+3KIyytLI9ZDFkTzc7YW1Xbc4Dnbz+QSwLZa4XJ/69GeyApuZ2KLQrq+rDrJY8dVfu3fpMtkCSDOw09SCVfKNEn7MQveLkLfqrnbneOwyGFVeu824vOvXbxj24oJZzp49K8s3ZEGoy2IvUqXvi8CJ2nsV129CrHJJhBuzFzFhi2U5nEXathCiUcaAr078u7SV9CNb7GjxoPusa4oM6Z9xY0GYafdUZnbSiSdm5zpub3tuc5XHJZakPXQ/YU52G/mY2POn9EMefz/4/o2Zsrn6po+VrqOUTQtZe7yEzMc6vySi0RZeUaLczsPmYB/IpfOVtPW8btdXxobdFmnmCC6fa96251OZzzhsyJyYj2WBiMbjF4ynf/nVOnr6ikOGJcsWuG9/ZA7d/sT2zPc+0SiC7x+Pn54Vniw4RYSKmJS9k77wXA7ZW8lusRt29mWFpUuocvnOPGLysHyiDueRNOw9nOJ+GxXPduj46KQAACAASURBVKFkoTdn1t5kiyIWPus2bKZjFh6RsVbZopHDa5fOmXs3ZwSGyzUziWXLJcR84ofFTFd3T+SezKg+xeJp4+aWrLjzWS5ZzEn97PR8olFcP+2wcW6gzK1l67as66kr7aSW1TgLrViRuZx6f6ctGvPFJR/ju1rTgGgs0ZZ3PTylqPzQW7du/TCLjRYzLiuZXrC64px77rnDDkHQcXjBFfV2XcoYJRpdFlPbamQv1qM4uJpOWxEfeWQpLVu2LLvQi0tPLyi0G2SaBYddJt9C087H56IZ4oKXRjRGub3mUl7dv9IsCH3WkDirX1w7F0o0cp90WablxctIiEY9Xm02+iWKjKko999c+6d+2RC3p9E1l4SIJdcc6BtDul1ccfVLEBErcRZv38s63VdcZYibj0M4SBhf37Mtp3Hi0Tcf8HjSL9Lsfubjrsd3yBzBcaK4xLnxp5nD0ywTRDSyuBOBKKKNBda379ucEW0srKJEI6cT5b7KotEWlJyWTlOXXwSeWCs5j48unDLshNNblm3LWAlF7MZZGn3ljItnizsRiLYQZKFw8IH704Tx4/YQjbpe2nLFIuuA+ftlRWiIZUvS9AkxLk9Pb29W4IUe5OPrQ5KP7bpZKHGU9jAhfYhNvkSjWDTZHVheFPgsxMyvUFzSjO9qjQPRWKItb1t4tMiyH/K6+BI2arEtYfTD03Yd0unKYiJusR4iGvXiwmXNFOtAFAdX09kLNP7vy7/4RfrJrT8ldgNjy5lrMax52u57LhEplgZf19HulBxOmPsW3DaD0IWtTzTblpXQBZK0vRYYoeX1HbYT9wJACwKdn6+/xe1pjOs3hRKNrmsU7IXwSIhGbWmzLXf2NRW6P/leDiXpn1FjgfNzCSr+3lWuKEHjszTq9vDlp/uda/50xdVzV9ycJL+70tcW3pD5OB+i0S4TW1ejDohyzQeuNpY0tauwvkZJi8QQ0RjCxTefSd9KcjhY1PPWntt1W9iikQUYu4+Ky6gt0uJEY5zocv2uLYlcNrZO/mjp1mHFtF1cfc8z7QbruwbEV87QPY1iAWMh8bbDDsmcsmnvyfNZCVlI8F5H+dguqi4RKWnHLf2iDrix85S9mGwtS+qeKunoPX2FFEc+a6XNQ59myr+FiFofU5+l0eUq7Nq7KekWkktcf8DvbxCAaCzxnmDvzRCxFbIXxReGH8o+ARUiCEPCMNIoS2MS0SjN4+LgajpbJHFZeaHJcXlP18033ZTZrymLTymjdpmyFxRiLeM4PquMXQ5ZYNgLXJelMYqBT+jFvUHncqSxNEr5bXc1LdrTlFeXJ2RB6BKNrkVsnGiM6zcQjW+4sodYr/U4C+2fcWOB03UJMW4b+8VNLpbGcheNSa+/iJojQuaPuP4QJRqjtiz4xHpa0RjCxTWfcZ8LfZGW69LAFo2cFosq3qfInw/duDJrwQsRjVHXdoSIRjlwR0SrtjTGCVMpf5SbKafhKmdS0chCr9u4evJ+PraMTZs6OWOF0qJRxIXsd+MyapEocViQJj0UJsmpqEktb1xWtt75rtEo5N69uLKKkLXdWAtlaXSVxScwmVkhueQ63qslPkRjmbS0LQJD9vj4RKMIn/vuvYdOO/09e+xBs/cvutCMlGiUssQJZlko8KKCXVP5zbb9HYtHcR90LR5cbMUdao05RIU/UdcDaDGi9/aEWO58e8q4bOxqa+8l0m2Ui2iUtOyFY0h5fYt6l3uq3pvm2/MpC1CXJcduz8UXXhg0gnW/KZRo5MK43FPFhdHVtr79X/bCOGTchdSJy2f38ZD9ixpwaP+MGwucrhYTrr4UUsZQS2MSwRsiOAtpaQxJW7eNb7xKu/O/tbXPTiNOWLrSd/VfXS7fM0sfKuYKp9s/KRfdN0ZKNLKljz8bd/XRovnjsq6gcaJRi0/NNk40aoHI8dnyefmdG7Onuur9i65JNU5YutIIuXPStfeQRQpb3x569LGsG6gWjS5XU9feQtkn2dn1xiFBcddESN1DRWOSfZKSdpy1z3WATdT1GaFl5fx9h+lI2bRAdIm4OOGp+0+Sg3CiLI2F5BK0kEAgWBpLtQ/wYsp3QIvr4AZZgEmcKHEle3P0XiLXoTS8SLDv7QpZvHJZXAuJEAHCce08ojj42o7rxx97rxGnwwe12N+JC5y2POrTJcVSyfFZbM+bN8/bbbjs+pAR2+UrCQO7HNI2SQ/CCV1w+w4eCS2v8LUFrV4QuvZDiRuZbgMRjdJGtrVRTkCMsjbE9RvXwlP37bi/dScQy5pdLjm0R1ueo/qIHgOuv10dMKROHE8vzF179TQ/nZ+2Brr6Z9xYcJUlpI+46h4qGoWl6yAcfWhYvkSj70WUTl+P1ZD52MXCZeGVtGxrILe7fgGlx6xO3zcfuPo5t4nMK65nlsSx2yKk/eO42Pm6+phrTmRm/El7n62rHVxij4UVf+xDceJEowg828qnD8LRFkDbPdV1QI0cniOup5KHbSnkeEtXtAcfhCPur3YaXN8t7QMUehCOcBRBaF/B4RKN9v1+vr2Fsk+S9yGeeNzRNHnShKBlX9ThMrbwtA9q4YTjRGTo3Yk63SihGbX/Uu8PtfdjukDofMXyaLunJj34xyca5Xt7T6N2WdXlyQeXoA6AQE4CsDSWaMfQR+Dr6wtcx7nrAyZc+6u4urIQd7kT2W6ggkYveENcg+RhLVeG6Cs3bOEVtacxjoNvAXn99TcMO77eV2d7vwqLNBbSrv0uepHs6zZ6f48cTZ9kT6Okbe/d4fbnqxySXLkh6YjI8glO3eb6tFk+Wj/OpZjz0nt/XHvi9F414eMTjXZ/lfpwWdhKHnUASVy/seuc7ys3uJzS713M4/oIx08qWDlOSJ1kXGqLr76KIOSwq7j+GVJPex6TOS6uj/jG/O23/8J57ZDLsqb3xbn2jedLNLrqGLKnUbepaz72zUO6/3M4vSdUtzmHiWv3OEumfUWUfvmm+wPnxQe68cduo5D2j3pORc1nvjmxWKKRxdzMSQ3Drt+IE41cZn2VhX2lRpylkePr/Yws7PhaD/v+SBGOdp+yf4+zNLryYXdcdsW96JTmYYfs2HlEnXLquiNRn54q+xmj9hZGuYL6xpBPiMlhMhLPFjz8neswHzsPfU2I/Zvtasvfc7nlo39zpalPRtVl9bnDutpDvpOrUGzRaF+9kcuVG5yHvsZDp6dFYj64+Noc38cTgGiMZ4QQIOA8QAdYQMAmEOc6DVogAALDCcSdcgxeIJAPAvoU1Xyk6UuDhdpoc6F9qBtsIcuCtEEg3wQgGvNNFOlVHIGQA3AqrtKoUGICEI2JkSFClROAaKzyDlCE6ic9ACfXIrFATeIGm2t+iA8CxSQA0VhM2sirLAn4Tv4ry8qg0AUjANFYMLRIuEIJQDRWaMOWULWSHtpSQkVHUUCg5AhANJZck6BApULAdVBDqZQN5Sg9AhCNpdcmKFFpE4BoLO32KefSyX6+kD135VxPlB0EikkAorGYtJEXCIAACIAACIAACIAACIAACJQZAYjGMmswFBcEQAAEQAAEQAAEQAAEQAAEikkAorGYtJEXCIAACIAACIAACIAACIAACJQZAYjGMmswFBcEQAAEQAAEQAAEQAAEQAAEikkAorGYtJEXCIAACIAACIAACIAACIAACJQZAYjGMmswFBcEQAAEQAAEQAAEQAAEQAAEikkAorGYtJEXCIAACIAACIAACIAACIAACJQZAYjGMmswFBcEQAAEQAAEQAAEQAAEQAAEikkAorGYtJEXCIAACIAACIAACIAACIAACJQZAYjGMmswFBcEQAAEQAAEQAAEQAAEQAAEikkAojGGdlt7RzHbA3mBAAiAAAiAAAiAAAiAAAiAQM4EJowfl3MakgBEY95QIiEQAAEQAAEQAAEQAAEQAAEQqDwCEI2V16aoEQiAAAiAAAiAAAiAAAiAAAjkjQBEY95QIiEQAAEQAAEQAAEQAAEQAAEQqDwCEI2V16aoEQiAAAiAAAiAAAiAAAiAAAjkjQBEY95QIiEQAAEQAAEQAAEQAAEQAAEQqDwCEI2V16aoEQiAAAiAAAiAAAiAAAiAAAjkjQBEY95QIiEQAAEQAAEQAAEQAAEQAAEQqDwCEI2V16aoEQiAAAiAAAiAAAiAAAiAAAjkjQBEY95QIiEQAAEQAAEQAAEQAAEQAAEQqDwCEI2V16aoEQiAAAiAAAiAAAiAAAiAAAjkjQBEY95QIiEQAAEQAAEQAAEQAAEQAAEQqDwCEI2V16aoEQiAAAiAAAiAAAiAAAiAAAjkjQBEYwDKK7/xHVq7fmM25Dkf+gCdetLxATELG+Skk0+m2bPn0K0/ucWb0U0330yXXPJZeu7ZZ2jevHkFLZDO6/IrrqDbb/8FrVyxPJOv/rughUmY+PgJE+m6666lxRdemCjm/gsOoEWLFkW2QaIE8xjY1fZLliyhs87+YCaXNPXNY/GCkzrv/Ato2bJl2X4UHNETMCS9VatW0eFHHFmUcZNrfaLih8wR+czfNR543F9//Q2ZbIoxD+WzPiFppZ07QtJOEqZQ5Sh2H0pS53IMG/ccLOYz28cPbV7cnqXbXPPPR3vY84OsA/I5H8szU9YVadZ/hZrDfK1Z7PyK26sKkxtEYwzX11u20kNLl9H/3965xlxaVXf8+dCqgNzFEWFwZgwUpXKXKNMBBCwqtjpeIimpNdV6SROIplEasU0LpmgbjaaJ2iIohoZGy2ArKIrcpjMmiKioSMHCODNAR5TLUEVNP3TW0XVc75q1n733c55z3nP5nS8z7zn7+tt7r73/z9p7P+e87lWDkHd+9/vNRz9+WTNO4WgX9lHx1q9fPxApJYZkkhMQonE8g7RrqlHbz6KRLBF5NYxK0kM01hD9TVgvGsexOOlWsvHFmpYxNa5ylMwz46M7fykjGuevTUetEaLxVwTHZcMQjaP20N/ERzR2YCmex8Ofu3ooJDskURUlNZCmfTLv8qSpCkyPgT1jKfumTZuam268scdcljepeRFCk6A4i6zEHqxdu7a5+KKLhoiW20bIYuiSSz7Qm5d4Em1fm0efC52oDaPySJ7XbLi6OeOMM4Y/91kOm+dy96Ha9pj28DnROOnyT6PdmDSDmvxKx2hNmj7stHsa9WHgEzsfT1azy/pvXDZMBemkbOYobT/tcRGNHVroXX/5t81JJxyDaMyw62I0OjRHL1EWQTQugtenl86wKxFEYz8kp22B3E+tlqbS50KndEGKaBxHS04mzWkbE4jGunYvHaN1qS4NjWisOyZUwnqSNrOkPLMaBtFY2XJXfe7zzQ03/2dz6T/+fWXM7sFznsbDDls5PDMkudinP9EEJVvIduzYMSxQ9LQoEhjRd9YjlxOJuclS05enQXruTsumi3gttG7R1b91e4f+ff755w08LilPhzcglrHns2LFiqSnJHVOQM7D6afk7KDP0z4Rs9xr0rW8ZUvmhg0blnRCYathLrjgPYOzryeeeMLAu+p56veagE5q8remq8zlt9tv/8YgqH5nM/Zp5/ikJlDb76M2SvXzyHNiz91JWbUP+jMfNs22fqH19dw9D+0/V1555ZCZ79uSlmdm8/ZjQ8L7LextNkLC58aXllO8hmI7/BNbrW/bONI+lEqrlJWWQdtJvG2Spn6isvm0+zzLo/W59daNS8aYtauSv3zs+XP7tL6tDdvGjvym4yfqS37cRn2pdPydcsq6gY2IONfYbolv+Ufzm//OezZ8e/o2bxun3nZFNkrK2NXGRW3ZNidr3XRMp+bRT3z8Y8N50TO040//LzZAP9G9B5OwG7bvyv9T8438lhuj/tiOtJvcmSBzl9xFkHrQF4m83BwU9a/Vq1cPzrnbT2Sr+1g7dRGNpfZTWJU8QPb9Q21JtJaQ8Xz//fcP+qeO7dx60PcN+bvElkq43Hy13DYzqtu8fIdoLGjJG27a2Fz1b/8+CHnc0Uc1f/7WNxXE6i9Im2iUxbmd9GSyXLny0OG2Sj9wvTGS3+12NltqSeucc94w/F2NhV1kSHrnnnvuwGjnjESpaPSL8cjA2bKlxGxX0aiTW8n21Eg0SnxdJJScKZXy33TzzUPOGkfTsJNlTbqed4qTXFLiJz9pV7s11/cFFYbaF+zCRxY3spC3C0ndRufLpMY/JUKEZTSBRv3eXkjU1s+j34SBXdjporNtcSvjYdu2ra1bmC3HqK4qdrT+/jIB7YtSPlsWHYu2zCmPQc5G5MaXTubyb05sRR57exlWW1qlrOyiRLhYe6Hi33OxF4b58TWqpdY29HZx27btw4dNOdGoZSj1YqSemks6vi/Z+aHr+JM+ZG2Ecta28MJH66PfWzbKX8vpx5H+7vPbunXbQHRHdk3yUxvj+6BP39uuVPuPYuNectppw/L4/G35dby3tZGytg8AonPZUm+fTmTbfX3HaTd8XlqXaL5pG6PRXOLbp1Q05sZArn+VjNFR105dRGOJ/fTzdZs9j2y5rhWj7al+HsmtB6NxV2JLS+arVNrR9tRx2MxR55Rpjo9orGwdFZBnnvZ7U7E9VYpvF/fes+YHrhgzfTKXq7r1IkpYNYQqpryRzhmJUtHoB7YVplpmW8+2c1NdPI2jisboqXcpc62fXRRGE6a2R1u6NaKx7WxCxEPaxPc9/8AiKqPUy09U0YLa9s1oAs31+7Z+7tOLHspEE6AuWrVsXbaw+gWHX+hJ2p5H6qGRr2Nq8ZdjlRtfEj8qZ2pitgIhGvOlaeVYRQtu3ybSjm97+zt22ylQYwdzdjKqj39AMCnR6L1mUV/qMv58H7LzgSwkUzYq8ur7Ph55EdUzrnbJtlebvZD+lhunke2K2rirjfNp+frZMRH1nWge9Q+1cnOvliHF39vX6Cx0H3bDs4ge6pSM0VQ9rG0sFY25OahkPvK8onrah861a6cuotGXIbKfpaIxN7eNUzR6G+Ztacl8lZqbItE4DpuZmzNm+XdEY4fWE+F43Zdvaj70d3/VIXZ9lDZPo3/lhn+KnpqApBQ5oWANg/z/4ve/v/nkpZcOtmhI3JxAzYnI1OTqFzV265mPo3XQMN4ALIdojLY0Wo9t1AP81hsJowYutZXEP82MJi7r5Ul5Gr0nyC44dJupfGefdEeTeCRaIo9wVP9oG11q4RPlHfV7fc2D7+c2foqtnzT1qXZU9jYvqYT3/df20WhsW89ENDm3cSm5CMezKh1fuW2MWtcS0ZhKq5aV97j5BYbfdmzbL7UtMdq2V/NEXvPICZ2obUu8GMq55FKHqC+NOv40vl1cp8ZR5BGV+H5usOHk/zJmhZ/sWtBtgd6raW1kymbZuiqvEiEl8brYOM0v6ndqh7Tuss076oMl82a0kI5ev5UTQFrPcdmN3JykfUFttQ+vfEoenJWIxmie1Tx1DrJhItteMkZHXTt1FY2l9jM1Xi1/nfOiuXmcojGaG6wtLZmvIhuX2p3h8+vDZkb5z8t3iMYOLTnLotFO+HIWLXcuSweabJ+UjzxV1sn801d8ppEnwrplITfZlXoaI9FYsmC1iz0NPwuiUY2zFTeRp7FWjJZ6Gr1o1AnBb3WyT067LKhKJqpoOJZMoKkth7qN0/bzSDR6YRmJxtw7UaMFkiyG7MKj7emvHZu67XVSojE3vlKLNl/naEtTtD3V56eL7FpWJaIx9VCkg+kPo5QsaCflaSxZAOW2GPtK1ngLI9sdLby9bdJxIds65eGk7J4RZjK/rFq1qpEzv/4ma3suTfMtEYQlYUYRjdIf7EI78jSKXZAwdguzFZy59xtHojHyfo1bNObsRqlozI3R1MMHKyZqRGPJGIj6V0pkt4mULmunkjnP5llrP2vmYj2qYbcUL7dorO13wmoU0VjSX/qaT6Y9HURjpoXk4pvT1p3cPGvFQYOQ8t7GCy/6YDMt21NrPY25RZ7/XSduMepfvv5LzZo1a4aTuXyn59ck3rhEY86j1jYxRWIidbbMe0i6nmmsFXe5he+kPY1+W7Lwjc4F+b6X8zSWnF/sWzRqenZhbyfkVJn8WdSS84vRYtsv5HxfznkaU5OdfF+6PTVnI0rG17hFY67vKAe/WMiNnb7PL6YWh6ktVWoLov4Tla3Ei9F1ATTK+JM8vWiz/S9lo1L18WJGWIgwlL4qF+7IGXn7nX04GY0z7eMl43ScojFaTLft/om29OfmUal/tP05Ol8t6duz3in72sXTWGI32uZm/a1kjEZ5+fPfqf5t43YZA5GAy21P1TlT+m2XtVOtaKy1nzWiUeriw49TNOZsaZd+N2mbmZEVM/0zojHTfPYSHA16zmv/sDnzJesm1vB9bk8V46KTf4kBVU+dVPYH994zqLOeQbDfyf9zk11XT6O/OEHLoJfHSLptFw8IP2uI1LNnn4B7xiUTmV/IdhV3ufJ1Tberp9GfO9H8R92eqhOpeLj9bYK2/doWhfJbyfbUtn4eTciyDTe6qVcX/dH5OS1L6l2eko989HflWrM9VcdVdBHO5s2bl5zVixbMJaxy48v38zbD19XT2JVVTjRKWaOFue0foxpy3S5lHxb5PHUMeZsjeftbVnOXK2md/Jb3kgcQ0QVK3n5G40/GhxXsPp2UjdLvo4twLC8dX7IjQB9Oar/z3/m2i0SBX3jaOJMQjW3tHG3NtbY1N48KFz93R7tDtI2iGz5tG4/Tbvi+lFoD5MZoZKPUA+YvoMrZ3NwYaOtfOoeVjNFR1k5dRGOu3tY+5ESj/N52OV+0dvRplvRj3z9KbGnJfBXZ9EhsjstmjjqnTHN8ROM0t86vy9anaFRDq9UucfN7UaOTuZ+Mckaiq2iU/OxWES27v0lUv0/dvqq/6+sU2kSjLszk3EmXV26IR1Y/uSdj/pyFL9+kRaOUW4W1/F8WNPJkddTtqcpDJ239u+08o5bFestKhFBbP4/i2/rqIlXO7kYLW2syas4zykJWGNqn1CWTluTnz0hFzOz2bP/KDXvlfvRApG186XgvtRVdzzTasyqlrEpEox3L2nap84xdpgNtQ/sqkGih7ttQx7kVjVEbRmWy7eVfuSFeOjvW/AK36/iTNPX1OiU3XGsZonNk0Xl6/+BAx77fwunL71lHZ1L9tueSreYpO5HbPZBrZz8P2vKKvbns8ssH3il9SBvNm22Ldju3y2tg5BO9ckPDjdNu+L7btgbwNtuP0YirXHLlL4PL2REpU9sYqOlfOUHede1UKxrVRlv71jbX5ERjybluy6nvV27kbGluvlpum9llHpmVOIjGWWkpygkBCEAAAhCAAAQKCZR6VQuTm7pgfd6CPHWVo0AQmEICiMYpbBSKBAEIQAACEIAABEYhUHoWeZQ8ljMuonE56ZP3IhJANC5iq1NnCEAAAhCAAATmgoBsN5TbzO02VPEyRrezzkWFf10JROM8tSZ1mQUCiMZZaCXKCAEIQAACEIAABBIE7Fk+CZI7Kz4PIBGN89CK1GGWCCAaZ6m1KCsEIAABCEAAAhCAAAQgAIEJE0A0Thg42UEAAhCAAAQgAAEIQAACEJglAojGWWotygoBCEAAAhCAAAQgAAEIQGDCBBCNEwZOdhCAAAQgAAEIQAACEIAABGaJAKJxllqLskIAAhCAAAQgAAEIQAACEJgwAUTjhIGTHQQgAAEIQAACEIAABCAAgVkigGicpdairBCAAAQgAAEIQAACEIAABCZMANE4YeDzmJ28H+rDH/5Q85Y3v3keq9daJ3mB8u23f6NZsWJF84N775nq+i9yO011w8xx4WblPWrycvRXr39N8+1vfbNZs2bNHLdIXdUufN/7mquu+tept21ttcr1wfvuu6855tjjxjKH0a/q+ts4Qh/67m83F7/6kOZNJz+jt+RvvPuJ5o2X3ddsfPeRzepnPLW3dEkIAtNOANE47S00A+VbVDEyawuqRW2nGRhCc1vE3IJ9WirO4j5uiVmzcVEtcn1wFkVjW3/V+vgHIPqAUxmN40GnCLQr/nRNc/qRe09saEue/nP0oXs01513xODrRRSNt2y6rXlox8NLsLz4hcc1z1n57LG0i8/v4BUHNaeuPWmY11VXX5vM96zT1zX777dPtlyPPrazuf7GjUvCRXF9Wc55zdnJtKVcKS4/3PZg87Wvf3MY19cpW+A5DYBonNOGnWS1FlWMvPFP3jTAfMWnPzVJ3EV5SZtcs+Hq5owzzhiGX9R2KgK2DIFkEbd27drm4osuWobcJ5NlbsHeZyl0If3Ezsdbk43CIRpjZMslGiP71bWvTKoPTrJf1YpGYXDyyScvmavE/tx0441dsYbxlks0tgnVRRONIoT23Wfv5uVnnjJsIxVctcLnizfc2hx4wH7NSccfnewnIq62bN2+m0hcs2plazwRd/Kx4rKtM0pZXnTisUOBedsddzb3bdnWWFEoaT7y2OPN+rNfOkhKBaQN48VnJBqjtEcdKJLmTx55bEm7jJrmcsRHNC4H9TnLc1HFiEy6K1cehmics/48qeogGvsljWjsl6ekhmgsZzqtorF0XJTXNB0S0dgHxe5piLDac4+nhUJMxVKNx7FENEalFYH0wEM7huLNh1EvXqmXMUVEBPILnn9Ec9SRhzep+tkwko4yOvqoIweeS89D0xm1bL7MiMbu/ZqYhQTEk7Vhw4ZhaOs58r+df/55SzwWKuQuueQDzY4dOwZpaHz5TT/eGyXf+7Rz53w0r1tv3bikvPaJvy4+LrjgPc073/mu5sQTTxg+5fT5rV+/fijEokVL9J1dgOv2HK2jzUu+u/STnxyUQT/2PKZOsMJFzjjJx3sufPoSRvl77so3iuO5jtJmWhdfN/le66fpX3nllYNzmPLxbHJ8oq7bxtuXx+fn+4Utk/z2kY98NFlOn6/tN6khpu2b6hvyRF7Hi2Wn4SOvhZRz06ZNw/6sdfrExz827EMSX9s76gtadn0QIeFl7Eu/EgZ+fPe5pS4qTzR2U/VRxomaAAAAGOtJREFUNp6t9DuxPzLmU+edrcdEzpVFY9KyT7WNtyGWt+0LqXD333//8EyjLYfnLmnV2kc/Bnyats/5LYO1/cHa89p0I493ZGt9fVLbHP12yDZbqP2tzX6VsB+1D8p51tz4jWzLpPtVjadxkl70nGj81OYfNxde88AQYXTW8PiLvtf86In/G4R55t6/1dzxvqNS5nzwfS7PyNP41s9saa77zm92JNiziX/zHw82n//Wo80/vP6wwblF/dgw9kzjaz/2g2F57bZYiXf/j3/RrPvg3UvKv/2Dxyz529ZXfvBeU1/WlFe1RIiJ5+1nT/58ibfLb8MUL6V49PxW0BovZU40tonb1sZ2P1pB+L27723u+e8tuwnVVF4pkdlV3PltsdbTuuHarzS/+MUvh6V/6lOfkhTUNfVfjrB4GpeDekGefrIWwy8f3W5ot5boos8uGFQY6kJVF+B2gtfv7ALRe890Em/b8qV5WfEl6Wzbtn14gYLm5Rf2PpzUURY7K1ceOliER3XTxZAVXVIG/dt7PiVvXRB5rj59nWBLzntEnkbPXeqjaVo+yrWPNou6U2p7qoT1ize7iM3xSeVl62Z5+y1Q0nbnnPOGJe0hosj2Cym78Lfh5Dtbzmgh5NP2ZY2Y27JKHrYc2jdsvqWiUerkH4xs3rx5yYUikadRF9qepxWlUi+piwiyPi5fEgYvOe20oW2RBfC2bVuXiOBcfezDFrVRupBuuyTLLvK9cPDjO9c2pR6VNo+QsPXlsGO01j5G/dT3OcvHsy/tD/7BhbeBJelGY9vbA7Xjtm20ne0cYW242kCdv3L9TcJF9ivHftQ+6OfK3Pj1vJa7X2l5ojON2kbRQ5CC5UhxkDYBp2JMRaAKKiuCvMATwbT90V8OzydGBakVja/46D3Nofs/pfmnP141SE6FrIo5Kec/b3y4sQJQynH7lp8OBayKRolvxaSU5RUv2HeYtqS17vC9h2c8fX0knY33PtH89R/86qxhVBYRsMpMwssnOjOaEk2WmQ8jf3/nrnuWeNtENOl21K6exjZRWCJuSzqcTycl9iKhLOmnRKPWWbaSPr7zV7xLRJ7E0y3BUdpdxWgJi0mGQTROknZFXrXn5fwC1C+yowWwn1xk0nvb29+x20I0dybE5yXV9GIsEqipJ6C+XN6L+PtnvWxwPuOww1YOxIddQKcuAVD0Vlzqd5Z1tPBINVtKNPqJObWN1bdxlzZLlS0lGn3ZojJ4D2hbX8zx9uWLvHIiSOyCM1qE+jII03PPPXeJBysnpNq2Uae24fk0a0SjrVPEKSUahZk9a1Qat8K8tAb1i99o7EZjNNqqndu6nhpvlnNp2/QhGv3OC1uOLvaxrU9KvbZu3bZke3vEtaQ/eF5d0o06hWefas+S9kp1uqjdvP0qYZ+ys6V90IvG3Pj19WkTjX33qxpPo5bTPqAZl3hsE3Dym79tVESUfETAicB64LFfDgWXfK/Csu2W0ugiHOvBtEJURNdffHbrbt5L8fadd8aKwQ2rKhqtR9CXQ0Wj9/p50ef7iMbz3kYbzjK0fHL2vUSUqEjUM35+66bPo4tojM4R2nRrzzJG9VZRZr15fYlG9QrqtlfJXzjIx54TzbWHZ1fSPrk0p+F3ROM0tEJQBmvgoy2kEsVuM5W/7UQQTZR+Ik4JuwhJ2yTTdSHhBYTN16Zpw8n/5bNq1apGtlnK4joSFLL90m+F9FuXbH4atmYrT0o0es9KJOAk75IFWa7NUt03JRp92awHooRPlJ96Q6KtrhLeb1Oz4SJBEPUL7ynxfd+WK/KK59o1db7QxysVjf41BZHHPCUaI/EVbb9u8/7nttn6dlRhGHGM2sjXp8QGRH0n1S7Wa1zaNn2IRv/AxJYjYqR1ytlHb5+jcWH5qM1PCSHLxNfbj7eadKN+oX25ja8tZ6rMNu22/qZzm533Stj31QdL+ntbX7bjsqR/l9TN59dFNGoaGjdlr9vmAUkjFU9+S4lG65nzdVGPnngA79z+ZDil5S66yf2uIlIFYZTJn607aODx8x5RCeu9oqlXbkQiN8rTisaIjdbH/pa7lTa3JVTqYT2NJR6/WtEoIjTnlWu7sTS1nrHf6yU1VtTJ732KxgP223fJudASVlIGf0tsiagtqfM0hUE0TlNrBGWxZzz8k1C/bcrexNhVNHZ5J1fJZF0qDhSBTdMuVmRBcuF739usXr168G4tmaBlYSfnrexNoZKOLpx1W1tOOEickjBaxnkVjbkzrKkhk+Ltt79G5//sNstS0VjzbtCcoCgVJsslGsUO6EOSyEM1ihmTsWYXgpGnMSeCUw9GcrsUShbVpW2Ta2O/aO6yuO9iHyVfe25U+22JuEqFsf0hemiWu6CrJG8pt7XbNaKx7VbgXH+TfH1/Snmbbb/vqw8uh2is7VdtOzxKd3/kPLBdbEpONLZ5DP220dL8a7anRoLQ59OnaJSy2W2u3tOoQtmKyKg+9ixoimGJsLFePg3f9kqKUtGoaeVuTC3ZQtvW7lIe2TIalbmvM41RnXOXCKmQtZfq4GksHcGEGwsB/yTXT8r+PFcX0VhyfjGqXNv2VCt0/cSYWoREk54uPu05Lv1OLrVJeV3solTKLkIz5bkdl2hMLXqjraE5L2XksUq1SckrN6wHrzTttg5ueV92+eVLLoiReNF5Od8vSkRj7vxiKRMNl/J6R9tT7VnL0jqN6mnUhbSMpze/5S2DByf+IUkXwxONQW8HShbRUXuUXNZTIhpL22bcorGrfbTtYln6sRC1X5u40632sl3/y9d/qZFLXKL+WJtuqryRmNOwfnuqP4Or4Ur6W5RPCfu++mBJf4+Ytm1PbfNgl9QtZc+iB2e5bfpRm3WxHVGclICLzi/6+CXnF2vy1LB2e2pu+6jEqRGN0fbUj351x2D7a7QV1efveeU45YS1bK30XjLlEAmfnNevRDTmBJVts5L0Un0xdTbR18/fepqqY81FODlBHtVL2uKQg1cMz4eyPbUvK0M6IQFZLNhzTX67lkTS33V7y6jbUyVNf4GBfOfL4gusWwXtxOjTST0plrTthTlaBv9OKVlgyUUi9ntN034nE/dNN988vGjFT8jReTlJRy8CGYenUdOMLsLxl330JRqjBVT0IMEvXHN8fNu38dZ+qYI+2hZV6oH25YwutfFl8WXVulnmkr9ekiR8ostW/KU09gxmaZ0i0RiJhjaRoA8Z/IU6o5hQLX90IZO2W8kiWts6ur2z5CKctkW1iohc25Q+9IjClYjXLvbR2haJHz2kic5Aq23P9Qe5sMjOBfL/6Py6t+NdPI2ShrazvwjH9knN37aX8NWP3Erd1t+Us384k5ub+uqDJf09GnOT7Fe2LSzL6EGN2MotW7YsuV1d7WfXXSUpm9Pm9dNbQK1XzV4Uo4JJt4lqHiKUrjvviKSZq/E0SiJyfvFZ+/72kjRtHjWi0d7u6ssfnXvU85fKQP629VXPo4pRX3cp+6uO3X94cY6HokLIv6cx5QnU84dWaNmLcHJCTfKvEUNtIlVE1hHPXTV4fUb0yQlciePPHraVPyUa9Xu7/bVNjEf5qufRel79edJR5u3ljMv21OWk35K3v8Lb3zpqz3TJokOe7I66PVWL489D5Q7Nqxixr/fw5W3bXuTP4ET5RYvbSIzZbWBan+hiF/sqk2hrXslkWro9VcoRnRPx3tEu3uFUF7Lbmv0rN+zrDyLh4vte2xmWHG/btpKO9NE+tqdKvaPr+XMvdvfnh6JX1VimkVe6S52iBaVl51+5ccWnP7Vb02ofyo3HWpPmmejrZmpEo13E2nEnXrDSV26op0zipx565NrG9t22MezD2Vdu5MpRYx9zr6eIxk/bba22/pH9099HSdfmkXqoo6/CkbAp++DPHdv+ZOP7/ubHtn3okGPv+7L0gdo+2FU0Srkn1a+0jSIb6G1WFEbi52xlrR2R8NGlNFZY+ddHlLyiIneWL8pTymKFmX+1h3/NhRVuNaJRymZfy+Hz8ecZNbyWzZ9n1N+1zp6XvZm1rX10G6cNk3rvoAocDWuFjgoo+S31yg3/qgmbp92u2eat03xSW2VtOXy9vUC2dfe/2bhtHlKfX8nrRux5RmEot68eeMB+Q0+j5K2X7OTOfXYZe5OKg2icFGnygQAEIDACgdKzSiNkQVQIQAACEIDARAmIF27r9oeqbiedaAHJbEgA0UhngAAEIDADBPq+AGcGqkwRIQABCEBgzgmIt/IZB+6f3Jo659WfqeohGmequSgsBCCwqARSt0MuKg/qDQEIQAACEIDA5AggGifHmpwgAAEIVBPQc1w1rxipzoQIEIAABCAAAQhAoIUAopHuAQEIQAACEIAABCAAAQhAAAJJAohGOgcEIAABCEAAAhCAAAQgAAEIIBrpAxCAAAQgAAEIQAACEIAABCBQTwBPYz0zYkAAAhCAAAQgAAEIQAACEFgYAojGhWlqKgoBCEAAAhCAAAQgAAEIQKCeAKKxnhkxIAABCEAAAhCAAAQgAAEILAwBROPCNDUVhQAEIAABCEAAAhCAAAQgUE8A0VjPbFliXHX1tc2LX3hc85yVz16S/6OP7Wyuv3Hj8Ls1q1Y2Jx1/dFEZb7vjzua+LdvCdCWBH257sPna17/ZnPOas4vSIxAEIAABCEAAAhCAAAQgMH8EEI1T3KZeEHrRqL+/4PlHNEcdeXijf5cKRxGi8vHpfu/ue5vv3HXPkAyicYo7CUWDAAQgAAEIQAACEIDAmAkgGscMeJTkv3jDrc2eezytOfqoIwfeRC/ubtl0W/OzJ3/evPzMU4bZiPfwgYd2NOvPfmlr1pr2Qzse3i1dEZMiROUj4hHROEorEhcCEIAABCAAAQhAAAKzTQDROAPtpx5ELxo3XPuV5ojnrhp4GfWjW0rPOn1ds/9++zQiAL3nUTyJW7c/1LzoxGNDMappqccR0TgDnYQiQgACEIAABCAAAQhAYEwEEI1jAttnsinRGJ1z9GG9aNTfRVTKJ/JgIhr7bD3SggAEIAABCEAAAhCAwGwTQDTOQPuNIhp99XTrqT0DGV2wI/HwNM5A56CIEIAABCAAAQhAAAIQGDMBROOYAfeRfF+iUbazHnLwiuHtqql08TT20WqkAQEIQAACEIAABCAAgfkggGicgXYc5UyjF4Cp6h684qDm1LUnLfkZT+MMdA6KCAEIQAACEIAABCAAgTETQDSOGXAfyadEo9yeKh8r9uT21J888tiSG1VTZcDT2EfrkAYEIAABCEAAAhCAAATmmwCicQbaNyXu9KZUPZMYhYtuT9UqIxpnoPEpIgQgAAEIQAACEIAABJaZAKJxmRugJPs2cafCUdPxl9ogGksIEwYCEIAABCAAAQhAAAIQSBFANNI3IAABCEAAAhCAAAQgAAEIQCBJANFI54AABCAAAQhAAAIQgAAEIAABRCN9AAIQgAAEIAABCEAAAhCAAATqCeBprGdGDAhAAAIQgAAEIAABCEAAAgtDANG4ME1NRSEAAQhAAAIQgAAEIAABCNQTQDTWMyMGBCAAAQhAAAIQgAAEIACBhSGAaFyYpqaiEIAABCAAAQhAAAIQgAAE6gkgGuuZEQMCEIAABCAAAQhAAAIQgMDCEEA0LkxTU1EIQAACEIAABCAAAQhAAAL1BBCN9cyIAQEIQAACEIAABCAAAQhAYGEIIBoXpqmpKAQgAAEIQAACEIAABCAAgXoCiMZ6ZsSAAAQgAAEIQAACEIAABCCwMAQQjQvT1FQUAhCAAAQgAAEIQAACEIBAPQFEYz0zYkAAAhCAAAQgAAEIQAACEFgYAojGTFPvfOJ/F6YzUFEIQAACEIAABCAAAQhAYD4I7LP303urCKKxN5QkBAEIQAACEIAABCAAAQhAYP4IIBrnr02pEQQgAAEIQAACEIAABCAAgd4IIBp7Q0lCEIAABCAAAQhAAAIQgAAE5o8AonH+2pQaQQACEIAABCAAAQhAAAIQ6I0AorE3lCQEAQhAAAIQgAAEIAABCEBg/gggGuevTakRBCAAAQhAAAIQgAAEIACB3gggGntDSUIQgAAEIAABCEAAAhCAAATmjwCicf7alBpBAAIQgAAEIAABCEAAAhDojQCisTeUJAQBCEAAAhCAAAQgAAEIQGD+CCAa569NqREEIAABCEAAAhCAAAQgAIHeCCAae0NJQhCAAAQgAAEIQAACEIAABOaPAKJx/tqUGkEAAhCAAAQgAAEIQAACEOiNAKKxN5QkBAEIQAACEIAABCAAAQhAYP4IIBrnr02pEQQgAAEIQAACEIAABCAAgd4IIBp7Q0lCEIAABCAAAQhAAAIQgAAE5o8AonH+2pQaQQACEIAABCAAAQhAAAIQ6I0AorE3lGUJff/ue5vvfv+/mtevf2VrhM9u+ELzu8/7neZ5Rx5eljChIAABCEAAAhCAAAQgAAEIjIEAonEEqLff8e3mrl0i8PRT1zaHHnJwUUqIxiJMBIIABCAAAQhAAAIQgAAEpoQAonGEhhBv4J57PK3Za689m9PWnVyUEqKxCFPvgUTg7/jRw83ZLzuz97RJEAIQgAAEIAABCEAAAvNMANHYsXW3P/BQ87XbvtGcdcapzTVfuL554x+9riglRGMRpt4DIRp7R0qCEIAABCAAAQhAAAILQgDR2LGhb964uXn6Xns1Jx5/TCMex9XPWTn4v/9c+6Ubmp888tjg6z12eSXlnKI/0ygC9MZbNg2jvnBXOhImd6ZR8n3yyZ8P45Vsk/V5HXjAfku8bz5NKYs9Vyn1Ec+qfLZue3Dw7/N3nbuUutu66ndauK7xJL4I7a/v8hTqx5ZJ6/PqV541EO9RGF8naYfcmdKO3YJoEIAABCAAAQhAAAIQmDsCiMaOTXrFv3xueJZRvFj3/3DbbkJEhJJ8dEvkzp1PDISNFS0qeqzgE0EqgswLNltUifc/O340FKoqrNo8nhrG5iVlV7ErdTps5bOHW221vFYAqjDUsmn5pU4vPumEwdnOqE5d43m2WiatgxXBWnetpwjJffbZe4ANT2PHjk40CEAAAhCAAAQgAIGFJ4Bo7NAF/BZTL2QkSesBU+Gi4sUKTPXA+TORIuDaRGNUbCtkU7+n0kwJX19XL4QlHz3bac8L+ttfu8aTOlnxJ/mJqJaPMIsEqpbJemoRjR06OlEgAAEIQAACEIAABCCwiwCisUM3EAG04pkHLdmO6sVfqQhLicOSV274raZSldQW1ZSI1epHdYrEbyRyo7h+y26XeFH9tLy6rTZVL58/orFDRycKBCAAAQhAAAIQgAAEEI31faBNyEhqukUyJVK85y7lHcyJRt3uabejtnkatdyp7avTLBq9p9G2GqKxvg8TAwIQgAAEIAABCEAAAjUE8DTW0NoVVrZG/vSnPwtf3WC9hqkzhhL/4R8/Mjz/GF2io9td27aneoEYbZH1VWsTlaUit4vHUMrRJV5JnRCNlR2Y4BCAAAQgAAEIQAACEKgkgGisBNZ21tALSglrbydVIWkvwhGxdteu20HttlK97TMnGqMLatpuUNULdvwFMbmLcGw5uoi/rqJR4mmZrYdUmD1rxTOXXLrjvZFejJdcFFTZFQgOAQhAAAIQgAAEIACBhSCAaKxoZhV4qe2S0aUsIhz1IzeTrjjooN1euaHpajhJ//qv3tL6yg2/TVbEory2I/faDZ+XfzWGLa+Ux6c3adFohaPysUK81NMocVWM88qNik5PUAhAAAIQgAAEIACBhSeAaFz4LgAACEAAAhCAAAQgAAEIQAACaQKIRnoHBCAAAQhAAAIQgAAEIAABCCQJIBrpHBCAAAQgAAEIQAACEIAABCCAaKQPQAACEIAABCAAAQhAAAIQgEA9ATyN9cyIAQEIQAACEIAABCAAAQhAYGEIIBoXpqmpKAQgAAEIQAACEIAABCAAgXoCiMZ6ZsSAAAQgAAEIQAACEIAABCCwMAQQjQvT1FQUAhCAAAQgAAEIQAACEIBAPQFEYz0zYkAAAhCAAAQgAAEIQAACEFgYAojGhWlqKgoBCEAAAhCAAAQgAAEIQKCeAKKxnhkxIAABCEAAAhCAAAQgAAEILAwBROPCNDUVhQAEIAABCEAAAhCAAAQgUE8A0VjPjBgQgAAEIAABCEAAAhCAAAQWhgCicWGamopCAAIQgAAEIAABCEAAAhCoJ4BorGdGDAhAAAIQgAAEIAABCEAAAgtDANG4ME1NRSEAAQhAAAIQgAAEIAABCNQTQDTWMyMGBCAAAQhAAAIQgAAEIACBhSGAaFyYpqaiEIAABCAAAQhAAAIQgAAE6gkgGuuZEQMCEIAABCAAAQhAAAIQgMDCEEA0LkxTU1EIQAACEIAABCAAAQhAAAL1BBCN9cyIAQEIQAACEIAABCAAAQhAYGEIIBoXpqmpKAQgAAEIQAACEIAABCAAgXoCiMZ6ZsSAAAQgAAEIQAACEIAABCCwMAQQjQvT1FQUAhCAAAQgAAEIQAACEIBAPQFEYz0zYkAAAhCAAAQgAAEIQAACEFgYAv8P8Zkz8V57GwAAAAAASUVORK5CYII=;" vertex="1" parent="1">
          <mxGeometry x="54" y="20" width="719" height="617.75" as="geometry" />
        </mxCell>
      </root>
    </mxGraphModel>
  </diagram>
  <diagram id="96_VtFYRsMzYeLtyBgQa" name="ActionSequence">
    <mxGraphModel dx="1050" dy="621" grid="1" gridSize="10" guides="1" tooltips="1" connect="1" arrows="1" fold="1" page="1" pageScale="1" pageWidth="827" pageHeight="1169" math="0" shadow="0">
      <root>
        <mxCell id="0" />
        <mxCell id="1" parent="0" />
        <mxCell id="e_AUhlemK_kAdfiGbME_-1" value="server gets started" style="rounded=0;whiteSpace=wrap;html=1;" vertex="1" parent="1">
          <mxGeometry x="260" y="150" width="120" height="60" as="geometry" />
        </mxCell>
        <mxCell id="e_AUhlemK_kAdfiGbME_-2" value="" style="rounded=0;whiteSpace=wrap;html=1;" vertex="1" parent="1">
          <mxGeometry x="100" y="400" width="120" height="60" as="geometry" />
        </mxCell>
        <mxCell id="e_AUhlemK_kAdfiGbME_-3" value="with ip/password?" style="rhombus;whiteSpace=wrap;html=1;" vertex="1" parent="1">
          <mxGeometry x="280" y="270" width="80" height="80" as="geometry" />
        </mxCell>
      </root>
    </mxGraphModel>
  </diagram>
  <diagram id="gsWWEj1z5ij-LixCRyG_" name="Seite-4">
    <mxGraphModel dx="1050" dy="621" grid="1" gridSize="10" guides="1" tooltips="1" connect="1" arrows="1" fold="1" page="1" pageScale="1" pageWidth="827" pageHeight="1169" math="0" shadow="0">
      <root>
        <mxCell id="0" />
        <mxCell id="1" parent="0" />
        <mxCell id="4dK5zq8lZGll0ej2TQpp-7" style="edgeStyle=orthogonalEdgeStyle;rounded=0;orthogonalLoop=1;jettySize=auto;html=1;exitX=0.5;exitY=1;exitDx=0;exitDy=0;entryX=0.5;entryY=0;entryDx=0;entryDy=0;" edge="1" parent="1" source="4dK5zq8lZGll0ej2TQpp-1" target="4dK5zq8lZGll0ej2TQpp-5">
          <mxGeometry relative="1" as="geometry">
            <Array as="points">
              <mxPoint x="150" y="270" />
              <mxPoint x="220" y="270" />
            </Array>
          </mxGeometry>
        </mxCell>
        <mxCell id="4dK5zq8lZGll0ej2TQpp-1" value="ref_transcripütome" style="rounded=0;whiteSpace=wrap;html=1;" vertex="1" parent="1">
          <mxGeometry x="90" y="130" width="120" height="60" as="geometry" />
        </mxCell>
        <mxCell id="4dK5zq8lZGll0ej2TQpp-8" style="edgeStyle=orthogonalEdgeStyle;rounded=0;orthogonalLoop=1;jettySize=auto;html=1;exitX=0.5;exitY=1;exitDx=0;exitDy=0;entryX=0.5;entryY=0;entryDx=0;entryDy=0;" edge="1" parent="1" source="4dK5zq8lZGll0ej2TQpp-2" target="4dK5zq8lZGll0ej2TQpp-5">
          <mxGeometry relative="1" as="geometry" />
        </mxCell>
        <mxCell id="4dK5zq8lZGll0ej2TQpp-9" style="edgeStyle=orthogonalEdgeStyle;rounded=0;orthogonalLoop=1;jettySize=auto;html=1;exitX=0.5;exitY=1;exitDx=0;exitDy=0;entryX=0.5;entryY=0;entryDx=0;entryDy=0;" edge="1" parent="1" source="4dK5zq8lZGll0ej2TQpp-2" target="4dK5zq8lZGll0ej2TQpp-6">
          <mxGeometry relative="1" as="geometry" />
        </mxCell>
        <mxCell id="4dK5zq8lZGll0ej2TQpp-2" value="general" style="rounded=0;whiteSpace=wrap;html=1;" vertex="1" parent="1">
          <mxGeometry x="270" y="130" width="120" height="60" as="geometry" />
        </mxCell>
        <mxCell id="4dK5zq8lZGll0ej2TQpp-10" style="edgeStyle=orthogonalEdgeStyle;rounded=0;orthogonalLoop=1;jettySize=auto;html=1;exitX=0.5;exitY=1;exitDx=0;exitDy=0;entryX=0.5;entryY=0;entryDx=0;entryDy=0;" edge="1" parent="1" source="4dK5zq8lZGll0ej2TQpp-3" target="4dK5zq8lZGll0ej2TQpp-6">
          <mxGeometry relative="1" as="geometry" />
        </mxCell>
        <mxCell id="4dK5zq8lZGll0ej2TQpp-3" value="ref_genome" style="rounded=0;whiteSpace=wrap;html=1;" vertex="1" parent="1">
          <mxGeometry x="450" y="130" width="120" height="60" as="geometry" />
        </mxCell>
        <mxCell id="4dK5zq8lZGll0ej2TQpp-11" style="edgeStyle=orthogonalEdgeStyle;rounded=0;orthogonalLoop=1;jettySize=auto;html=1;exitX=0.5;exitY=1;exitDx=0;exitDy=0;entryX=0.5;entryY=0;entryDx=0;entryDy=0;" edge="1" parent="1" source="4dK5zq8lZGll0ej2TQpp-4" target="4dK5zq8lZGll0ej2TQpp-6">
          <mxGeometry relative="1" as="geometry" />
        </mxCell>
        <mxCell id="4dK5zq8lZGll0ej2TQpp-4" value="minimap2" style="rounded=0;whiteSpace=wrap;html=1;" vertex="1" parent="1">
          <mxGeometry x="640" y="130" width="120" height="60" as="geometry" />
        </mxCell>
        <mxCell id="4dK5zq8lZGll0ej2TQpp-5" value="TranscriptomeState" style="rounded=0;whiteSpace=wrap;html=1;" vertex="1" parent="1">
          <mxGeometry x="160" y="310" width="120" height="60" as="geometry" />
        </mxCell>
        <mxCell id="4dK5zq8lZGll0ej2TQpp-6" value="GenomeState" style="rounded=0;whiteSpace=wrap;html=1;" vertex="1" parent="1">
          <mxGeometry x="450" y="310" width="120" height="60" as="geometry" />
        </mxCell>
      </root>
    </mxGraphModel>
  </diagram>
</mxfile>
